<?xml version="1.0" standalone="no"?>
<!DOCTYPE svg PUBLIC "-//W3C//DTD SVG 1.1//EN" "http://www.w3.org/Graphics/SVG/1.1/DTD/svg11.dtd" >
<svg xmlns="http://www.w3.org/2000/svg" xmlns:xlink="http://www.w3.org/1999/xlink" version="1.1">
<metadata>
Created by FontForge 20201107 at (null) By 
Brown is a trademark of Shinn Type Foundry. Copyright  2003 by Nick Shinn. Published 2003 by Shinn Type Foundry.
</metadata>
<defs>
<font id="BrownHeavy" horiz-adv-x="619" >
  <font-face 
    font-family="BrownHeavy"
    font-weight="400"
    font-stretch="normal"
    units-per-em="1000"
    panose-1="0 0 4 0 0 0 0 0 0 0"
    ascent="800"
    descent="-200"
    x-height="529"
    cap-height="694"
    bbox="-175 -193 1090 910"
    underline-thickness="58"
    underline-position="-122"
    unicode-range="U+0020-F002"
  />
<missing-glyph horiz-adv-x="500" 
d="M63 0v753h375v-753h-375zM125 63h250v628h-250v-628z" />
    <glyph glyph-name=".notdef" horiz-adv-x="500" 
d="M63 0v753h375v-753h-375zM125 63h250v628h-250v-628z" />
    <glyph glyph-name=".null" horiz-adv-x="0" 
 />
    <glyph glyph-name="glyph2" horiz-adv-x="223" 
 />
    <glyph glyph-name="space" unicode=" " horiz-adv-x="223" 
 />
    <glyph glyph-name="exclam" unicode="!" horiz-adv-x="334" 
d="M283 694q0 -98 -37 -488q-17 2 -72 2q-57 0 -80 -2q-44 388 -44 488q61 -2 124 -2t109 2zM264 -1q-32 2 -96 2q-69 0 -100 -2q3 36 3 71t-3 92q20 -1 98 -1t98 1q-2 -28 -2 -84t2 -79z" />
    <glyph glyph-name="quotedbl" unicode="&#x22;" horiz-adv-x="551" 
d="M494 714q-8 -83 -27 -319q-36 2 -60 2t-61 -2q-8 112 -28 319q40 -2 90 -2q48 0 86 2zM238 714q-12 -110 -32 -319q-18 1 -50 1q-35 0 -71 -1q-14 198 -29 319q61 -3 98 -3q38 0 84 3z" />
    <glyph glyph-name="numbersign" unicode="#" horiz-adv-x="540" 
d="M534 405q-70 3 -80 3q-14 0 -16 -12q-12 -78 -12 -83q0 -13 12 -13q10 0 31 1q25 1 30 1q-3 -38 -3 -60q0 -25 3 -51q-72 3 -83 3q-6 0 -8 -13q-21 -153 -23 -181q-15 2 -53 2q-36 0 -68 -2q34 175 34 184q0 11 -10 11h-98q-8 0 -9 -10q-10 -70 -25 -186q-24 2 -62 2
t-60 -2q32 172 32 183t-8 11q-4 0 -70 -2q2 27 2 57q0 28 -2 54q57 -2 78 -2q18 0 19 11q12 82 12 89t-12 7q5 0 -62 -2q2 25 2 60t-2 62q74 -3 78 -3q16 0 18 16l18 156q13 -2 55 -2q45 0 68 2q-28 -143 -28 -164q0 -9 8 -9h95q11 0 13 16q7 55 19 157q34 -2 69 -2
q31 0 52 2q-27 -153 -27 -164q0 -7 11 -7q-3 0 62 2q-1 -13 -1 -61t1 -61zM329 402q0 7 -10 7h-96q-11 0 -13 -13q-12 -84 -12 -89q0 -8 8 -8h95q14 0 16 15z" />
    <glyph glyph-name="dollar" unicode="$" horiz-adv-x="548" 
d="M522 209q0 -154 -166 -196q-12 -3 -12 -13q0 -52 2 -73q-53 2 -76 2q-24 0 -74 -2q2 43 2 75q0 8 -11 10q-161 33 -161 186q0 21 5 51q45 -2 96 -2q53 0 90 2q-3 -27 -3 -37q0 -88 60 -88q55 0 55 65q0 50 -77 83q-129 54 -144 64q-77 53 -77 152q0 140 150 185
q16 5 16 16t-3 69q25 -1 75 -1t77 1q-2 -28 -2 -66q0 -11 20 -16q138 -35 138 -176q0 -7 -3 -29q-35 2 -96 2q-49 0 -83 -2v22q0 81 -50 81q-49 0 -49 -62q0 -46 78 -80q124 -54 145 -69q78 -55 78 -154z" />
    <glyph glyph-name="percent" unicode="%" horiz-adv-x="838" 
d="M811 181q0 -191 -168 -191q-171 0 -171 190q0 200 168 200q171 0 171 -199zM668 706q-109 -185 -394 -717q-27 2 -56 2q-27 0 -51 -2q52 90 396 717q17 -1 53 -1q35 0 52 1zM366 501q0 -192 -168 -192q-172 0 -172 191q0 199 168 199q172 0 172 -198zM676 182q0 54 -2 67
q-7 48 -33 48q-27 0 -34 -45q-2 -15 -2 -64t2 -65q8 -46 35 -46q25 0 32 43q2 12 2 62zM230 502q0 54 -1 67q-7 47 -33 47q-27 0 -34 -45q-2 -14 -2 -63t2 -65q7 -47 35 -47q25 0 32 43q1 13 1 63z" />
    <glyph glyph-name="ampersand" unicode="&#x26;" horiz-adv-x="715" 
d="M702 2q-39 -10 -80 -10q-108 0 -162 48q-15 13 -20 13q-4 0 -19 -10q-81 -53 -186 -53q-99 0 -164 53.5t-65 144.5q0 143 152 201q18 7 18 12q0 4 -6 14q-37 64 -37 125q0 77 54 122q58 47 163 47q98 0 154 -38q61 -42 61 -120q0 -99 -132 -157q-25 -11 -25 -16
q0 -10 42 -64q23 -30 30 -30q3 0 11 11q11 15 23 47.5t15 52.5q22 -1 77 -1q58 0 83 1q-19 -62 -50 -108t-64 -92q-3 -5 -3 -11q0 -9 28 -24q36 -18 84 -18q9 0 18 1q-4 -34 -4 -66q0 -28 4 -75zM400 555q0 51 -40 51q-38 0 -38 -48q0 -28 16 -70q8 -19 9 -19q5 0 19 13
q11 10 18 20q16 22 16 53zM347 152q0 6 -9 16q-54 62 -86 120q-8 15 -14 15q-16 0 -33 -37q-8 -18 -8 -48q0 -41 25 -70t58 -29q25 0 46 12t21 21z" />
    <glyph glyph-name="quotesingle" unicode="'" horiz-adv-x="290" 
d="M238 714q-12 -110 -32 -319q-36 2 -60 2q-25 0 -61 -2q-14 198 -29 319q41 -2 90 -2q50 0 92 2z" />
    <glyph glyph-name="parenleft" unicode="(" horiz-adv-x="389" 
d="M371 -77q-49 2 -88 2q-54 0 -75 -2q-131 187 -131 389q0 100 35.5 207.5t98.5 194.5q19 -2 76 -2q37 0 84 2q-106 -195 -106 -410q0 -208 106 -381z" />
    <glyph glyph-name="parenright" unicode=")" horiz-adv-x="391" 
d="M314 312q0 -200 -135 -389q-18 2 -73 2q-38 0 -87 -2q106 195 106 401q0 216 -107 390q43 -2 82 -2q57 0 81 2q133 -187 133 -402z" />
    <glyph glyph-name="asterisk" unicode="*" horiz-adv-x="338" 
d="M342 538q-28 0 -67 -4q-51 -6 -51 -15q0 -12 83 -89q-54 -29 -88 -66q-44 110 -53 110q-8 0 -52 -109q-47 43 -90 66q87 74 87 88t-115 23q21 43 34 106q75 -60 98 -60q5 0 5 17q0 44 -17 109q19 -2 49 -2q36 0 57 2q-19 -69 -19 -108q0 -18 5 -18q20 0 102 57
q6 -49 32 -107z" />
    <glyph glyph-name="plus" unicode="+" horiz-adv-x="480" 
d="M471 181q-80 3 -151 3q-13 0 -15.5 -3t-2.5 -17q0 -91 3 -165q-31 3 -65 3q-35 0 -66 -3q3 91 3 164q0 15 -2.5 18t-16.5 3q-32 0 -149 -3q3 34 3 65t-3 65q92 -3 150 -3q13 0 15.5 3.5t2.5 19.5q0 30 -3 163q26 -2 59 -2q30 0 72 2q-2 -70 -2 -162q0 -17 2.5 -21
t15.5 -4q61 0 150 4q-3 -47 -3 -69q0 -26 3 -61z" />
    <glyph glyph-name="comma" unicode="," horiz-adv-x="229" 
d="M217 162q-8 -45 -43 -156t-58 -161q-41 2 -62 2q-23 0 -59 -2q42 163 64 317q26 -1 84 -1q49 0 74 1z" />
    <glyph glyph-name="hyphen" unicode="-" horiz-adv-x="289" 
d="M278 192q-60 2 -133 2q-71 0 -129 -2q2 25 2 63q0 45 -2 78q60 -2 130 -2q71 0 132 2q-2 -33 -2 -77q0 -39 2 -64z" />
    <glyph glyph-name="hyphen" unicode="&#x2010;" horiz-adv-x="289" 
d="M278 192q-60 2 -133 2q-71 0 -129 -2q2 25 2 63q0 45 -2 78q60 -2 130 -2q71 0 132 2q-2 -33 -2 -77q0 -39 2 -64z" />
    <glyph glyph-name="period" unicode="." horiz-adv-x="240" 
d="M202 -1q-26 2 -81 2q-57 0 -83 -2q2 36 2 71t-2 92q16 -1 81 -1q67 0 83 1q-2 -28 -2 -84t2 -79z" />
    <glyph glyph-name="slash" unicode="/" horiz-adv-x="424" 
d="M434 714q-63 -171 -279 -740q-50 2 -103 2q-35 0 -68 -2q198 504 281 740q31 -2 72 -2q66 0 97 2z" />
    <glyph glyph-name="zero" unicode="0" horiz-adv-x="553" 
d="M536 344q0 -177 -56 -260q-62 -93 -208 -93q-158 0 -215 107q-39 74 -39 239q0 166 38 244q59 122 221 122q160 0 219 -116q40 -79 40 -243zM332 352q0 87 -8 170q-7 68 -47 68q-41 0 -49 -68q-7 -63 -7 -172t6 -174q6 -71 49 -71q40 0 48 72.5t8 174.5z" />
    <glyph glyph-name="one" unicode="1" horiz-adv-x="361" 
d="M323 -1q-47 2 -101 2q-66 0 -110 -2q3 201 3 363v115q0 14 -5 17t-26 3t-84 -2q2 33 2 52q0 18 -2 53q55 4 108 35q50 29 64 59q23 -2 81 -2q47 0 70 2q-3 -164 -3 -353q0 -175 3 -342z" />
    <glyph glyph-name="two" unicode="2" horiz-adv-x="544" 
d="M520 483q0 -63 -48 -133q-34 -51 -98 -111l-80 -74q-6 -6 -18 -13t-12 -9q0 -3 14 -3q3 0 24 1h29h41q29 -1 44 -1q55 0 93 2q-3 -51 -3 -83q0 -35 3 -59q-114 2 -253 2q-119 0 -233 -2v13q0 12 -1.5 37t-1.5 37q0 25 3 32q24 28 126 123q88 83 125 134q43 60 43 121
q0 31 -11 53q-14 30 -41 30q-30 0 -42.5 -24t-12.5 -80q0 -21 2 -61q-61 2 -99 2q-31 0 -89 -2q-2 25 -2 55q0 233 249 233q117 0 183 -59.5t66 -160.5z" />
    <glyph glyph-name="three" unicode="3" horiz-adv-x="542" 
d="M529 190q0 -98 -75 -151q-71 -48 -191 -48q-246 0 -246 215q0 11 1 30q60 -2 96 -2q65 0 104 2q-3 -56 -3 -55q0 -72 53 -72q34 0 46 27q8 17 8 57q0 59 -18 82q-16 20 -56 20h-55q-48 -1 -59 -1q2 16 2 57q0 39 -2 57h59q48 -1 57 -1q66 0 66 85q0 90 -50 90
q-27 0 -38 -15t-11 -58q0 -17 3 -41q-30 2 -96 2q-71 0 -100 -2q-2 21 -2 37q0 198 249 198q116 0 180.5 -51t64.5 -141q0 -93 -89 -141q-7 -4 -24 -9q-11 -3 -11 -6t13 -4q17 -3 23 -5q101 -35 101 -156z" />
    <glyph glyph-name="four" unicode="4" horiz-adv-x="584" 
d="M571 152q-67 2 -75 2q-13 0 -15.5 -2.5t-2.5 -14.5q0 -25 1 -71.5t1 -66.5q-42 2 -101 2q-48 0 -90 -2q3 77 3 139q0 11 -3 13.5t-15 2.5q-178 0 -266 -2q2 29 2 44t-2 46q123 215 238 452q50 -2 119 -2q68 0 115 2q-2 -243 -2 -409q0 -18 15 -18q17 0 78 3
q-1 -39 -1 -70q0 -30 1 -48zM293 498q0 10 -5 10q-1 0 -13.5 -28.5t-89.5 -192.5q-9 -18 -9 -16q0 -5 18 -5q12 0 38 1h44q16 0 16 20v170v21q1 16 1 20z" />
    <glyph glyph-name="five" unicode="5" horiz-adv-x="522" 
d="M505 230q0 -111 -64 -175t-181 -64q-127 0 -182 47t-55 150q0 11 1 30q41 -3 83 -3q54 0 96 3q-1 -7 -1 -27q0 -48 11.5 -65t39.5 -17q29 0 40.5 24.5t11.5 90.5q0 62 -12 87.5t-43 25.5q-36 0 -53 -40q-54 9 -156 9h-10q18 113 18 355v33q100 -3 203 -3q59 0 215 3
q-1 -24 -1 -69q0 -43 1 -68q-133 2 -232 2q-13 0 -16 -3t-4 -15q-1 -29 -4 -82q-2 -26 -2 -32t5 -6q4 0 14 8q31 25 89 25q95 0 143 -63q45 -58 45 -161z" />
    <glyph glyph-name="six" unicode="6" horiz-adv-x="541" 
d="M526 234q0 -243 -256 -243q-134 0 -195 81q-59 78 -59 246q0 207 62.5 296t201.5 89q114 0 173 -48t59 -133q0 1 -2 -31q-60 2 -104 2q-49 0 -84 -2v19q0 74 -46 74q-25 0 -36 -25q-15 -33 -18 -120q0 -6 -1 -18t-1 -17t3 -5t10 5q40 30 91 30q93 0 147.5 -53.5
t54.5 -146.5zM331 217q0 107 -57 107q-53 0 -53 -63q0 -91 15 -127q12 -28 39 -28q31 0 43.5 26t12.5 85z" />
    <glyph glyph-name="seven" unicode="7" horiz-adv-x="491" 
d="M479 604l-1 -19q-98 -119 -140 -274q-30 -112 -44 -312q-50 2 -118 2q-59 0 -108 -2q25 172 59 279q46 149 126 248l18 16q6 5 6 7q0 3 -9 3h-17q-15 -1 -21 -1q-54 0 -125.5 -1t-92.5 -1q2 33 2 72q0 37 -2 69q110 -2 224 -2q127 0 242 2q-2 -10 -2 -22q0 -10 1.5 -31.5
t1.5 -32.5z" />
    <glyph glyph-name="eight" unicode="8" horiz-adv-x="529" 
d="M516 196q0 -91 -61 -145q-67 -59 -193 -59q-123 0 -189 59q-61 54 -61 144q0 109 100 153q6 3 20 5q11 2 11 4q0 3 -9 5q-13 4 -20 8q-86 53 -86 143q0 82 57 134q64 56 181 56q111 0 175 -53q61 -51 61 -135q0 -90 -84 -143q-5 -3 -18.5 -7.5t-13.5 -6.5t13 -4.5
t17 -4.5q100 -44 100 -153zM317 501q0 86 -53 86q-50 0 -50 -86q0 -89 50 -89q53 0 53 89zM322 200q0 101 -58 101t-58 -104q0 -89 57 -89q59 0 59 92z" />
    <glyph glyph-name="nine" unicode="9" horiz-adv-x="541" 
d="M526 373q0 -206 -63.5 -293.5t-202.5 -87.5q-232 0 -232 177q0 -1 2 31q60 -2 106 -2q47 0 82 2v-19q0 -74 46 -74q25 0 36 26q15 32 18 120q0 6 1 17.5t1 16.5t-3 5t-10 -5q-40 -30 -91 -30q-90 0 -145 54t-55 146q0 124 70 187q65 59 184 59q134 0 195 -81t61 -249z
M319 430q0 159 -54 159q-56 0 -56 -115q0 -107 57 -107q53 0 53 63z" />
    <glyph glyph-name="colon" unicode=":" horiz-adv-x="240" 
d="M202 326q-26 2 -81 2q-57 0 -83 -2q2 36 2 71t-2 92q33 -2 81 -2q50 0 83 2q-2 -28 -2 -84t2 -79zM202 -1q-26 2 -81 2q-57 0 -83 -2q2 36 2 71t-2 92q33 -2 81 -2q50 0 83 2q-2 -28 -2 -84t2 -79z" />
    <glyph glyph-name="semicolon" unicode=";" horiz-adv-x="229" 
d="M202 326q-26 2 -81 2q-57 0 -83 -2q2 36 2 71t-2 92q33 -2 81 -2q50 0 83 2q-2 -28 -2 -84t2 -79zM217 162q-7 -40 -44 -154q-33 -100 -57 -163q-41 2 -62 2q-23 0 -59 -2q42 163 64 317q26 -1 79 -1q54 0 79 1z" />
    <glyph glyph-name="less" unicode="&#x3c;" horiz-adv-x="489" 
d="M472 -6q-186 82 -464 201q3 37 3 60q0 24 -3 48q168 66 464 202q-2 -89 -2 -79q0 -20 2 -52q-60 -21 -253 -110q-4 -2 -25 -7q-17 -4 -17 -7t17 -8q21 -6 25 -8q96 -46 253 -109q-2 -31 -2 -58q0 -25 2 -73z" />
    <glyph glyph-name="equal" unicode="=" horiz-adv-x="480" 
d="M470 286q-156 2 -252 2q-104 0 -208 -2q2 30 2 58q0 24 -2 70q157 -3 266 -3q116 0 194 3q-2 -45 -2 -69q0 -27 2 -59zM470 75l-230 1q-75 0 -230 -1q2 30 2 65q0 34 -2 64q117 -3 230 -3t230 3q-1 -47 -1 -75q0 -31 1 -54z" />
    <glyph glyph-name="greater" unicode="&#x3e;" horiz-adv-x="489" 
d="M482 196q-174 -68 -465 -202q2 89 2 79q0 20 -2 52q56 20 252 110q4 2 25 8q17 4 17 7t-17 8q-21 5 -25 7q-101 49 -252 109q2 31 2 59q0 24 -2 72q186 -82 465 -201q-2 -25 -2 -49q0 -21 2 -59z" />
    <glyph glyph-name="question" unicode="?" horiz-adv-x="551" 
d="M529 514q0 -82 -46 -135q-15 -18 -84 -68q-46 -34 -46 -68q0 -15 1 -37q-39 3 -84 3q-38 0 -89 -3q-2 36 -2 60q0 64 35 106q5 7 67 58q42 35 42 82q0 70 -41 70q-47 0 -47 -68q0 -4 1 -20v-17q-51 2 -108 2q-52 0 -85 -2v19q-1 18 -1 25q0 85 64 134t174 49
q106 0 173 -44q76 -51 76 -146zM350 -1q-27 2 -80 2q-59 0 -85 -2q2 36 2 71t-2 92q25 -1 82 -1t83 1q-2 -28 -2 -84t2 -79z" />
    <glyph glyph-name="at" unicode="@" horiz-adv-x="709" 
d="M693 390q0 -115 -66 -184q-59 -61 -143 -61q-58 0 -83 34q-1 2 -3.5 11t-6.5 9q2 0 -15 -17q-36 -36 -74 -36q-42 0 -70 43.5t-28 112.5q0 93 37.5 156.5t99.5 63.5q37 0 61 -20q6 -8 15 -19l3 5l3 27q20 -2 49 -2q28 0 43 2q-36 -195 -36 -254q0 -37 33 -37
q36 0 64.5 40t28.5 103q0 124 -69 196q-63 65 -156 65q-122 0 -195 -91q-65 -82 -65 -198q0 -130 65 -208q68 -82 188 -82q80 0 183 74q32 -38 54 -56q-108 -102 -251 -102q-159 0 -252 107q-90 102 -90 267q0 150 89 255q100 117 272 117q130 0 218 -80q97 -89 97 -241z
M403 384q0 57 -43 57q-52 0 -52 -143q0 -62 38 -62q39 0 50 91q7 60 7 57z" />
    <glyph glyph-name="A" unicode="A" horiz-adv-x="599" 
d="M608 -1q-33 2 -110 2q-61 0 -92 -2q-9 43 -24 120q-2 11 -21 12q-15 1 -68 1q-50 0 -64.5 -1t-16.5 -10l-26 -122q-29 2 -91 2q-76 0 -105 -2q119 429 183 695q48 -2 131 -2q28 0 64 1q46 1 65 1q76 -330 175 -695zM348 258q0 2 -1 8q-12 59 -37 181q-1 2 -5 27
q-4 21 -7 21t-6 -20q-3 -26 -4 -28q-13 -53 -43 -184l-1 -5q0 -7 10 -7q8 0 22 1h23h18q9 -1 19 -1q12 0 12 7z" />
    <glyph glyph-name="B" unicode="B" horiz-adv-x="588" 
d="M562 181q0 -86 -59.5 -133.5t-164.5 -47.5q-34 0 -79.5 1t-79.5 1h-41q-61 0 -96 -2q2 93 2 340q0 256 -2 354q30 -1 88 -1h42q33 0 78 1h79q99 0 157 -52q55 -50 55 -132q0 -50 -27.5 -90.5t-74.5 -61.5q-9 -4 -25 -6q-6 -1 -6 -2q1 -2 6.5 -2.5t27.5 -4.5
q52 -18 86 -61t34 -101zM344 491q0 80 -76 80h-11q-15 0 -18 -2.5t-4 -16.5q-1 -17 -1 -63v-68q0 -13 17 -13h14q79 0 79 83zM356 199q0 90 -84 90h-22q-12 0 -14 -2.5t-2 -13.5v-15q0 -21 1 -64v-61q0 -16 23 -16h14q84 0 84 82z" />
    <glyph glyph-name="C" unicode="C" horiz-adv-x="593" 
d="M572 272q0 -61 -6 -103q-12 -87 -77 -135t-177 -48q-141 0 -211 81q-75 87 -75 272q0 191 68.5 280t217.5 89q112 0 178 -50q63 -49 75 -136q6 -42 6 -96q-45 3 -113 3q-43 0 -85 -2v41q0 113 -57 113q-42 0 -56 -41q-18 -51 -18 -206q0 -130 19 -177q15 -41 55 -41
q29 0 42 22t18 70q0 5 2 69q66 -6 137 -6q28 0 57 1z" />
    <glyph glyph-name="D" unicode="D" horiz-adv-x="618" 
d="M592 347q0 -162 -71 -252q-76 -95 -223 -95q-23 0 -67.5 1t-68.5 1q-66 0 -121 -2q3 164 3 341q0 180 -3 353q32 -1 97 -1q4 0 146 1q153 1 230.5 -88.5t77.5 -258.5zM371 344q0 115 -22 167q-24 59 -84 59h-3q-12 0 -14.5 -2t-2.5 -13q-3 -48 -3 -142v-50q0 -144 3 -226
q0 -12 18 -12h6q102 0 102 219z" />
    <glyph glyph-name="E" unicode="E" horiz-adv-x="463" 
d="M445 0q-74 2 -210 2q-124 0 -194 -2q0 40 1 154t1 178q0 139 -2 362q108 -2 188 -2q50 0 203 2q-1 -18 -1 -68q0 -48 1 -66l-180 2q-13 0 -13 -6q-3 -27 -3 -111v-20q0 -14 17 -14h7q59 0 162 2q-2 -49 -2 -66q0 -18 2 -67q-112 2 -162 2h-9q-15 0 -15 -14v-16
q0 -78 2 -104q0 -11 14 -11q42 0 193 2q-2 -45 -2 -70q0 -37 2 -69z" />
    <glyph glyph-name="F" unicode="F" horiz-adv-x="454" 
d="M431 560q-127 2 -167 2h-10q-14 0 -14 -13q0 -16 -1 -49v-49v-31q0 -13 17 -13q43 0 171 2q-1 -21 -1 -65q0 -30 2 -69q-126 2 -169 2q-14 0 -17 -3t-3 -15v-43q0 -158 2 -217q-33 2 -95 2q-74 0 -105 -2l2 351q0 187 -2 344q135 -2 201 -2q53 0 189 2q-1 -21 -1 -65v-38
q1 -23 1 -31z" />
    <glyph glyph-name="G" unicode="G" horiz-adv-x="599" 
d="M569 464q0 -3 -1 -17v-20q-45 2 -96 2q-54 0 -102 -2q1 11 1 44q0 110 -58 110q-40 0 -54 -44q-17 -50 -17 -205q0 -122 18.5 -169.5t67.5 -47.5t49 44v32q0 23 -23 23q-14 0 -38 -1q1 39 1 61q0 34 -1 55q35 -2 124 -2q82 0 125 2q-3 -113 -3 -165q0 -79 2 -128
q-105 -48 -244 -48q-294 0 -294 339q0 212 81 303q69 78 211 78q132 0 191.5 -57.5t59.5 -186.5z" />
    <glyph glyph-name="H" unicode="H" horiz-adv-x="616" 
d="M575 -1q-32 2 -95 2q-58 0 -107 -2q0 23 1 120v135v17q0 11 -13 12q-16 1 -51 1q-23 0 -57 -2q-11 -1 -11 -11v-16q0 -26 4 -256q-37 2 -106 2q-56 0 -99 -2q0 47 1 176t1 191q0 63 -1 171.5t-1 156.5q74 -2 107 -2q30 0 96 2q-2 -73 -2 -252v-17q0 -12 12 -13
q20 -1 56 -1q55 0 59.5 3t4.5 10v18v126q-1 84 -1 126q36 -2 108 -2q58 0 94 2l-1 -345q0 -223 1 -350z" />
    <glyph glyph-name="I" unicode="I" horiz-adv-x="286" 
d="M245 -1q-33 2 -101 2q-61 0 -103 -2q2 369 2 355q0 162 -2 340q74 -2 103 -2q35 0 101 2q-3 -147 -3 -339q0 -191 3 -356z" />
    <glyph glyph-name="J" unicode="J" horiz-adv-x="580" 
d="M539 174q0 -85 -66 -136q-69 -52 -189 -52q-258 0 -258 208q0 10 1 28q2 22 2 30q62 -4 105 -4q45 0 89 4q-2 -40 -2 -52q0 -84 60 -84q52 0 54 79q2 137 2 240q0 133 -2 259q65 -2 90 -2q69 0 114 2q-1 -39 -1 -107v-122v-149q1 -97 1 -138v-4z" />
    <glyph glyph-name="K" unicode="K" horiz-adv-x="594" 
d="M600 -1q-53 2 -114 2q-56 0 -110 -2q-36 85 -111 244q-2 5 -8.5 19.5t-9.5 14.5q-4 0 -3 -7l1 -37q0 -77 2 -234q-34 2 -103 2q-59 0 -103 -2q2 127 2 348q0 216 -2 347q65 -2 103 -2q54 0 103 2l-2 -277q-1 -14 -1 -20t3 -8q5 0 7.5 7.5t8.5 22.5q74 138 134 275
q57 -2 97 -2q54 0 106 2q-60 -111 -161 -302q-14 -28 -14 -41q0 -11 9 -30q52 -98 166 -322z" />
    <glyph glyph-name="L" unicode="L" horiz-adv-x="458" 
d="M439 139q-2 -47 -2 -74q0 -42 1 -65q-138 2 -204 2q-59 0 -193 -2q2 164 2 348q0 181 -2 346q38 -1 98 -1q71 0 106 1q-3 -105 -3 -331q0 -51 3 -215q0 -11 13 -11h16q107 0 165 2z" />
    <glyph glyph-name="M" unicode="M" horiz-adv-x="852" 
d="M811 -1q-29 2 -84 2q-45 0 -87 -2l3 446q0 8 -5 8q-4 0 -8 -27q-2 -19 -8 -41q-25 -102 -80 -319q0 -2 -15 -67q-27 2 -101 2q-76 0 -106 -2q0 2 -15 65q-49 204 -79 321q-4 14 -10 41t-10 27q-3 0 -3 -8q0 -4 1 -43l2 -403q-39 2 -82 2q-49 0 -83 -2q2 163 2 364
q0 166 -2 331q44 -2 128 -2q83 0 130 2q38 -154 103 -402q7 -39 17 -85q2 -7 6 -7q5 0 6 7q7 51 17 85q67 238 105 402q61 -2 127 -2q67 0 131 2q-2 -115 -2 -330q0 -166 2 -365z" />
    <glyph glyph-name="N" unicode="N" horiz-adv-x="671" 
d="M632 694q-3 -241 -3 -352q0 -219 1 -343q-38 2 -122 2q-87 0 -114 -2q-68 183 -148 379q-4 18 -12 43q-3 12 -6 12q-5 0 -4 -9l1 -55l2 -370q-29 2 -89 2t-97 -2q2 183 2 323l-1 372q54 -2 124 -2q62 0 114 2q105 -289 141 -373q8 -24 17 -50q1 -3 7 -7q4 0 4 9
q0 5 -1 17v18v20l-3 366q39 -2 93 -2q42 0 94 2z" />
    <glyph glyph-name="O" unicode="O" 
d="M593 351q0 -191 -69.5 -277.5t-215.5 -86.5q-282 0 -282 360q0 181 64 268q67 93 217 93q148 0 217 -86t69 -271zM377 342q0 152 -17 201q-13 38 -49 38q-41 0 -54 -44q-15 -48 -15 -200q0 -135 17 -182q14 -40 51 -40q39 0 52 38q15 45 15 189z" />
    <glyph glyph-name="P" unicode="P" horiz-adv-x="583" 
d="M568 477q0 -219 -263 -219q-10 0 -22 1h-23q-16 0 -16 -16v-20q0 -96 2 -224q-33 2 -102 2q-58 0 -102 -2q4 156 4 339q0 287 -3 356q34 -1 112 -1q30 0 76 1h76q120 0 190.5 -57.5t70.5 -159.5zM360 476q0 96 -77 96q-25 0 -31.5 -3t-6.5 -13q0 -17 -1 -74v-80v-7
q0 -12 10 -12h16q41 0 65.5 25.5t24.5 67.5z" />
    <glyph glyph-name="Q" unicode="Q" 
d="M593 351q0 -262 -138 -325q-18 -8 -18 -13q0 -4 2 -8q7 -11 83 -11q26 0 62 4q-2 -29 -2 -65t2 -76q-17 -3 -62 -3q-85 0 -146 23q-80 29 -99 94q-7 23 -24 26q-227 34 -227 347q0 364 284 364q140 0 208 -78q75 -86 75 -279zM374 349q0 148 -8 185q-12 48 -56 48
q-43 0 -56 -48q-10 -42 -10 -186q0 -113 3 -137q12 -96 61 -96q51 0 63 96q3 25 3 138z" />
    <glyph glyph-name="R" unicode="R" horiz-adv-x="586" 
d="M570 -1q-36 2 -98 2q-64 0 -111 -2q-45 162 -59 201q-19 54 -49 54h-3q-11 0 -11 -13v-28q0 -59 2 -214q-34 2 -102 2q-51 0 -97 -2q2 106 2 291q0 211 -2 404q70 -2 140 -2q30 0 72.5 1t71.5 1q108 0 171 -58t63 -155q0 -62 -33 -113q-30 -44 -70 -59q-14 -5 -14 -6
q0 1 12.5 -13.5t18.5 -23.5q15 -25 31 -68q17 -46 65 -199zM355 477q0 92 -99 92h-4q-11 0 -12 -13q-2 -38 -2 -70v-45q1 -32 1 -45t14 -13h4q98 0 98 94z" />
    <glyph glyph-name="S" unicode="S" horiz-adv-x="565" 
d="M567 199q0 -97 -75 -154.5t-196 -57.5q-126 0 -199.5 56t-73.5 157q0 28 1 43q80 -3 108 -3q67 0 107 3q-1 -10 -1 -42q0 -87 65 -87q26 0 43 16.5t17 36.5q0 63 -145 115q-89 32 -128 67q-60 55 -60 151q0 83 66 142q74 66 202 66q122 0 190 -53t68 -142v-48
q-56 3 -112 3q-55 0 -99 -3q1 18 1 46q0 70 -55 70q-27 0 -41 -18.5t-14 -43.5q0 -27 25 -48q30 -24 107 -52q94 -34 134 -69q65 -56 65 -151z" />
    <glyph glyph-name="T" unicode="T" horiz-adv-x="515" 
d="M509 560q-95 2 -129 2h-3q-13 0 -15.5 -3t-2.5 -17q-1 -56 -1 -126q0 -151 2 -417q-42 2 -103 2q-60 0 -102 -2q2 264 2 417q0 76 -1 127q0 13 -2.5 16t-14.5 3h-5q-15 0 -128 -2q1 15 1 64q0 54 -1 70q125 -3 247 -3q125 0 256 3q-1 -24 -1 -67q0 -41 1 -67z" />
    <glyph glyph-name="U" unicode="U" horiz-adv-x="605" 
d="M564 203q0 -108 -69.5 -162.5t-194.5 -54.5q-259 0 -259 215v6q0 42 1 145.5t1 150.5q0 80 -2 191q45 -2 86 -2q49 0 119 2q-2 -189 -2 -321q0 -58 2 -175q1 -42 10 -56q12 -18 49 -18q34 0 46 18q9 14 9 54q0 26 1 85t1 92q0 231 -2 321q33 -1 97 -1q63 0 107 2
q-2 -143 -2 -185q0 -48 1 -153.5t1 -148.5v-5z" />
    <glyph glyph-name="V" unicode="V" horiz-adv-x="544" 
d="M557 694l-185 -695q-50 2 -101 2q-49 0 -113 -2q-74 316 -171 695q67 -2 107 -2q52 0 102 2q52 -270 68 -365l8 -49q1 -4 5 -4q1 0 3 5l10 47q17 86 75 366q56 -2 109 -2q42 0 83 2z" />
    <glyph glyph-name="W" unicode="W" horiz-adv-x="892" 
d="M901 694q-15 -76 -156 -694q-36 2 -110 2q-50 0 -108 -2q-27 162 -71 358q-2 9 -6 46q-1 8 -5 8t-5 -8q-3 -31 -6 -46q-26 -128 -72 -358q-54 2 -104 2q-67 0 -108 -2l-160 694q61 -2 101 -2q56 0 100 2q25 -176 72 -387q12 -55 13 -55q3 0 5 10q3 15 8 45q38 209 59 387
q39 -2 103 -2q59 0 96 2q21 -127 70 -387q2 -16 7 -45q2 -10 5 -10q5 0 5 10q0 -2 9 45q21 99 61 387q43 -2 105 -2q52 0 92 2z" />
    <glyph glyph-name="X" unicode="X" horiz-adv-x="558" 
d="M571 -1q-70 3 -119 3q-51 0 -98 -2q-19 50 -60 154q-6 19 -14 47q-3 8 -5 8q-1 0 -4 -8q-8 -29 -17 -47q-23 -52 -66 -154q-65 2 -106 2q-47 0 -95 -3q59 115 170 331q5 9 5 20q0 12 -5 22q-53 109 -153 322q69 -2 114 -2q57 0 104 2q17 -46 52 -136q11 -27 14 -40
q1 -5 2 -5q2 1 4 5q6 17 14 40q10 20 58 136q41 -2 88 -2q42 0 105 3q-52 -104 -147 -302q-6 -13 -6 -23q0 -8 7 -25q30 -70 158 -346z" />
    <glyph glyph-name="Y" unicode="Y" horiz-adv-x="553" 
d="M566 694l-178 -400q-15 -33 -15 -56v-76q0 -23 3 -163q-46 2 -102 2q-59 0 -102 -2q2 140 2 163v76q0 21 -14 55l-173 401q46 -2 110 -2q50 0 96 2q24 -60 75 -207l9 -32q3 -9 6 -9t6 9l11 33q23 71 76 206q42 -2 88 -2q44 0 102 2z" />
    <glyph glyph-name="Z" unicode="Z" horiz-adv-x="508" 
d="M492 0q-99 3 -218 3q-161 0 -258 -3q2 38 2 69q0 15 -2 60q10 17 223 402q11 19 15.5 24t4.5 7q0 3 -15 3h-6q-101 0 -214 -2q2 19 2 67q0 46 -2 64q115 -2 217 -2q83 0 247 2q3 -30 3 -64q0 -31 -3 -55q-71 -123 -228 -417q-14 -27 -14 -23q0 -5 6 -5h17q154 0 222 2
q-1 -23 -1 -51q0 -38 2 -81z" />
    <glyph glyph-name="bracketleft" unicode="[" horiz-adv-x="389" 
d="M374 -98q-61 2 -120 2q-78 0 -166 -2q3 154 3 389q0 227 -3 423q63 -3 164 -3q73 0 121 3q-2 -18 -2 -44q0 -24 2 -40q-35 3 -87 3q-18 0 -18 -18q-5 -175 -5 -314q0 -153 5 -301q0 -16 16 -16h22q25 0 68 3q-3 -16 -3 -39q0 -24 3 -46z" />
    <glyph glyph-name="backslash" unicode="\" horiz-adv-x="390" 
d="M424 -26q-25 3 -102 3q-43 0 -80 -3q-104 301 -278 740q49 -2 78 -2q69 0 102 2q118 -338 280 -740z" />
    <glyph glyph-name="bracketright" unicode="]" horiz-adv-x="389" 
d="M300 -98q-63 3 -162 3q-74 0 -122 -3q2 18 2 44q0 24 -2 40q35 -3 86 -3q19 0 19 18q5 175 5 324q0 143 -5 291q0 16 -18 16q-64 0 -89 -3q4 16 4 39q0 24 -4 46q61 -2 120 -2q78 0 166 2q-4 -154 -4 -379q0 -237 4 -433z" />
    <glyph glyph-name="asciicircum" unicode="^" horiz-adv-x="487" 
d="M471 336q-26 3 -63 3q-34 0 -64 -3q-28 76 -85 199q-1 2 -4 18q-3 10 -8 10t-8 -9.5t-6 -18.5q-50 -106 -86 -200q-32 4 -65 4q-34 0 -58 -4q104 202 164 359q26 -2 66 -2q35 0 55 2q57 -147 162 -358z" />
    <glyph glyph-name="underscore" unicode="_" horiz-adv-x="529" 
d="M546 -119h-563v56h563v-56z" />
    <glyph glyph-name="grave" unicode="`" horiz-adv-x="516" 
d="M326 562q-31 3 -64 3q-18 0 -57 -3q-63 75 -135 148q32 2 90 2q60 0 109 -2q15 -36 57 -148z" />
    <glyph glyph-name="a" unicode="a" horiz-adv-x="538" 
d="M511 -1q-12 1 -36 1q-111 0 -163 -7q-2 14 -7 43q-2 11 -5 11q-2 0 -4.5 -4.5t-11.5 -12.5q-40 -40 -110 -40q-74 0 -115 39q-45 41 -45 120q0 93 84 136q59 30 172 38q25 2 28 19q1 8 1 44q0 57 -47 57q-43 0 -43 -71v-4q1 -3 1 -9q-34 2 -88 2q-45 0 -82 -2
q0 6 -1 21.5t-1 16.5q0 69 59.5 106.5t162.5 37.5q102 0 164 -33q70 -37 70 -107q0 -21 -1 -73.5t-1 -73.5q0 -47 2 -137q2 -75 17 -118zM301 213v20q0 7 -6 7q-8 0 -24 -2q-67 -9 -67 -76q0 -65 48 -65q18 0 31 14.5t16 32.5q2 15 2 69z" />
    <glyph glyph-name="b" unicode="b" horiz-adv-x="547" 
d="M526 259q0 -266 -191 -266q-78 0 -119 46q-1 1 -3.5 7.5t-3.5 6.5q-3 0 -4 -2q-1 -15 -7 -54q-54 4 -96 4q-50 0 -65 -1q2 43 3 68q1 82 1 221v63q0 242 -1 363q41 -2 97 -2q63 0 96 1q-3 -84 -3 -203v-13q0 -7 4 -7q2 0 5 6q24 45 99 45q188 0 188 -283zM332 269
q0 99 -15 135q-12 29 -41 29q-44 0 -44 -73v-189q0 -74 44 -74q28 0 41 31q15 40 15 141z" />
    <glyph glyph-name="c" unicode="c" horiz-adv-x="496" 
d="M476 323q-29 1 -57 1q-64 0 -120 -4v36q0 76 -37 76q-56 0 -56 -170q0 -164 51 -164q27 0 38 21.5t11 87.5q54 -4 119 -4q21 0 48 1q1 -11 1 -33q0 -92 -58 -138t-162 -46q-111 0 -173 65q-65 70 -65 205q0 144 68 217q62 68 175 68q104 0 162 -52q55 -49 55 -131v-36z
" />
    <glyph glyph-name="d" unicode="d" horiz-adv-x="548" 
d="M509 -1q-19 1 -66 1q-60 0 -117 -4q-1 15 -4 42q-2 14 -5 14l-5 -8q-33 -51 -115 -51q-175 0 -175 262q0 155 48 224q45 63 136 63q78 0 101 -44q4 -8 7 -8t3 6q0 7 -1 20v20v73q0 61 -2 105q43 -3 100 -3q46 0 92 3q-3 -182 -3 -339q0 -94 2 -297q2 -26 4 -79zM316 178
v193q0 62 -47 62q-28 0 -40 -29q-14 -37 -14 -133q0 -99 12 -139q11 -35 37 -35q52 0 52 81z" />
    <glyph glyph-name="e" unicode="e" horiz-adv-x="524" 
d="M503 303q0 -52 -4 -76q-93 4 -195 4q-48 0 -80 -1q-14 0 -14 -14q0 -65 12.5 -92t42.5 -27q44 0 47 80q69 -7 182 -7q-18 -183 -228 -183q-250 0 -250 267q0 143 65 216t185 73q117 0 179 -69q58 -64 58 -171zM313 333q0 102 -53 102q-22 0 -37 -31t-15 -81q0 -7 7 -7
q51 0 85 2q13 1 13 15z" />
    <glyph glyph-name="f" unicode="f" horiz-adv-x="380" 
d="M372 660q0 -38 -4 -64q-48 4 -50 4q-37 0 -49 -19q-9 -13 -9 -48q0 -5 5 -5q41 0 100 2q-1 -19 -1 -51q0 -21 1 -60q-87 2 -95 2q-10 0 -10 -10l4 -412q-47 3 -89 3q-41 0 -101 -3q3 121 3 217q0 68 -3 198q0 7 -8 7q-38 0 -65 -1q1 15 1 56q0 40 -1 53q19 -1 64 -1
q8 0 8 6v23q0 86 41.5 124.5t135.5 38.5q77 0 121 -15q1 -16 1 -45z" />
    <glyph glyph-name="g" unicode="g" horiz-adv-x="548" 
d="M512 530q-6 -47 -7 -105q-1 -79 -1 -217v-172q0 -222 -238 -222q-219 0 -219 145v13q34 -2 89 -2q58 0 92 2q-1 -9 -1 -10q0 -51 45 -51q43 0 45 65q0 21 1 53q1 12 1 9q-1 4 -3 4t-7 -6t-7 -8q-39 -29 -94 -29q-186 0 -186 277q0 124 49 191.5t140 67.5q64 0 103 -29
q15 -11 22 -25q2 -4 5 -4t3 3q6 23 8 51q64 -4 75 -4q48 0 85 3zM318 263q0 57 -1 86q-4 84 -51 84q-51 0 -51 -165q0 -171 53 -171q20 0 34.5 18.5t14.5 46.5v48q1 36 1 53z" />
    <glyph glyph-name="h" unicode="h" horiz-adv-x="557" 
d="M518 -1q-40 2 -92 2q-64 0 -104 -2q2 113 2 188q0 111 -2 189q-1 19 -12.5 30.5t-27.5 11.5q-52 0 -52 -74v-15l3 -330q-45 2 -105 2q-49 0 -90 -2q3 165 3 347q0 201 -3 368q52 -2 94 -2q53 0 101 2l-4 -243l3 -4q4 0 8 9q11 22 38 39q38 23 93 23q64 0 105.5 -35
t41.5 -94v-5q0 -21 -1 -95t-1 -112q0 -107 2 -198z" />
    <glyph glyph-name="i" unicode="i" horiz-adv-x="271" 
d="M233 572q-33 1 -99 1q-65 0 -96 -1q2 16 2 77q0 49 -2 65q57 -2 102 -2q48 0 93 2q-1 -25 -1 -61q0 -55 1 -81zM233 -1q-44 2 -99 2t-96 -2q3 119 3 246q0 167 -3 285q42 -2 95 -2q36 0 100 2q-3 -176 -3 -323q0 -119 3 -208z" />
    <glyph glyph-name="j" unicode="j" horiz-adv-x="271" 
d="M238 572q-33 1 -99 1q-65 0 -96 -1q1 16 1 67q0 59 -1 75q57 -2 91 -2q58 0 104 2q-2 -25 -2 -71q0 -45 2 -71zM238 -22q0 -163 -203 -163q-40 0 -78 8q2 28 2 60t-2 55q18 -4 39 -4q46 0 47 54q3 77 3 274q0 205 -3 267q32 -1 96 -1q32 0 99 2q-3 -119 -3 -246
q0 -49 1.5 -147.5t1.5 -133.5v-25z" />
    <glyph glyph-name="k" unicode="k" horiz-adv-x="536" 
d="M544 -1q-37 2 -104 2q-70 0 -106 -1q-36 88 -88 196q-3 9 -6 17q-5 14 -7 14q-5 0 -5 -5q0 -2 1 -9v-19v-89q0 -21 3 -106q-43 2 -98 2t-97 -2q3 118 3 289q0 70 -1 207q-2 194 -2 219q54 -2 102 -2q47 0 93 2l-4 -393q1 -6 4 -6q2 0 6 7q5 13 9 20q32 54 97 187
q30 -1 81 -1q55 0 111 2q-33 -54 -136 -220q-8 -11 -8 -21q0 -9 9 -25q50 -92 143 -265z" />
    <glyph glyph-name="l" unicode="l" horiz-adv-x="271" 
d="M233 -1q-42 2 -106 2q-58 0 -89 -2q3 168 3 348q0 198 -3 367q59 -2 98 -2q38 0 97 2q-3 -202 -3 -384q0 -161 3 -331z" />
    <glyph glyph-name="m" unicode="m" horiz-adv-x="850" 
d="M814 -1q-36 2 -95 2q-61 0 -97 -2q0 26 1 91.5t1 97.5q0 88 -2 186q-1 44 -39 44q-61 0 -62 -63q-1 -50 -1 -155q0 -84 2 -201q-53 3 -91 3q-33 0 -103 -3q2 115 2 182q0 85 -2 189q-2 48 -40 48q-60 0 -61 -61t-1 -143q0 -104 2 -215q-49 2 -98 2q-50 0 -95 -2
q2 209 2 247v67q0 175 -11 217q40 -2 83 -2q40 0 107 2q5 -33 5 -56q0 -5 2 -5q3 0 7 8q17 28 62 45q42 16 88 16q93 0 123 -52q9 -17 11 -17q3 0 8 7q8 12 13 17q43 45 138 45q61 0 101 -34t40 -87v-3q0 -24 -1.5 -98.5t-1.5 -115.5q0 -75 3 -201z" />
    <glyph glyph-name="n" unicode="n" horiz-adv-x="565" 
d="M529 -1q-43 2 -98 2q-56 0 -97 -2q2 91 2 194q0 106 -2 183q-2 42 -39 42q-32 0 -50 -23q-10 -12 -11 -38q-2 -49 -2 -121q0 -39 1 -125t1 -112q-43 3 -92 3q-51 0 -104 -3q3 81 3 164q0 301 -13 367q46 -3 104 -3q49 0 94 2q2 -19 2 -52q0 -9 4 -9q1 1 4 6q42 64 153 64
q63 0 101.5 -34.5t38.5 -93.5v-6q0 -23 -1 -100.5t-1 -115.5q0 -76 2 -189z" />
    <glyph glyph-name="o" unicode="o" horiz-adv-x="524" 
d="M509 266q0 -136 -61.5 -207.5t-178.5 -71.5q-253 0 -253 275q0 279 246 279q116 0 180 -67q67 -71 67 -208zM314 264q0 74 -3 98q-11 71 -49 71q-29 0 -41 -38q-12 -41 -12 -142q0 -81 11 -117q12 -39 42 -39q52 0 52 167z" />
    <glyph glyph-name="p" unicode="p" horiz-adv-x="552" 
d="M530 281q0 -147 -44 -217q-47 -72 -148 -72q-59 0 -85 28q-8 11 -18 21q-1 0 -2 -3l3 -216q-64 2 -92 2q-59 0 -101 -2q3 78 3 260q0 150 -2 245q-2 164 -15 203q54 -2 90 -2q41 0 108 2q2 -30 2 -39v-9q0 -5 4 -6q2 0 7 10q9 18 37 32q32 17 73 17q180 0 180 -254z
M337 260q0 78 -3 101q-10 72 -47 72q-51 0 -54 -67q-1 -22 -1 -90v-101q0 -43 8 -58q10 -20 40 -20q33 0 45 36t12 127z" />
    <glyph glyph-name="q" unicode="q" horiz-adv-x="550" 
d="M514 530q-7 -38 -8 -128q-1 -103 -1 -234q0 -66 1.5 -184t1.5 -162q-43 2 -98 2q-54 0 -96 -2q2 43 2 144v29v22q1 12 1 15q0 7 -1 7q-2 0 -8 -9q-25 -38 -100 -38q-186 0 -186 274q0 131 49.5 200t139.5 69q57 0 94 -35q4 -4 15 -23q5 -7 8 -7q2 0 3 11.5t1 31.5v16
q22 -1 89 -1q47 0 93 2zM317 256q0 69 -1 98q-4 79 -50 79q-52 0 -52 -175q0 -87 12.5 -123.5t41.5 -36.5q31 0 40 13q8 10 8 41v49q1 38 1 55z" />
    <glyph glyph-name="r" unicode="r" horiz-adv-x="385" 
d="M373 467q0 -77 -2 -110q-55 12 -78 12q-68 0 -70 -59q-1 -52 -1 -126q0 -122 1 -185q-45 3 -93 3q-50 0 -95 -3q2 123 2 228v11q0 258 -12 292q62 -2 102 -2q47 0 88 2q2 -34 2 -63q0 -11 4 -11t9 13q31 65 123 65q9 0 18 -2q2 -26 2 -65z" />
    <glyph glyph-name="s" unicode="s" horiz-adv-x="486" 
d="M474 153q0 -75 -63.5 -120.5t-165.5 -45.5q-126 0 -186 51q-46 40 -46 101v32q33 -2 89 -2q52 0 88 3q0 -19 1 -29q6 -55 53 -55q43 0 43 44q0 25 -25 41q-12 8 -60 26q-40 14 -80 29q-47 20 -71 50q-31 38 -31 99q0 73 67 121q63 45 156 45q223 0 223 -168v-13
q-37 3 -91 3q-60 0 -82 -1v9q0 70 -47 70q-42 0 -42 -49q0 -21 22 -35q11 -7 54 -24q108 -42 134 -60q60 -43 60 -122z" />
    <glyph glyph-name="t" unicode="t" horiz-adv-x="404" 
d="M391 69q0 -28 -3 -55q-49 -26 -156 -26q-147 0 -147 119q0 53 1.5 136.5t1.5 165.5q0 12 -12 12h-35q-23 -1 -35 -1q1 21 1 23v41q33 23 79 75t69 94q74 2 67 2q23 0 56 -2q-2 -66 -2 -115q0 -10 16 -10q10 0 98 2q-1 -15 -1 -55q0 -41 1 -56q-60 2 -100 2q-14 0 -14 -13
q0 -92 2 -247q1 -40 21 -47q10 -4 31 -4q29 0 59 13q2 -36 2 -54z" />
    <glyph glyph-name="u" unicode="u" horiz-adv-x="565" 
d="M541 -2q-46 3 -104 3q-49 0 -94 -2q-2 19 -2 52q0 9 -4 9q-1 -1 -5 -6q-41 -65 -152 -65q-63 0 -102.5 34.5t-39.5 93.5v6q0 23 1.5 101t1.5 116q0 76 -3 189q43 -2 100 -2q56 0 97 2q-2 -91 -2 -194q0 -106 2 -183q2 -42 39 -42q33 0 50 22q10 12 11 38q2 49 2 122
q0 39 -1 125t-1 112q43 -3 91 -3q50 0 103 3q-2 -81 -2 -165q0 -295 14 -366z" />
    <glyph glyph-name="v" unicode="v" horiz-adv-x="496" 
d="M502 530q-55 -193 -153 -531q-23 2 -102 2q-84 0 -108 -2q-48 179 -145 531q30 -2 92 -2q67 0 108 2q18 -115 48 -300q3 -12 6 -37q1 -6 5 -6t5 6q6 63 23 169q21 124 26 168q57 -2 106 -2q50 0 89 2z" />
    <glyph glyph-name="w" unicode="w" horiz-adv-x="785" 
d="M791 530q-75 -302 -143 -531q-45 2 -96 2q-49 0 -103 -2q-30 182 -46 262q-1 12 -5 33q-1 7 -4 7q-4 0 -5 -7q-3 -12 -7 -34q-1 -1 -51 -261q-38 2 -96 2t-103 -2q-20 75 -138 531q39 -2 100 -2q28 0 90 2q17 -144 45 -286q10 -51 13 -51t14 51q19 96 51 286q36 -2 97 -2
q54 0 90 2q17 -102 47 -286q8 -51 13 -51q4 0 6 9q3 16 8 42q25 100 50 286q43 -2 88 -2q32 0 85 2z" />
    <glyph glyph-name="x" unicode="x" horiz-adv-x="496" 
d="M509 -1q-54 3 -100 3q-44 0 -93 -3l-56 123q-6 13 -10 27q-2 5 -5 5t-5 -4t-13 -28q-20 -43 -57 -123q-65 3 -98 3q-39 0 -85 -3q50 87 144 251q3 6 3 14q0 12 -4 20q-72 119 -135 246q45 -2 99 -2q52 0 99 2l51 -116q2 -7 9 -26q2 -4 5 -5q-2 0 13 30q32 64 54 117
q29 -1 76 -1q44 0 103 1q-47 -85 -133 -233q-5 -8 -5 -16q0 -11 5 -19q56 -98 138 -263z" />
    <glyph glyph-name="y" unicode="y" horiz-adv-x="496" 
d="M502 530l-161 -539q-58 -176 -216 -176q-48 0 -106 9q3 44 3 56q0 27 -3 67q55 -10 82 -10q42 0 42 44q0 22 -13 69l-136 480q44 -3 98 -3q50 0 101 3q19 -113 48 -293q2 -14 6 -41q1 -5 5 -5q2 0 3 4t8 41q38 219 44 294q42 -2 90 -2q66 0 105 2z" />
    <glyph glyph-name="z" unicode="z" horiz-adv-x="478" 
d="M456 -1q-108 3 -234 3q-108 0 -200 -2q1 19 1 45t-1 61q11 13 26 36q59 87 166 250q7 12 10 15l2 4q-3 0 -8 1q-59 -1 -183 -3q2 28 2 54q0 36 -2 66q132 -3 234 -3q79 0 181 2q2 -30 2 -48q0 -26 -4 -52q-60 -99 -180 -287q-14 -22 -14 -19q1 -1 4 -2q10 2 24 2
q61 1 174 2q-3 -25 -3 -57q0 -43 3 -68z" />
    <glyph glyph-name="braceleft" unicode="{" horiz-adv-x="390" 
d="M370 -99q-262 0 -262 121v170q0 70 -88 84q3 16 3 37q0 19 -3 33q88 13 88 82v159q0 67 59.5 97t200.5 30q-3 -23 -3 -36q0 -15 3 -34q-67 -1 -80.5 -8.5t-13.5 -46.5v-155q0 -96 -105 -117q-23 -5 -23 -6q0 -2 23 -7q105 -21 105 -122v-158q0 -41 29 -51q13 -4 67 -4
q-4 -17 -4 -31q0 -12 4 -37z" />
    <glyph glyph-name="bar" unicode="|" horiz-adv-x="220" 
d="M175 -183q-19 3 -59 3q-45 0 -72 -3q3 89 3 498q0 277 -3 399q36 -2 71 -2q34 0 60 2q-2 -122 -2 -398q0 -410 2 -499z" />
    <glyph glyph-name="braceright" unicode="}" horiz-adv-x="390" 
d="M370 269q-89 -13 -89 -82v-159q0 -67 -59 -97t-200 -30q2 15 2 36q0 20 -2 33q66 1 79.5 9t13.5 47v155q0 96 105 117q2 1 16 2q8 0 8 3q0 2 -24 7q-105 21 -105 123v158q0 41 -29 50q-11 4 -66 4q3 11 3 32q0 20 -3 37q261 0 261 -121v-170q0 -70 89 -84q-3 -16 -3 -38
q0 -18 3 -32z" />
    <glyph glyph-name="asciitilde" unicode="~" horiz-adv-x="488" 
d="M472 407q0 -195 -128 -195q-43 0 -107.5 44t-96.5 44q-22 0 -32.5 -15t-14.5 -54q-12 2 -36 2q-23 0 -40 -2q0 203 126 203q43 0 114 -46.5t89 -46.5q25 0 34 22l10 44q26 -5 43 -5q18 0 39 5z" />
    <glyph glyph-name="nonbreakingspace" unicode="&#xa0;" horiz-adv-x="223" 
 />
    <glyph glyph-name="exclamdown" unicode="&#xa1;" horiz-adv-x="334" 
d="M251 368q-17 1 -83 1q-67 0 -84 -1q2 28 2 84t-2 79q27 -2 82 -2q58 0 85 2q-3 -36 -3 -71t3 -92zM283 -173q-60 2 -123 2t-110 -2q0 98 38 497q16 -2 72 -2q57 0 80 2q43 -397 43 -497z" />
    <glyph glyph-name="cent" unicode="&#xa2;" horiz-adv-x="540" 
d="M505 323q-29 1 -57 1q-63 0 -125 -4v36q0 45 -9 62q-8 14 -27 14q-55 0 -55 -170q0 -164 50 -164q28 0 38.5 22t10.5 88q68 -5 131 -5q4 0 18 1h20q3 -19 3 -39q0 -134 -139 -169q-9 -2 -9 -15q0 -20 3 -80q-36 2 -71 2q-32 0 -83 -2q2 40 2 80q0 15 -9 18t-19 6
q-141 42 -141 230q0 247 165 297q4 1 4 11q0 15 -2 83q25 -1 76 -1q50 0 78 1q-3 -70 -3 -75q0 -16 13 -19q137 -36 137 -173v-36z" />
    <glyph glyph-name="sterling" unicode="&#xa3;" horiz-adv-x="556" 
d="M540 178q0 -187 -187 -187q-74 0 -165 35q-26 10 -37 10q-26 0 -26 -37q-30 3 -57 3q-26 0 -63 -3q-3 23 -3 32q0 99 90 125q18 5 21 16.5t3 30.5q0 41 -12 81q-4 16 -14 16q-42 0 -84 -1q1 8 1 35q0 33 -1 46q34 -2 55 -2q10 0 10 5l-4 12q-14 49 -14 84q0 106 72 166
q68 58 180 58q222 0 222 -183q0 -20 -4 -54q-35 2 -80 2q-55 0 -89 -2q1 18 1 40q0 76 -51 76q-48 0 -48 -85q0 -49 14 -102q3 -11 6.5 -13.5t18.5 -2.5q40 0 107 2q-2 -30 -2 -46q0 -18 2 -36q-68 2 -102 2q-5 0 -5 -7q0 -5 1 -16v-16q0 -54 -16 -100q-5 -13 -5 -17
q0 -5 12 -13.5t26 -8.5q47 0 47 70q0 -2 -2 36q49 -2 108 -2q43 0 68 2q6 -33 6 -51z" />
    <glyph glyph-name="currency" unicode="&#xa4;" horiz-adv-x="576" 
d="M572 161q-34 -170 -228 -170q-117 0 -185 61q-65 58 -70 157q-1 12 -9 12h-1q-54 0 -73 -1q18 58 26 103q11 -2 27 -2q17 0 17 9q0 1 -1 7.5t-1 12.5t1 13.5t1 8.5q0 6 -17 6q-22 0 -51 -2q12 37 28 106q9 -1 28 -1q22 0 26 17q25 104 103 159q71 51 168 51
q133 0 211 -55q-10 -36 -37 -124q-79 42 -146 42q-56 0 -84 -27q-23 -22 -23 -57q0 -3 7 -6q110 0 234 2q-12 -38 -31 -107q-84 2 -204 2h-6q-10 0 -12 -5t-2 -28q0 -17 2 -20.5t14 -3.5q115 0 194 2q-11 -35 -29 -105q-84 2 -157 2q-6 0 -8.5 -2t-2.5 -9q0 -38 19 -67.5
t44 -29.5q56 0 63 53q43 -5 115 -5q29 0 50 1z" />
    <glyph glyph-name="yen" unicode="&#xa5;" horiz-adv-x="540" 
d="M551 694l-159 -295q-1 -2 -7 -9t-6 -11q1 -3 5 -3q3 0 11.5 1t11.5 1q11 0 89 3q-2 -13 -2 -45q0 -16 2 -44q-79 3 -122 3q-22 0 -22 -12v-23q0 -14 19 -14q58 0 125 3q-2 -26 -2 -43q0 -16 2 -43q-86 1 -126 1q-14 0 -16 -2t-2 -13q0 -52 2 -150q-38 2 -90 2t-88 -2
q0 23 1.5 74t1.5 76q0 10 -3.5 12t-18.5 2q-37 0 -120 -1q3 28 3 46q0 14 -3 41q91 -3 125 -3q17 0 17 12v22q0 14 -22 14q-42 0 -120 -2q3 22 3 45q0 17 -3 44q55 -1 91 -2q3 0 9.5 -1t8.5 -1q5 0 5 2q0 1 -12 25q-52 106 -150 290q43 -2 94 -2q53 0 98 2l81 -197
q0 -2 7 -24q5 -15 8 -15q4 0 9.5 14t9.5 26q42 94 81 196q40 -2 89 -2q45 0 85 2z" />
    <glyph glyph-name="brokenbar" unicode="&#xa6;" horiz-adv-x="187" 
d="M145 429q-25 2 -48 2q-21 0 -55 -2q4 71 4 144q0 72 -4 121q16 -2 47 -2q33 0 56 2q-5 -55 -5 -123q0 -69 5 -142zM145 -1q-23 2 -55 2q-31 0 -48 -2q4 71 4 144q0 72 -4 121q33 -2 55 -2t48 2q-5 -57 -5 -125q0 -67 5 -140z" />
    <glyph glyph-name="section" unicode="&#xa7;" horiz-adv-x="540" 
d="M538 301q0 -87 -86 -141q-19 -12 -19 -11q0 -3 9 -7t10 -5q59 -41 59 -112q0 -78 -70.5 -125t-171.5 -47q-105 0 -177 37q-88 45 -88 130q0 6 2 23q32 -2 66 -2q31 0 89 2q8 -69 92 -69q73 0 73 42q0 30 -46 51q-3 1 -119 41q-74 26 -109 57q-47 44 -47 116q0 101 79 144
q2 1 14 5q9 2 9 5q0 2 -10.5 8t-13.5 10q-31 33 -31 88q0 77 67 121q64 41 167 41q238 0 241 -184q-32 2 -61 2q-42 0 -87 -3q-11 60 -89 60q-61 0 -61 -40q0 -22 43 -38q34 -9 106 -31q160 -51 160 -168zM377 280q0 35 -46 58q-25 12 -89 33q-9 3 -15 3q-9 0 -18 -7
q-42 -31 -42 -70q0 -46 97 -76l38 -12q7 -2 11 -2q13 0 18 4q46 33 46 69z" />
    <glyph glyph-name="dieresis" unicode="&#xa8;" horiz-adv-x="430" 
d="M370 573q-34 2 -66 2q-31 0 -62 -2q2 38 2 65q0 24 -2 68q21 -2 59 -2q33 0 69 2q-2 -40 -2 -66t2 -67zM190 572q-30 2 -65 2t-64 -2q2 20 2 61q0 36 -2 73q20 -2 64 -2q26 0 65 2q-2 -40 -2 -67q0 -28 2 -67z" />
    <glyph glyph-name="copyright" unicode="&#xa9;" horiz-adv-x="702" 
d="M689 346q0 -167 -105 -265q-95 -89 -232 -89q-138 0 -233 89q-106 98 -106 265t106 265q96 89 233 89t232 -88q105 -99 105 -266zM601 346q0 128 -78 204q-70 68 -171 68q-102 0 -172 -68q-79 -76 -79 -204t79 -204q70 -69 172 -69q101 0 171 69q78 76 78 204zM510 304
q-1 -73 -43 -115.5t-110 -42.5q-169 0 -169 200q0 89 38 141q43 59 131 59q73 0 112 -45q36 -42 36 -113q-26 2 -40 2q-33 0 -57 -2q-2 38 -17.5 60.5t-37.5 22.5q-62 0 -62 -124q0 -58 18.5 -92t47.5 -34q53 0 55 83q19 -2 59 -2q19 0 39 2z" />
    <glyph glyph-name="ordfeminine" unicode="&#xaa;" horiz-adv-x="331" 
d="M318 393q-16 1 -44 1q-44 0 -72 -5q-6 16 -6 29q0 5 -2 5t-4.5 -5t-3.5 -6q-25 -25 -72 -25q-45 0 -73 25.5t-28 67.5q0 56 57 81q37 16 111 21q13 1 13 29q0 33 -31 33q-33 0 -33 -38q1 -6 1 -8q-17 2 -47 2q-29 0 -54 -2v18q0 43 37 66t101 23q139 0 139 -87
q0 -13 -1 -40t-1 -40q0 -17 1 -41q1 -30 1 -31q1 -45 11 -73zM196 494v34q0 6 -4 6q-2 0 -10 -1q-54 -7 -54 -46q0 -31 29 -31q39 0 39 38z" />
    <glyph glyph-name="guillemotleft" unicode="&#xab;" horiz-adv-x="503" 
d="M493 425q-33 -50 -99 -153q-3 -4 -9.5 -9.5t-6.5 -8.5q0 -2 7 -9t10 -11q40 -66 97 -151q-36 2 -67 2q-33 0 -84 -2q-29 53 -111 172q62 86 110 170q34 -2 73 -2q28 0 80 2zM272 83q-57 2 -80 2q-18 0 -72 -2q-17 31 -110 171q76 112 110 171q25 -1 73 -1q53 0 79 1
q-38 -55 -103 -152q-1 -2 -7.5 -10t-6.5 -10q0 -3 8 -12t10 -12q29 -48 99 -146z" />
    <glyph glyph-name="logicalnot" unicode="&#xac;" horiz-adv-x="479" 
d="M469 116q-40 2 -65 2q-26 0 -60 -2q2 27 2 95v52q0 30 -36 31q-72 2 -134 2q-95 0 -168 -3q3 28 3 63q0 36 -3 69q121 -4 245 -4q125 0 216 4q-2 -55 -2 -167q0 -103 2 -142z" />
    <glyph glyph-name="minus" unicode="&#xad;" horiz-adv-x="480" 
d="M461 181q-110 3 -239 3q-123 0 -200 -3q4 40 4 68q0 36 -4 64q115 -4 234 -4q120 0 205 4q-4 -30 -4 -69q0 -40 4 -63z" />
    <glyph glyph-name="minus" unicode="&#x2212;" horiz-adv-x="480" 
d="M461 181q-110 3 -239 3q-123 0 -200 -3q4 40 4 68q0 36 -4 64q115 -4 234 -4q120 0 205 4q-4 -30 -4 -69q0 -40 4 -63z" />
    <glyph glyph-name="registered" unicode="&#xae;" horiz-adv-x="702" 
d="M689 346q0 -167 -105 -265q-95 -89 -232 -89q-138 0 -233 89q-106 98 -106 265t106 265q96 89 233 89t232 -88q105 -99 105 -266zM601 346q0 128 -78 204q-70 68 -171 68q-102 0 -172 -68q-79 -76 -79 -204t79 -204q70 -69 172 -69q101 0 171 69q78 76 78 204zM493 166
q-19 2 -48 2q-26 0 -52 -2q-11 54 -30 95q-17 37 -27 37h-8q-7 0 -7 -8l2 -125q-23 2 -49 2q-25 0 -42 -2q2 131 2 178q0 98 -2 185q22 -2 51 -2q13 0 39.5 1t39.5 1q61 0 95 -33q30 -31 30 -80q0 -65 -49 -94q-2 -1 -9 -3t-7 -5q0 -1 8 -7.5t12 -10.5q25 -31 51 -129z
M391 412q0 49 -43 49h-13q-14 0 -14 -12v-77q0 -11 14 -11h12q44 0 44 51z" />
    <glyph glyph-name="macron" unicode="&#xaf;" horiz-adv-x="516" 
d="M428 630q-52 2 -156 2q-108 0 -184 -2q2 17 2 44t-2 48q53 -2 156 -2q109 0 184 2q-2 -22 -2 -50q0 -27 2 -42z" />
    <glyph glyph-name="macron" unicode="&#x2c9;" horiz-adv-x="516" 
d="M428 630q-52 2 -156 2q-108 0 -184 -2q2 17 2 44t-2 48q53 -2 156 -2q109 0 184 2q-2 -22 -2 -50q0 -27 2 -42z" />
    <glyph glyph-name="degree" unicode="&#xb0;" horiz-adv-x="454" 
d="M396 528q0 -67 -43 -114q-47 -52 -127 -52t-126 51q-43 47 -43 113t43 112q47 51 128 51q80 0 126 -50q42 -45 42 -111zM301 527q0 33 -18 56q-21 25 -56 25t-55 -24t-20 -57t20 -58t55 -25t56 26q18 24 18 57z" />
    <glyph glyph-name="plusminus" unicode="&#xb1;" horiz-adv-x="480" 
d="M471 269q-117 3 -156 3q-16 0 -16 -15q0 -47 2 -103q-26 2 -64 2t-58 -2q4 69 4 103q0 15 -15 15q-79 0 -159 -3q3 35 3 69q0 32 -3 61q81 -3 156 -3q17 0 17 19q0 22 -3 101q27 -2 66 -2q36 0 56 2q-2 -51 -2 -101q0 -19 18 -19q38 0 154 3q-3 -27 -3 -68t3 -62zM464 0
q-118 4 -240 4q-121 0 -209 -4q2 22 2 59q0 36 -2 65q103 -4 202 -4q95 0 247 4q-4 -24 -4 -55q0 -32 4 -69z" />
    <glyph glyph-name="twosuperior" unicode="&#xb2;" horiz-adv-x="329" 
d="M310 290q-85 3 -160 3q-88 0 -142 -3v7v23q-1 15 -1 22q0 16 1 19q93 81 112 100q74 75 74 117q0 47 -38 47q-40 0 -40 -52q0 -8 2 -26q-29 2 -52 2q-15 0 -53 -2q0 6 -1 13.5t-1 11.5q0 128 150 128q67 0 106 -29q41 -32 41 -90q0 -54 -48 -108q-18 -19 -97 -83
q-3 -2 -12 -7.5t-9 -7.5q0 -5 9 -5q2 0 15 1.5t18 1.5h49q39 0 77 2q-3 -25 -3 -46t3 -39z" />
    <glyph glyph-name="threesuperior" unicode="&#xb3;" horiz-adv-x="329" 
d="M322 404q0 -62 -50 -93q-45 -28 -120 -28q-145 0 -145 106v23q41 -3 57 -3q18 0 49 3v-3v-5q0 -50 43 -50q47 0 47 46q0 37 -17 50q-13 10 -47 10h-28q-23 -1 -29 -1q3 22 3 34t-3 32h29q23 -1 28 -1q58 0 58 51q0 52 -39 52q-43 0 -43 -43l1 -12q-30 3 -55 3t-49 -3
q-2 21 -2 20q0 56 46 84q39 24 105 24q69 0 109 -30.5t40 -84.5t-51 -81q-4 -2 -14 -5q-6 -1 -6 -4t7 -3q11 -2 14 -3q62 -21 62 -85z" />
    <glyph glyph-name="acute" unicode="&#xb4;" horiz-adv-x="516" 
d="M449 709q-85 -85 -136 -147q-27 2 -61 2q-35 0 -64 -2q38 95 62 147q67 2 108 2q45 0 91 -2z" />
    <glyph glyph-name="mu" unicode="&#xb5;" 
d="M545 -1q-42 2 -88 2q-47 0 -86 -2l3 35l-6 2q-7 -15 -28 -25t-42 -10q-34 0 -53 20l-4 -3q1 -72 3 -172q-45 2 -96 2t-90 -2q3 174 3 325q0 192 -3 355q39 -2 92 -2t95 2q-4 -93 -4 -223q0 -52 4 -105q2 -39 13.5 -54.5t40.5 -15.5q57 0 60 87q1 34 1 120q0 134 -1 191
q43 -2 84 -2q40 0 102 2q-3 -88 -3 -296v-32q0 -128 3 -199z" />
    <glyph glyph-name="mu" unicode="&#x3bc;" 
d="M545 -1q-42 2 -88 2q-47 0 -86 -2l3 35l-6 2q-7 -15 -28 -25t-42 -10q-34 0 -53 20l-4 -3q1 -72 3 -172q-45 2 -96 2t-90 -2q3 174 3 325q0 192 -3 355q39 -2 92 -2t95 2q-4 -93 -4 -223q0 -52 4 -105q2 -39 13.5 -54.5t40.5 -15.5q57 0 60 87q1 34 1 120q0 134 -1 191
q43 -2 84 -2q40 0 102 2q-3 -88 -3 -296v-32q0 -128 3 -199z" />
    <glyph glyph-name="paragraph" unicode="&#xb6;" horiz-adv-x="540" 
d="M508 -131q-32 2 -57 2q-26 0 -49 -2q2 177 2 329q0 138 -2 400q0 17 -12 17h-50q-16 0 -16 -16q-2 -111 -2 -261q0 20 2 -469q-34 2 -54 2q-21 0 -52 -2q0 56 1.5 163.5t1.5 161.5q0 34 -1 113q-1 17 -20 19q-88 8 -138 55.5t-50 126.5q0 186 257 186h73q52 -1 78 -1
q68 0 88 1v-825z" />
    <glyph glyph-name="periodcentered" unicode="&#xb7;" horiz-adv-x="239" 
d="M202 185q-26 2 -81 2q-57 0 -83 -2q2 36 2 71t-2 92q16 -1 81 -1q67 0 83 1q-2 -28 -2 -84t2 -79z" />
    <glyph glyph-name="periodcentered" unicode="&#x2219;" horiz-adv-x="239" 
d="M202 185q-26 2 -81 2q-57 0 -83 -2q2 36 2 71t-2 92q16 -1 81 -1q67 0 83 1q-2 -28 -2 -84t2 -79z" />
    <glyph glyph-name="cedilla" unicode="&#xb8;" horiz-adv-x="516" 
d="M382 -102q0 -45 -44 -68q-39 -21 -98 -21q-38 0 -104 17q14 26 19 55q50 -13 73 -13q19 0 33.5 9t14.5 20q0 24 -35 24q-17 0 -36 -7q-13 11 -30 16l55 81h78l-26 -38q-11 -7 -11 -10t7 -3q2 0 10.5 4.5t12.5 4.5q32 0 56.5 -19t24.5 -52z" />
    <glyph glyph-name="onesuperior" unicode="&#xb9;" horiz-adv-x="329" 
d="M241 287q-18 2 -56 2q-41 0 -65 -2q4 75 4 158q0 58 -3 119q0 14 -18 14q-22 0 -57 -3q2 18 2 34q0 15 -2 29q33 3 67.5 21t42.5 35q12 -1 42 -1q32 0 43 1q-3 -77 -3 -192q0 -114 3 -215z" />
    <glyph glyph-name="ordmasculine" unicode="&#xba;" horiz-adv-x="331" 
d="M317 546q0 -160 -147 -160q-156 0 -156 158q0 74 37.5 117.5t114.5 43.5q74 0 112.5 -42t38.5 -117zM202 545q0 54 -8 73t-28 19q-19 0 -27 -17q-9 -22 -9 -82q0 -85 36 -85t36 92z" />
    <glyph glyph-name="guillemotright" unicode="&#xbb;" horiz-adv-x="503" 
d="M493 254q-70 -102 -109 -171q-50 2 -73 2q-27 0 -79 -2q38 55 103 152q1 2 7.5 10t6.5 10q0 3 -8 12t-10 12q-29 48 -99 146q28 -1 80 -1q45 0 72 1q23 -41 109 -171zM272 253q-61 -86 -109 -170q-34 2 -72 2q-29 0 -81 -2q34 50 100 153q2 3 8.5 9.5t6.5 8.5t-7 9t-9 11
q-28 47 -98 151q36 -2 68 -2t83 2q28 -53 110 -172z" />
    <glyph glyph-name="onequarter" unicode="&#xbc;" horiz-adv-x="736" 
d="M712 89q-34 1 -44 1q-13 0 -13 -10q0 -5 3 -80q-18 2 -52 2q-35 0 -56 -2q3 52 3 80q0 10 -12 10h-14q-102 0 -145 -1q2 15 2 24q0 6 -2 30q111 179 150 262q20 -2 62 -2q37 0 64 2q-3 -91 -3 -237q0 -10 11 -10q5 0 46 2q-2 -13 -2 -38q0 -22 2 -33zM604 698
q-143 -231 -400 -709q-17 4 -46 4q-28 0 -57 -4q164 271 396 708q21 -3 44 -3q31 0 63 4zM224 287q-18 2 -55 2q-42 0 -66 -2q4 75 4 158v24q0 64 -1 95q-1 14 -20 14q-22 0 -57 -3q2 18 2 34q0 15 -2 29q33 3 67.5 21t42.5 35q12 -1 43 -1t42 1q-3 -77 -3 -192
q0 -114 3 -215zM556 283q0 6 -4 6q-3 0 -5.5 -8t-4.5 -10q-21 -37 -60 -102q-3 -6 -3 -7q0 -4 9 -4h54q11 0 11 11v88q0 3 1.5 13t1.5 13z" />
    <glyph glyph-name="onehalf" unicode="&#xbd;" horiz-adv-x="736" 
d="M706 0q-85 3 -162 3q-88 0 -142 -3v8q0 7 -1 22v22q0 16 1 19q93 82 113 101q75 76 75 118q0 47 -38 47q-41 0 -41 -53q0 -9 1 -27q-28 2 -51 2q-14 0 -52 -2q0 6 -1 14t-1 12q0 127 150 127q67 0 106 -28q41 -31 41 -89q0 -55 -48 -108q-19 -21 -97 -84q-21 -18 -21 -16
q0 -4 8 -4q1 0 14.5 1.5t17.5 1.5h24q17 -1 27 -1q39 0 77 2q-3 -25 -3 -45q0 -22 3 -40zM582 698q-143 -231 -400 -709q-16 4 -44 4q-29 0 -59 -4q154 255 395 708q21 -3 46 -3q31 0 62 4zM212 287q-18 2 -55 2q-40 0 -65 -2q4 75 4 158v24q0 64 -1 95q-1 14 -18 14
q-22 0 -58 -3q3 18 3 34q0 15 -3 29q34 3 68.5 21t42.5 35q11 -1 42 -1q29 0 40 1q-2 -51 -2 -192q0 -148 2 -215z" />
    <glyph glyph-name="threequarters" unicode="&#xbe;" horiz-adv-x="736" 
d="M734 89q-33 1 -43 1q-13 0 -13 -10q0 -5 2 -80q-18 2 -51 2q-35 0 -57 -2q4 52 4 80q0 10 -13 10h-15q-100 0 -144 -1q3 15 3 24q0 6 -3 30q112 179 150 262q20 -2 63 -2q36 0 63 2q-2 -91 -2 -237q0 -10 11 -10q5 0 45 2q-1 -13 -1 -38q0 -22 1 -33zM648 698
q-133 -216 -398 -709q-17 4 -47 4q-29 0 -59 -4q174 288 397 708q21 -3 43 -3q32 0 64 4zM322 404q0 -62 -50 -93q-45 -28 -120 -28q-145 0 -145 106v23q41 -3 57 -3q18 0 49 3v-8q0 -50 43 -50q47 0 47 46q0 37 -17 50q-13 10 -47 10h-28q-23 -1 -29 -1q3 22 3 34t-3 32h29
q23 -1 28 -1q58 0 58 51q0 52 -39 52q-43 0 -43 -43l1 -12q-30 3 -55 3t-49 -3q-2 21 -2 20q0 56 46 84q39 24 105 24q69 0 109 -30.5t40 -84.5t-51 -81q-4 -2 -14 -5q-6 -1 -6 -4t7 -3q11 -2 14 -3q62 -21 62 -85zM578 283q0 6 -3 6t-6 -7q-4 -10 -5 -11q-21 -37 -59 -102
q-3 -6 -3 -7q0 -4 9 -4h54q11 0 11 11v88q0 3 1 13t1 13z" />
    <glyph glyph-name="questiondown" unicode="&#xbf;" horiz-adv-x="528" 
d="M363 369q-25 1 -81 1q-57 0 -84 -1q2 28 2 84t-2 79q27 -2 81 -2q58 0 84 2q-2 -36 -2 -71t2 -92zM506 10q0 -85 -63.5 -134t-173.5 -49q-106 0 -173 44q-77 51 -77 146q0 82 46 135q15 18 85 68q46 34 46 68q0 15 -2 37q39 -3 84 -3q38 0 89 3q3 -36 3 -60
q0 -64 -35 -106q-6 -7 -67 -58q-42 -35 -42 -82q0 -70 40 -70q47 0 47 68v20q-1 16 -1 17q52 -2 108 -2q52 0 85 2q0 -1 1 -19v-25z" />
    <glyph glyph-name="Agrave" unicode="&#xc0;" horiz-adv-x="599" 
d="M386 732q-31 3 -64 3q-18 0 -57 -3q-63 75 -135 148q32 2 90 2q60 0 109 -2q15 -36 57 -148zM608 -1q-33 2 -110 2q-61 0 -92 -2q-9 43 -24 120q-2 11 -21 12q-15 1 -68 1q-50 0 -64.5 -1t-16.5 -10l-26 -122q-29 2 -91 2q-76 0 -105 -2q119 429 183 695q48 -2 131 -2
q28 0 64 1q46 1 65 1q76 -330 175 -695zM348 258q0 2 -1 8q-12 59 -37 181q-1 2 -5 27q-4 21 -7 21t-6 -20q-3 -26 -4 -28q-13 -53 -43 -184l-1 -5q0 -7 10 -7q8 0 22 1h23h18q9 -1 19 -1q12 0 12 7z" />
    <glyph glyph-name="Aacute" unicode="&#xc1;" horiz-adv-x="599" 
d="M485 879q-85 -85 -136 -147q-27 2 -61 2q-35 0 -64 -2q38 95 62 147q67 2 108 2q45 0 91 -2zM608 -1q-33 2 -110 2q-61 0 -92 -2q-9 43 -24 120q-2 11 -21 12q-15 1 -68 1q-50 0 -64.5 -1t-16.5 -10l-26 -122q-29 2 -91 2q-76 0 -105 -2q119 429 183 695q48 -2 131 -2
q28 0 64 1q46 1 65 1q76 -330 175 -695zM348 258q0 2 -1 8q-12 59 -37 181q-1 2 -5 27q-4 21 -7 21t-6 -20q-3 -26 -4 -28q-13 -53 -43 -184l-1 -5q0 -7 10 -7q8 0 22 1h23h18q9 -1 19 -1q12 0 12 7z" />
    <glyph glyph-name="Acircumflex" unicode="&#xc2;" horiz-adv-x="599" 
d="M492 732q-24 1 -64 1q-38 0 -62 -1q-15 17 -48 51q-2 2 -10 12t-10 10q-3 0 -10 -9q-9 -12 -11 -13q-15 -18 -45 -51q-27 2 -63 2t-63 -2q40 58 102 147q56 -2 91 -2q44 0 89 2q34 -49 104 -147zM608 -1q-33 2 -110 2q-61 0 -92 -2q-9 43 -24 120q-2 11 -21 12
q-15 1 -68 1q-50 0 -64.5 -1t-16.5 -10l-26 -122q-29 2 -91 2q-76 0 -105 -2q119 429 183 695q48 -2 131 -2q28 0 64 1q46 1 65 1q76 -330 175 -695zM348 258q0 2 -1 8q-12 59 -37 181q-1 2 -5 27q-4 21 -7 21t-6 -20q-3 -26 -4 -28q-13 -53 -43 -184l-1 -5q0 -7 10 -7
q8 0 22 1h23h18q9 -1 19 -1q12 0 12 7z" />
    <glyph glyph-name="Atilde" unicode="&#xc3;" horiz-adv-x="599" 
d="M472 854q0 -55 -27 -89.5t-73 -34.5q-25 0 -59 12q-28 10 -56 21q-19 6 -30 6q-27 0 -29 -39q-23 2 -41 2q-19 0 -37 -2v19q0 50 30 84t75 34q33 0 77.5 -19.5t59.5 -19.5q26 0 31 41q27 -2 39 -2q11 0 40 2v-15zM608 -1q-33 2 -110 2q-61 0 -92 -2q-9 43 -24 120
q-2 11 -21 12q-15 1 -68 1q-50 0 -64.5 -1t-16.5 -10l-26 -122q-29 2 -91 2q-76 0 -105 -2q119 429 183 695q48 -2 131 -2q28 0 64 1q46 1 65 1q76 -330 175 -695zM348 258q0 2 -1 8q-12 59 -37 181q-1 2 -5 27q-4 21 -7 21t-6 -20q-3 -26 -4 -28q-13 -53 -43 -184l-1 -5
q0 -7 10 -7q8 0 22 1h23h18q9 -1 19 -1q12 0 12 7z" />
    <glyph glyph-name="Adieresis" unicode="&#xc4;" horiz-adv-x="599" 
d="M458 734q-34 2 -67 2q-32 0 -63 -2q2 38 2 65q0 24 -2 68q21 -2 60 -2q34 0 70 2q-2 -40 -2 -66t2 -67zM275 733q-31 2 -67 2t-65 -2q2 20 2 61q0 36 -2 73q20 -2 65 -2q27 0 67 2q-2 -40 -2 -67q0 -28 2 -67zM608 -1q-33 2 -110 2q-61 0 -92 -2q-9 43 -24 120
q-2 11 -21 12q-15 1 -68 1q-50 0 -64.5 -1t-16.5 -10l-26 -122q-29 2 -91 2q-76 0 -105 -2q119 429 183 695q48 -2 131 -2q28 0 64 1q46 1 65 1q76 -330 175 -695zM348 258q0 2 -1 8q-12 59 -37 181q-1 2 -5 27q-4 21 -7 21t-6 -20q-3 -26 -4 -28q-13 -53 -43 -184l-1 -5
q0 -7 10 -7q8 0 22 1h23h18q9 -1 19 -1q12 0 12 7z" />
    <glyph glyph-name="Aring" unicode="&#xc5;" horiz-adv-x="599" 
d="M399 811q0 -41 -28 -69.5t-68 -28.5t-67.5 29t-27.5 70t27.5 69.5t67.5 28.5t68 -29t28 -70zM608 -1q-33 2 -110 2q-61 0 -92 -2q-9 43 -24 120q-2 11 -21 12q-15 1 -68 1q-50 0 -64.5 -1t-16.5 -10l-26 -122q-29 2 -91 2q-76 0 -105 -2q119 429 183 695q48 -2 131 -2
q28 0 64 1q46 1 65 1q76 -330 175 -695zM345 811q0 19 -12 32.5t-29 13.5q-18 0 -29.5 -13.5t-11.5 -32.5t12 -32.5t29 -13.5t29 13.5t12 32.5zM348 258q0 2 -1 8q-12 59 -37 181q-1 2 -5 27q-4 21 -7 21t-6 -20q-3 -26 -4 -28q-13 -53 -43 -184l-1 -5q0 -7 10 -7q8 0 22 1
h23h18q9 -1 19 -1q12 0 12 7z" />
    <glyph glyph-name="AE" unicode="&#xc6;" horiz-adv-x="818" 
d="M798 0q-67 2 -184 2q-57 0 -188 -2q-1 41 -6 116q-2 12 -17 12t-38 1h-34q-9 0 -74 -2q-12 0 -17 -10q-8 -17 -44 -118q-42 2 -104 2q-50 0 -91 -2q189 490 263 695q183 -3 278 -3q109 0 243 3q-1 -24 -1 -67t1 -68q-70 2 -193 2q-12 0 -12 -18q0 -8 6 -120q0 -13 12 -13
h27q49 0 150 2q-2 -30 -2 -71q0 -39 2 -65q-48 2 -113 2h-23q-16 -1 -25.5 -1t-9.5 -9q0 -57 9 -120q2 -11 12 -11q44 0 173 2q-2 -28 -2 -77q0 -44 2 -62zM407 258q0 65 -17 234q-1 12 -1 19q0 36 -5 36q-3 0 -12 -29q-3 -8 -10 -27q-44 -146 -72 -232v-6q0 -6 11 -6
q6 0 18 1h21h30q20 -1 22 -1q15 0 15 11z" />
    <glyph glyph-name="Ccedilla" unicode="&#xc7;" horiz-adv-x="575" 
d="M572 272q0 -61 -6 -103q-22 -157 -199 -180q-44 -6 -44 -26q0 -3 6 -3q1 0 9.5 4.5t14.5 4.5q32 0 54 -18q26 -20 26 -53q0 -45 -44 -68q-38 -21 -97 -21q-38 0 -105 17q15 26 19 55q51 -13 74 -13q18 0 33 9t15 20q0 24 -35 24q-17 0 -36 -7q-17 10 -30 16l26 37
q1 2 9 8.5t8 10.5q0 1 -24 5q-220 36 -220 348q0 191 68.5 280t217.5 89q112 0 178 -50q63 -49 75 -136q6 -42 6 -96q-45 3 -113 3q-43 0 -85 -2v41q0 113 -57 113q-42 0 -56 -41q-18 -51 -18 -206q0 -130 19 -177q15 -41 55 -41q29 0 42 22t18 70q0 5 2 69q66 -6 137 -6
q28 0 57 1z" />
    <glyph glyph-name="Egrave" unicode="&#xc8;" horiz-adv-x="451" 
d="M314 732q-31 3 -64 3q-18 0 -57 -3q-63 75 -135 148q32 2 90 2q60 0 109 -2q15 -36 57 -148zM445 0q-74 2 -210 2q-124 0 -194 -2q0 40 1 154t1 178q0 139 -2 362q108 -2 188 -2q50 0 203 2q-1 -18 -1 -68q0 -48 1 -66l-180 2q-13 0 -13 -6q-3 -27 -3 -111v-20
q0 -14 17 -14h7q59 0 162 2q-1 -24 -1 -66q0 -43 1 -67q-112 2 -162 2h-9q-15 0 -15 -14v-16q0 -78 2 -104q0 -11 14 -11q42 0 193 2q-2 -45 -2 -70q0 -37 2 -69z" />
    <glyph glyph-name="Eacute" unicode="&#xc9;" horiz-adv-x="451" 
d="M413 879q-85 -85 -136 -147q-27 2 -61 2q-35 0 -64 -2q38 95 62 147q67 2 108 2q45 0 91 -2zM445 0q-74 2 -210 2q-124 0 -194 -2q0 40 1 154t1 178q0 139 -2 362q108 -2 188 -2q50 0 203 2q-1 -18 -1 -68q0 -48 1 -66l-180 2q-13 0 -13 -6q-3 -27 -3 -111v-20
q0 -14 17 -14h7q59 0 162 2q-1 -24 -1 -66q0 -43 1 -67q-112 2 -162 2h-9q-15 0 -15 -14v-16q0 -78 2 -104q0 -11 14 -11q42 0 193 2q-2 -45 -2 -70q0 -37 2 -69z" />
    <glyph glyph-name="Ecircumflex" unicode="&#xca;" horiz-adv-x="451" 
d="M420 732q-24 1 -64 1q-38 0 -62 -1q-15 17 -48 51q-2 2 -10 12t-10 10q-3 0 -10 -9q-9 -12 -11 -13q-15 -18 -45 -51q-27 2 -63 2t-63 -2q40 58 102 147q56 -2 91 -2q44 0 89 2q34 -49 104 -147zM445 0q-74 2 -210 2q-124 0 -194 -2q0 40 1 154t1 178q0 139 -2 362
q108 -2 188 -2q50 0 203 2q-1 -18 -1 -68q0 -48 1 -66l-180 2q-13 0 -13 -6q-3 -27 -3 -111v-20q0 -14 17 -14h7q59 0 162 2q-1 -24 -1 -66q0 -43 1 -67q-112 2 -162 2h-9q-15 0 -15 -14v-16q0 -78 2 -104q0 -11 14 -11q42 0 193 2q-2 -45 -2 -70q0 -37 2 -69z" />
    <glyph glyph-name="Edieresis" unicode="&#xcb;" horiz-adv-x="451" 
d="M386 733q-34 2 -67 2q-32 0 -63 -2q2 38 2 65q0 24 -2 68q21 -2 60 -2q34 0 70 2q-2 -40 -2 -66t2 -67zM203 732q-31 2 -67 2t-65 -2q2 20 2 61q0 36 -2 73q20 -2 65 -2q27 0 67 2q-2 -40 -2 -67q0 -28 2 -67zM445 0q-74 2 -210 2q-124 0 -194 -2q0 40 1 154t1 178
q0 139 -2 362q108 -2 188 -2q50 0 203 2q-1 -18 -1 -68q0 -48 1 -66l-180 2q-13 0 -13 -6q-3 -27 -3 -111v-20q0 -14 17 -14h7q59 0 162 2q-1 -24 -1 -66q0 -43 1 -67q-112 2 -162 2h-9q-15 0 -15 -14v-16q0 -78 2 -104q0 -11 14 -11q42 0 193 2q-2 -45 -2 -70q0 -37 2 -69z
" />
    <glyph glyph-name="Igrave" unicode="&#xcc;" horiz-adv-x="286" 
d="M218 732q-31 3 -64 3q-18 0 -57 -3q-63 75 -135 148q32 2 90 2q60 0 109 -2q15 -36 57 -148zM245 -1q-33 2 -101 2q-61 0 -103 -2q2 369 2 355q0 162 -2 340q74 -2 103 -2q35 0 101 2q-3 -147 -3 -339q0 -191 3 -356z" />
    <glyph glyph-name="Iacute" unicode="&#xcd;" horiz-adv-x="286" 
d="M329 879q-85 -85 -136 -147q-27 2 -61 2q-35 0 -64 -2q38 95 62 147q67 2 108 2q45 0 91 -2zM245 -1q-33 2 -101 2q-61 0 -103 -2q2 369 2 355q0 162 -2 340q74 -2 103 -2q35 0 101 2q-3 -147 -3 -339q0 -191 3 -356z" />
    <glyph glyph-name="Icircumflex" unicode="&#xce;" horiz-adv-x="286" 
d="M340 732q-25 1 -64 1t-62 -1l-48 51q-2 2 -10 12t-11 10q-2 0 -9 -9q-10 -12 -11 -13q-16 -18 -46 -51q-26 2 -62 2t-64 -2q40 58 102 147q57 -2 91 -2q45 0 89 2zM245 -1q-33 2 -101 2q-61 0 -103 -2q2 369 2 355q0 162 -2 340q74 -2 103 -2q35 0 101 2q-3 -147 -3 -339
q0 -191 3 -356z" />
    <glyph glyph-name="Idieresis" unicode="&#xcf;" horiz-adv-x="286" 
d="M301 733q-35 2 -67 2t-64 -2q2 38 2 65q0 24 -2 68q22 -2 61 -2q34 0 70 2q-2 -40 -2 -66t2 -67zM117 732q-30 2 -66 2t-65 -2q2 20 2 61q0 36 -2 73q20 -2 65 -2q27 0 66 2q-2 -40 -2 -67q0 -28 2 -67zM245 -1q-33 2 -101 2q-61 0 -103 -2q2 369 2 355q0 162 -2 340
q74 -2 103 -2q35 0 101 2q-3 -147 -3 -339q0 -191 3 -356z" />
    <glyph glyph-name="Eth" unicode="&#xd0;" horiz-adv-x="596" 
d="M592 337q0 -148 -67 -237q-75 -100 -217 -100q-35 0 -69 2t-55 2q-82 0 -143 -4q3 164 3 295q-2 12 -13 12q-12 0 -39 -1q3 16 3 39t-3 44q35 -1 38 -1q14 0 14 12q0 121 -3 294q42 -2 98 -2q32 0 79 1t78 1q161 0 236 -113q60 -91 60 -244zM371 334q0 236 -94 236h-9
q-23 0 -23 -15q-3 -109 -3 -158q0 -10 14 -10q10 0 67 2q-3 -14 -3 -42q0 -29 3 -41q-42 2 -66 2q-15 0 -15 -12q0 -77 3 -159q0 -12 25 -12h4q57 0 82 82q15 52 15 127z" />
    <glyph glyph-name="Ntilde" unicode="&#xd1;" horiz-adv-x="662" 
d="M539 854q0 -55 -32 -89.5t-86 -34.5q-29 0 -69 12q-33 10 -66 21q-23 6 -35 6q-32 0 -34 -39q-27 2 -49 2t-43 -2v19q0 50 35 84t88 34q40 0 90 -19q54 -20 71 -20q32 0 37 41q32 -2 46 -2q13 0 47 2v-15zM622 694q-3 -241 -3 -352q0 -219 1 -343q-38 2 -112 2
q-87 0 -114 -2q-6 14 -158 389q-4 18 -12 43q-3 12 -6 12q-5 0 -4 -9l1 -55l2 -380q-29 2 -89 2q-50 0 -87 -2q2 183 2 323l-1 372q54 -2 114 -2q62 0 114 2q71 -196 151 -383q8 -24 17 -50q1 -3 7 -7q4 0 4 9q0 5 -1 17v18v20l-3 376q39 -2 93 -2q32 0 84 2z" />
    <glyph glyph-name="Ograve" unicode="&#xd2;" 
d="M354 732q-31 3 -65 3q-17 0 -56 -3q-64 75 -136 148q33 2 90 2q61 0 109 -2q15 -36 58 -148zM593 351q0 -191 -69.5 -277.5t-215.5 -86.5q-282 0 -282 360q0 181 64 268q67 93 217 93q148 0 217 -86t69 -271zM377 342q0 152 -17 201q-13 38 -49 38q-41 0 -54 -44
q-15 -48 -15 -200q0 -135 17 -182q14 -40 51 -40q39 0 52 38q15 45 15 189z" />
    <glyph glyph-name="Oacute" unicode="&#xd3;" 
d="M497 879q-85 -85 -136 -147q-27 2 -61 2q-35 0 -64 -2q38 95 62 147q67 2 108 2q45 0 91 -2zM593 351q0 -191 -69.5 -277.5t-215.5 -86.5q-282 0 -282 360q0 181 64 268q67 93 217 93q148 0 217 -86t69 -271zM377 342q0 152 -17 201q-13 38 -49 38q-41 0 -54 -44
q-15 -48 -15 -200q0 -135 17 -182q14 -40 51 -40q39 0 52 38q15 45 15 189z" />
    <glyph glyph-name="Ocircumflex" unicode="&#xd4;" 
d="M491 732q-24 1 -64 1q-39 0 -62 -1q-15 17 -48 51q-2 2 -10 12t-11 10q-2 0 -9 -9q-10 -12 -11 -13q-16 -18 -46 -51q-26 2 -62 2t-64 -2q41 58 102 147q57 -2 92 -2q44 0 88 2zM593 351q0 -191 -69.5 -277.5t-215.5 -86.5q-282 0 -282 360q0 181 64 268q67 93 217 93
q148 0 217 -86t69 -271zM377 342q0 152 -17 201q-13 38 -49 38q-41 0 -54 -44q-15 -48 -15 -200q0 -135 17 -182q14 -40 51 -40q39 0 52 38q15 45 15 189z" />
    <glyph glyph-name="Otilde" unicode="&#xd5;" 
d="M478 854q0 -55 -27 -89.5t-73 -34.5q-25 0 -59 12q-28 10 -56 21q-19 6 -30 6q-27 0 -29 -39q-23 2 -41 2q-19 0 -37 -2v19q0 50 30 84t75 34q33 0 77.5 -19.5t59.5 -19.5q26 0 31 41q27 -2 39 -2q11 0 40 2v-15zM593 351q0 -191 -69.5 -277.5t-215.5 -86.5
q-282 0 -282 360q0 181 64 268q67 93 217 93q148 0 217 -86t69 -271zM377 342q0 152 -17 201q-13 38 -49 38q-41 0 -54 -44q-15 -48 -15 -200q0 -135 17 -182q14 -40 51 -40q39 0 52 38q15 45 15 189z" />
    <glyph glyph-name="Odieresis" unicode="&#xd6;" 
d="M468 733q-35 2 -68 2q-31 0 -63 -2q2 38 2 65q0 24 -2 68q22 -2 60 -2q34 0 71 2q-2 -40 -2 -66t2 -67zM284 732q-30 2 -66 2t-65 -2q2 20 2 61q0 36 -2 73q20 -2 65 -2q27 0 66 2q-2 -40 -2 -67q0 -28 2 -67zM593 351q0 -191 -69.5 -277.5t-215.5 -86.5q-282 0 -282 360
q0 181 65 268q68 93 219 93q147 0 215 -86t68 -271zM377 342q0 152 -17 201q-13 38 -49 38q-41 0 -54 -44q-15 -48 -15 -200q0 -135 17 -182q14 -40 51 -40q39 0 52 38q15 45 15 189z" />
    <glyph glyph-name="multiply" unicode="&#xd7;" horiz-adv-x="480" 
d="M462 100q-52 -40 -85 -90q-44 51 -121 133q-1 1 -7 11q-5 6 -8 6l-16 -17q-61 -66 -120 -133q-46 57 -85 91q61 60 126 128l15 16q0 4 -6 9q-10 7 -11 8q-85 89 -126 130q46 40 84 90q47 -55 121 -135q2 -2 9 -12q4 -6 7 -6q5 0 9 7l7 11q85 93 120 135q41 -56 86 -92
q-34 -35 -126 -131q-1 -1 -8 -6.5t-7 -8.5l16 -17q73 -76 126 -127z" />
    <glyph glyph-name="Oslash" unicode="&#xd8;" 
d="M593 664q-12 -14 -47 -54q-10 -11 -10 -25q0 -6 3 -9q44 -58 44 -234q0 -189 -73 -274q-69 -81 -216 -81q-112 0 -185 64q-5 5 -11 5q-5 0 -12 -8q-17 -21 -42 -53q-26 29 -55 49q22 22 59 65q6 7 6 12q0 3 -5 15q-36 90 -36 208q0 363 271 363q131 0 188 -44
q12 -10 15 -10t12 11q18 21 40 47q19 -25 54 -47zM361 502q0 79 -62 79q-42 0 -56.5 -47.5t-14.5 -177.5v-21q0 -1 -1 -8v-10q0 -7 2 -7q5 7 13 18q36 51 112 149q7 9 7 25zM367 386q0 7 -2 7t-5.5 -7.5t-5.5 -9.5q-35 -49 -109 -146q-10 -12 -10 -28q0 -31 15 -57
q18 -30 48 -30q44 0 57 51q11 42 11 171q0 15 1 32v17z" />
    <glyph glyph-name="Ugrave" unicode="&#xd9;" horiz-adv-x="605" 
d="M362 732q-31 3 -64 3q-18 0 -57 -3q-63 75 -135 148q32 2 90 2q60 0 109 -2q15 -36 57 -148zM564 203q0 -108 -69.5 -162.5t-194.5 -54.5q-259 0 -259 215v6q0 42 1 145.5t1 150.5q0 80 -2 191q45 -2 86 -2q49 0 119 2q-2 -189 -2 -321q0 -58 2 -175q1 -42 10 -56
q12 -18 49 -18q34 0 46 18q9 14 9 54q0 26 1 85t1 92q0 231 -2 321q33 -1 97 -1q63 0 107 2q-2 -143 -2 -185q0 -48 1 -153.5t1 -148.5v-5z" />
    <glyph glyph-name="Uacute" unicode="&#xda;" horiz-adv-x="605" 
d="M497 879q-85 -85 -136 -147q-27 2 -61 2q-35 0 -64 -2q38 95 62 147q67 2 108 2q45 0 91 -2zM564 203q0 -108 -69.5 -162.5t-194.5 -54.5q-259 0 -259 215v6q0 42 1 145.5t1 150.5q0 80 -2 191q45 -2 86 -2q49 0 119 2q-2 -189 -2 -321q0 -58 2 -175q1 -42 10 -56
q12 -18 49 -18q34 0 46 18q9 14 9 54q0 26 1 85t1 92q0 231 -2 321q33 -1 97 -1q63 0 107 2q-2 -143 -2 -185q0 -48 1 -153.5t1 -148.5v-5z" />
    <glyph glyph-name="Ucircumflex" unicode="&#xdb;" horiz-adv-x="605" 
d="M496 732q-25 1 -64 1t-62 -1l-48 51q-2 2 -10 12t-11 10q-2 0 -9 -9q-10 -12 -11 -13q-16 -18 -46 -51q-26 2 -62 2t-64 -2q40 58 102 147q57 -2 91 -2q45 0 89 2zM564 203q0 -108 -69.5 -162.5t-194.5 -54.5q-259 0 -259 215v6q0 42 1 145.5t1 150.5q0 80 -2 191
q45 -2 86 -2q49 0 119 2q-2 -189 -2 -321q0 -58 2 -175q1 -42 10 -56q12 -18 49 -18q34 0 46 18q9 14 9 54q0 26 1 85t1 92q0 231 -2 321q33 -1 97 -1q63 0 107 2q-2 -143 -2 -185q0 -48 1 -153.5t1 -148.5v-5z" />
    <glyph glyph-name="Udieresis" unicode="&#xdc;" horiz-adv-x="605" 
d="M458 733q-34 2 -67 2q-32 0 -63 -2q2 38 2 65q0 24 -2 68q21 -2 60 -2q34 0 70 2q-2 -40 -2 -66t2 -67zM275 732q-31 2 -67 2t-65 -2q2 20 2 61q0 36 -2 73q20 -2 65 -2q27 0 67 2q-2 -40 -2 -67q0 -28 2 -67zM564 203q0 -108 -69.5 -162.5t-194.5 -54.5q-259 0 -259 215
v6q0 42 1 145.5t1 150.5q0 80 -2 191q45 -2 86 -2q49 0 119 2q-2 -189 -2 -321q0 -58 2 -175q1 -42 10 -56q12 -18 49 -18q34 0 46 18q9 14 9 54q0 26 1 85t1 92q0 231 -2 321q33 -1 97 -1q63 0 107 2q-2 -143 -2 -185q0 -48 1 -153.5t1 -148.5v-5z" />
    <glyph glyph-name="Yacute" unicode="&#xdd;" horiz-adv-x="553" 
d="M485 879q-85 -85 -136 -147q-27 2 -61 2q-35 0 -64 -2q38 95 62 147q67 2 108 2q45 0 91 -2zM566 694l-178 -400q-15 -33 -15 -56v-76q0 -23 3 -163q-46 2 -102 2q-59 0 -102 -2q2 140 2 163v76q0 21 -14 55l-173 401q46 -2 107 -2q60 0 106 2q25 -60 75 -207l9 -32
q3 -9 6 -9t6 9l11 33q23 71 76 206q43 -2 85 -2q40 0 98 2z" />
    <glyph glyph-name="Thorn" unicode="&#xde;" horiz-adv-x="563" 
d="M562 369q0 -208 -257 -208h-27q-20 1 -27 1q-12 0 -14.5 -3t-2.5 -14q0 -56 1 -146q-51 3 -96 3q-46 0 -95 -3l2 513q0 106 -2 167q45 -2 95 -2q52 0 97 2q0 -12 -1 -43.5t-1 -44.5q0 -10 16 -10h69q243 0 243 -212zM371 368q0 89 -95 89h-30q-15 0 -16 -15
q-1 -38 -1 -138v-6q0 -13 12 -13h17q12 -1 17 -1q49 0 72.5 18.5t23.5 65.5z" />
    <glyph glyph-name="germandbls" unicode="&#xdf;" horiz-adv-x="563" 
d="M546 207q0 -109 -42 -159q-46 -56 -157 -56q-44 0 -87 9q6 17 6 51q1 44 2 51q20 -3 31 -3q49 0 49 108q0 83 -18.5 110t-71.5 27q2 20 2 42q0 30 -2 60q36 0 50.5 18.5t14.5 69.5q0 89 -46 89q-25 0 -33.5 -16t-9.5 -64q-2 -95 -2 -242q0 -98 2 -303q-44 2 -104 2
q-50 0 -92 -2q3 83 3 174q0 53 -1.5 168t-1.5 168q0 211 242 211q103 0 164 -45q65 -46 65 -129q0 -41 -20.5 -78t-55.5 -54q-11 -5 -25 -8q-8 -2 -8 -5t12 -4q18 -2 25 -5q109 -38 109 -185z" />
    <glyph glyph-name="agrave" unicode="&#xe0;" horiz-adv-x="538" 
d="M326 562q-31 3 -64 3q-18 0 -57 -3q-63 75 -135 148q32 2 90 2q60 0 109 -2q15 -36 57 -148zM511 -1q-12 1 -36 1q-111 0 -163 -7q-2 14 -7 43q-2 11 -5 11q-2 0 -4.5 -4.5t-11.5 -12.5q-40 -40 -110 -40q-74 0 -115 39q-45 41 -45 120q0 93 84 136q59 30 172 38
q25 2 28 19q1 8 1 44q0 57 -47 57q-43 0 -43 -71v-4q1 -3 1 -9q-34 2 -88 2q-45 0 -82 -2q0 6 -1 21.5t-1 16.5q0 69 59.5 106.5t162.5 37.5q102 0 164 -33q70 -37 70 -107q0 -21 -1 -73.5t-1 -73.5q0 -47 2 -137q2 -75 17 -118zM301 213v20q0 7 -6 7q-8 0 -24 -2
q-67 -9 -67 -76q0 -65 48 -65q18 0 31 14.5t16 32.5q2 15 2 69z" />
    <glyph glyph-name="aacute" unicode="&#xe1;" horiz-adv-x="538" 
d="M449 709q-85 -85 -136 -147q-27 2 -61 2q-35 0 -64 -2q38 95 62 147q67 2 108 2q45 0 91 -2zM511 -1q-12 1 -36 1q-111 0 -163 -7q-2 14 -7 43q-2 11 -5 11q-2 0 -4.5 -4.5t-11.5 -12.5q-40 -40 -110 -40q-74 0 -115 39q-45 41 -45 120q0 93 84 136q59 30 172 38
q25 2 28 19q1 8 1 44q0 57 -47 57q-43 0 -43 -71v-4q1 -3 1 -9q-34 2 -88 2q-45 0 -82 -2q0 6 -1 21.5t-1 16.5q0 69 59.5 106.5t162.5 37.5q102 0 164 -33q70 -37 70 -107q0 -21 -1 -73.5t-1 -73.5q0 -47 2 -137q2 -75 17 -118zM301 213v20q0 7 -6 7q-8 0 -24 -2
q-67 -9 -67 -76q0 -65 48 -65q18 0 31 14.5t16 32.5q2 15 2 69z" />
    <glyph glyph-name="acircumflex" unicode="&#xe2;" horiz-adv-x="538" 
d="M451 562q-24 1 -63 1t-63 -1q-15 17 -48 51q-2 2 -10 12t-10 10q-3 0 -10 -9q-9 -12 -11 -13q-15 -18 -45 -51q-27 2 -63 2q-35 0 -63 -2q40 58 102 147q57 -2 91 -2q44 0 89 2q35 -49 104 -147zM511 -1q-12 1 -36 1q-111 0 -163 -7q-2 14 -7 43q-2 11 -5 11
q-2 0 -4.5 -4.5t-11.5 -12.5q-40 -40 -110 -40q-74 0 -115 39q-45 41 -45 120q0 93 84 136q59 30 172 38q25 2 28 19q1 8 1 44q0 57 -47 57q-43 0 -43 -71v-4q1 -3 1 -9q-34 2 -88 2q-45 0 -82 -2q0 6 -1 21.5t-1 16.5q0 69 59.5 106.5t162.5 37.5q102 0 164 -33
q70 -37 70 -107q0 -21 -1 -73.5t-1 -73.5q0 -47 2 -137q2 -75 17 -118zM301 213v20q0 7 -6 7q-8 0 -24 -2q-67 -9 -67 -76q0 -65 48 -65q18 0 31 14.5t16 32.5q2 15 2 69z" />
    <glyph glyph-name="atilde" unicode="&#xe3;" horiz-adv-x="538" 
d="M435 684q0 -55 -27 -89.5t-73 -34.5q-26 0 -59 12q-28 10 -57 21q-19 6 -29 6q-27 0 -29 -39q-23 2 -42 2q-18 0 -36 -2v19q0 50 29.5 84t75.5 34q33 0 77.5 -19.5t58.5 -19.5q27 0 32 41q27 -2 39 -2q11 0 40 2v-15zM511 -1q-12 1 -36 1q-111 0 -163 -7q-2 14 -7 43
q-2 11 -5 11q-2 0 -4.5 -4.5t-11.5 -12.5q-40 -40 -110 -40q-74 0 -115 39q-45 41 -45 120q0 93 84 136q59 30 172 38q25 2 28 19q1 8 1 44q0 57 -47 57q-43 0 -43 -71v-4q1 -3 1 -9q-34 2 -88 2q-45 0 -82 -2q0 6 -1 21.5t-1 16.5q0 69 59.5 106.5t162.5 37.5
q102 0 164 -33q70 -37 70 -107q0 -21 -1 -73.5t-1 -73.5q0 -47 2 -137q2 -75 17 -118zM301 213v20q0 7 -6 7q-8 0 -24 -2q-67 -9 -67 -76q0 -65 48 -65q18 0 31 14.5t16 32.5q2 15 2 69z" />
    <glyph glyph-name="adieresis" unicode="&#xe4;" horiz-adv-x="538" 
d="M416 573q-34 2 -67 2q-32 0 -63 -2q2 38 2 65q0 24 -2 68q21 -2 60 -2q34 0 70 2q-2 -40 -2 -66t2 -67zM233 572q-31 2 -67 2t-65 -2q2 20 2 61q0 36 -2 73q20 -2 65 -2q27 0 67 2q-2 -40 -2 -67q0 -28 2 -67zM511 -1q-12 1 -36 1q-111 0 -163 -7q-2 14 -7 43
q-2 11 -5 11q-2 0 -4.5 -4.5t-11.5 -12.5q-40 -40 -110 -40q-74 0 -115 39q-45 41 -45 120q0 93 84 136q59 30 172 38q25 2 28 19q1 8 1 44q0 57 -47 57q-43 0 -43 -71v-4q1 -3 1 -9q-34 2 -88 2q-45 0 -82 -2q0 6 -1 21.5t-1 16.5q0 69 59.5 106.5t162.5 37.5
q102 0 164 -33q70 -37 70 -107q0 -21 -1 -73.5t-1 -73.5q0 -47 2 -137q2 -75 17 -118zM301 213v20q0 7 -6 7q-8 0 -24 -2q-67 -9 -67 -76q0 -65 48 -65q18 0 31 14.5t16 32.5q2 15 2 69z" />
    <glyph glyph-name="aring" unicode="&#xe5;" horiz-adv-x="538" 
d="M357 651q0 -43 -25.5 -70.5t-71.5 -27.5q-44 0 -69 28t-25 71q0 41 27.5 69.5t67.5 28.5t68 -29t28 -70zM511 -1q-12 1 -36 1q-111 0 -163 -7q-2 14 -7 43q-2 11 -5 11q-2 0 -4.5 -4.5t-11.5 -12.5q-40 -40 -110 -40q-74 0 -115 39q-45 41 -45 120q0 93 84 136
q59 30 172 38q25 2 28 19q1 8 1 44q0 57 -47 57q-43 0 -43 -71v-4q1 -3 1 -9q-34 2 -88 2q-45 0 -82 -2q0 6 -1 21.5t-1 16.5q0 69 59.5 106.5t162.5 37.5q102 0 164 -33q70 -37 70 -107q0 -21 -1 -73.5t-1 -73.5q0 -47 2 -137q2 -75 17 -118zM303 651q0 19 -12 32.5
t-29 13.5q-18 0 -29.5 -13.5t-11.5 -32.5t12 -32.5t29 -13.5t29 13.5t12 32.5zM301 213v20q0 7 -6 7q-8 0 -24 -2q-67 -9 -67 -76q0 -65 48 -65q18 0 31 14.5t16 32.5q2 15 2 69z" />
    <glyph glyph-name="ae" unicode="&#xe6;" horiz-adv-x="803" 
d="M787 303q0 -52 -3 -76q-190 4 -197 4q-35 0 -66 -1q-27 -1 -27 -14q0 -65 13 -92t43 -27q43 0 46 80q70 -7 183 -7q-9 -87 -59 -132q-56 -51 -169 -51q-95 0 -148 37q-7 5 -15 14q-6 6 -9 6t-10.5 -6.5t-14.5 -10.5q-73 -37 -133 -37q-107 0 -157 38t-50 121q0 93 84 136
q59 30 172 38q25 2 28 19q1 8 1 44q0 57 -47 57q-43 0 -43 -71v-4q1 -3 1 -9q-34 2 -88 2q-45 0 -82 -2q0 6 -1 21.5t-1 16.5q0 69 59.5 106.5t162.5 37.5q79 0 125 -25q6 -3 12 -8.5t9 -5.5t7.5 5t12.5 9q52 27 125 27q116 0 178 -69q58 -64 58 -171zM593 335
q0 100 -51 100q-22 0 -36 -31t-14 -81q0 -7 7 -7q43 0 81 2q13 1 13 17zM301 213v20q0 7 -6 7q-8 0 -24 -2q-36 -5 -49.5 -21t-13.5 -55q0 -65 44 -65q18 0 31 14.5t16 32.5q2 13 2 69z" />
    <glyph glyph-name="ccedilla" unicode="&#xe7;" horiz-adv-x="490" 
d="M480 323q-29 1 -58 1q-67 0 -123 -4v36q0 45 -10 62q-8 14 -27 14q-56 0 -56 -170q0 -163 51 -163q27 0 38 21.5t11 87.5q68 -5 122 -5q22 0 48 1q2 -11 2 -39q0 -150 -167 -174q-14 -2 -27 -12t-13 -16q0 -3 6 -3q2 0 10.5 4.5t13.5 4.5q32 0 56.5 -19t24.5 -52
q0 -45 -44 -68q-39 -21 -98 -21q-38 0 -104 17q14 26 19 55q50 -13 73 -13q19 0 33.5 9t14.5 20q0 24 -35 24q-17 0 -36 -7q-19 12 -30 16l29 43q1 2 7.5 8.5t6.5 7.5q-3 3 -13 3q-20 0 -53 13q-136 54 -136 252q0 144 68 217q62 68 175 68q106 0 163.5 -48.5t57.5 -134.5
v-36z" />
    <glyph glyph-name="egrave" unicode="&#xe8;" horiz-adv-x="518" 
d="M338 562q-31 3 -64 3q-18 0 -57 -3q-63 75 -135 148q32 2 90 2q60 0 109 -2q15 -36 57 -148zM503 303q0 -52 -4 -76q-93 4 -195 4q-48 0 -80 -1q-14 0 -14 -14q0 -65 12.5 -92t42.5 -27q44 0 47 80q69 -7 182 -7q-9 -87 -58 -132q-57 -51 -170 -51q-250 0 -250 267
q0 143 65 216t185 73q117 0 179 -69q58 -64 58 -171zM313 333q0 102 -53 102q-22 0 -37 -31t-15 -81q0 -7 7 -7q51 0 85 2q13 1 13 15z" />
    <glyph glyph-name="eacute" unicode="&#xe9;" horiz-adv-x="518" 
d="M449 709q-85 -85 -136 -147q-27 2 -61 2q-35 0 -64 -2q38 95 62 147q67 2 108 2q45 0 91 -2zM503 303q0 -52 -4 -76q-93 4 -195 4q-48 0 -80 -1q-14 0 -14 -14q0 -65 12.5 -92t42.5 -27q44 0 47 80q69 -7 182 -7q-9 -87 -58 -132q-57 -51 -170 -51q-250 0 -250 267
q0 143 65 216t185 73q117 0 179 -69q58 -64 58 -171zM313 333q0 102 -53 102q-22 0 -37 -31t-15 -81q0 -7 7 -7q51 0 85 2q13 1 13 15z" />
    <glyph glyph-name="ecircumflex" unicode="&#xea;" horiz-adv-x="518" 
d="M456 562q-24 1 -64 1q-38 0 -62 -1q-15 17 -48 51q-2 2 -10 12t-10 10q-3 0 -10 -9q-9 -12 -11 -13q-15 -18 -45 -51q-27 2 -63 2t-63 -2q40 58 102 147q56 -2 91 -2q44 0 89 2q34 -49 104 -147zM503 303q0 -52 -4 -76q-93 4 -195 4q-48 0 -80 -1q-14 0 -14 -14
q0 -65 12.5 -92t42.5 -27q44 0 47 80q69 -7 182 -7q-9 -87 -58 -132q-57 -51 -170 -51q-250 0 -250 267q0 143 65 216t185 73q117 0 179 -69q58 -64 58 -171zM313 333q0 102 -53 102q-22 0 -37 -31t-15 -81q0 -7 7 -7q51 0 85 2q13 1 13 15z" />
    <glyph glyph-name="edieresis" unicode="&#xeb;" horiz-adv-x="518" 
d="M421 573q-35 2 -67 2t-64 -2q2 38 2 65q0 24 -2 68q22 -2 61 -2q34 0 70 2q-2 -40 -2 -66t2 -67zM237 572q-30 2 -66 2t-65 -2q2 20 2 61q0 36 -2 73q20 -2 65 -2q27 0 66 2q-2 -40 -2 -67q0 -28 2 -67zM503 303q0 -52 -4 -76q-93 4 -195 4q-48 0 -80 -1q-14 0 -14 -14
q0 -65 12.5 -92t42.5 -27q44 0 47 80q69 -7 182 -7q-9 -87 -58 -132q-57 -51 -170 -51q-250 0 -250 267q0 143 65 216t185 73q117 0 179 -69q58 -64 58 -171zM313 333q0 102 -53 102q-22 0 -37 -31t-15 -81q0 -7 7 -7q51 0 85 2q13 1 13 15z" />
    <glyph glyph-name="igrave" unicode="&#xec;" horiz-adv-x="271" 
d="M226 562q-31 3 -65 3q-17 0 -57 -3q-63 75 -135 148q32 2 90 2q60 0 109 -2q15 -36 58 -148zM233 -1q-44 2 -99 2t-96 -2q3 119 3 246q0 167 -3 285q42 -2 95 -2q36 0 100 2q-3 -176 -3 -323q0 -119 3 -208z" />
    <glyph glyph-name="iacute" unicode="&#xed;" horiz-adv-x="271" 
d="M301 709q-85 -85 -135 -147q-28 2 -62 2q-35 0 -63 -2q37 95 61 147q68 2 108 2q45 0 91 -2zM233 -1q-44 2 -99 2t-96 -2q3 119 3 246q0 167 -3 285q42 -2 95 -2q36 0 100 2q-3 -176 -3 -323q0 -119 3 -208z" />
    <glyph glyph-name="icircumflex" unicode="&#xee;" horiz-adv-x="271" 
d="M329 562q-24 1 -64 1q-39 0 -62 -1q-15 17 -48 51q-2 2 -10 12t-11 10q-2 0 -9 -9q-10 -12 -11 -13q-16 -18 -46 -51q-26 2 -62 2t-64 -2q41 58 102 147q57 -2 92 -2q44 0 88 2zM233 -1q-44 2 -99 2t-96 -2q3 119 3 246q0 167 -3 285q42 -2 95 -2q36 0 100 2
q-3 -176 -3 -323q0 -119 3 -208z" />
    <glyph glyph-name="idieresis" unicode="&#xef;" horiz-adv-x="271" 
d="M296 573q-34 2 -67 2q-32 0 -63 -2q2 38 2 65q0 24 -2 68q21 -2 60 -2q34 0 70 2q-2 -40 -2 -66t2 -67zM113 572q-31 2 -67 2t-65 -2q2 20 2 61q0 36 -2 73q20 -2 65 -2q27 0 67 2q-2 -40 -2 -67q0 -28 2 -67zM233 -1q-44 2 -99 2t-96 -2q3 119 3 246q0 167 -3 285
q42 -2 95 -2q36 0 100 2q-3 -176 -3 -323q0 -119 3 -208z" />
    <glyph glyph-name="eth" unicode="&#xf0;" horiz-adv-x="530" 
d="M510 297q0 -310 -251 -310q-112 0 -177 69q-68 72 -68 202q0 124 57.5 201.5t145.5 77.5q48 0 81 -26q16 -13 14 -13q2 0 2 3q0 8 -4 16q-19 30 -53 61q-6 5 -10 5t-7 -2l-44 -28q-27 36 -50 52l30 18l10 6l-10 4q-45 17 -93 8q29 43 53 96q20 4 39 4q80 0 129 -25
q7 -4 8 -4q6 0 12 5l52 41q3 -4 56 -54l-47 -29q-5 -3 -5 -7t5 -9q125 -120 125 -362zM316 288q0 146 -53 146q-54 0 -54 -159q0 -177 51 -177q35 0 47 54q9 40 9 136z" />
    <glyph glyph-name="ntilde" unicode="&#xf1;" horiz-adv-x="565" 
d="M459 684q0 -55 -27 -89.5t-73 -34.5q-26 0 -59 12q-28 10 -57 21q-19 6 -29 6q-27 0 -29 -39q-23 2 -42 2q-18 0 -36 -2v19q0 50 29.5 84t75.5 34q33 0 77.5 -19.5t58.5 -19.5q27 0 32 41q27 -2 39 -2q11 0 40 2v-15zM529 -1q-43 2 -98 2q-56 0 -97 -2q2 91 2 194
q0 106 -2 183q-2 42 -39 42q-32 0 -50 -23q-10 -12 -11 -38q-2 -49 -2 -121q0 -39 1 -125t1 -112q-43 3 -92 3q-51 0 -104 -3q3 81 3 164q0 301 -13 367q46 -3 104 -3q49 0 94 2q2 -19 2 -52q0 -9 4 -9q1 1 4 6q42 64 153 64q63 0 101.5 -34.5t38.5 -93.5v-6
q0 -23 -1 -100.5t-1 -115.5q0 -76 2 -189z" />
    <glyph glyph-name="ograve" unicode="&#xf2;" horiz-adv-x="524" 
d="M326 562q-31 3 -64 3q-18 0 -57 -3q-63 75 -135 148q32 2 90 2q60 0 109 -2q15 -36 57 -148zM509 266q0 -136 -61.5 -207.5t-178.5 -71.5q-253 0 -253 275q0 279 246 279q116 0 180 -67q67 -71 67 -208zM314 264q0 74 -3 98q-11 71 -49 71q-29 0 -41 -38
q-12 -41 -12 -142q0 -81 11 -117q12 -39 42 -39q52 0 52 167z" />
    <glyph glyph-name="oacute" unicode="&#xf3;" horiz-adv-x="524" 
d="M449 709q-85 -85 -136 -147q-27 2 -61 2q-35 0 -64 -2q38 95 62 147q67 2 108 2q45 0 91 -2zM509 266q0 -136 -61.5 -207.5t-178.5 -71.5q-253 0 -253 275q0 279 246 279q116 0 180 -67q67 -71 67 -208zM314 264q0 74 -3 98q-11 71 -49 71q-29 0 -41 -38
q-12 -41 -12 -142q0 -81 11 -117q12 -39 42 -39q52 0 52 167z" />
    <glyph glyph-name="ocircumflex" unicode="&#xf4;" horiz-adv-x="524" 
d="M451 562q-24 1 -63 1t-63 -1q-15 17 -48 51q-2 2 -10 12t-10 10q-3 0 -10 -9q-9 -12 -11 -13q-15 -18 -45 -51q-27 2 -63 2q-35 0 -63 -2q40 58 102 147q57 -2 91 -2q44 0 89 2q35 -49 104 -147zM509 266q0 -136 -61.5 -207.5t-178.5 -71.5q-253 0 -253 275
q0 279 246 279q116 0 180 -67q67 -71 67 -208zM314 264q0 74 -3 98q-11 71 -49 71q-29 0 -41 -38q-12 -41 -12 -142q0 -81 11 -117q12 -39 42 -39q52 0 52 167z" />
    <glyph glyph-name="otilde" unicode="&#xf5;" horiz-adv-x="524" 
d="M435 684q0 -55 -27 -89.5t-73 -34.5q-26 0 -59 12q-28 10 -57 21q-19 6 -29 6q-27 0 -29 -39q-23 2 -42 2q-18 0 -36 -2v19q0 50 29.5 84t75.5 34q33 0 77.5 -19.5t58.5 -19.5q27 0 32 41q27 -2 39 -2q11 0 40 2v-15zM509 266q0 -136 -61.5 -207.5t-178.5 -71.5
q-253 0 -253 275q0 279 246 279q116 0 180 -67q67 -71 67 -208zM314 264q0 74 -3 98q-11 71 -49 71q-29 0 -41 -38q-12 -41 -12 -142q0 -81 11 -117q12 -39 42 -39q52 0 52 167z" />
    <glyph glyph-name="odieresis" unicode="&#xf6;" horiz-adv-x="524" 
d="M416 573q-34 2 -67 2q-32 0 -63 -2q2 38 2 65q0 24 -2 68q21 -2 60 -2q34 0 70 2q-2 -40 -2 -66t2 -67zM233 572q-31 2 -67 2t-65 -2q2 20 2 61q0 36 -2 73q20 -2 65 -2q27 0 67 2q-2 -40 -2 -67q0 -28 2 -67zM509 266q0 -136 -61.5 -207.5t-178.5 -71.5q-253 0 -253 275
q0 279 246 279q116 0 180 -67q67 -71 67 -208zM314 264q0 74 -3 98q-11 71 -49 71q-29 0 -41 -38q-12 -41 -12 -142q0 -81 11 -117q12 -39 42 -39q52 0 52 167z" />
    <glyph glyph-name="divide" unicode="&#xf7;" horiz-adv-x="479" 
d="M315 430q0 -35 -22.5 -60t-54.5 -25t-54.5 24t-22.5 59t22.5 59.5t54.5 24.5q33 0 55 -24t22 -58zM472 178q-91 6 -231 6q-98 0 -233 -6q3 26 3 62q0 35 -3 70q115 -3 229 -3q152 0 235 3q-4 -36 -4 -70t4 -62zM316 58q0 -35 -22.5 -59.5t-54.5 -24.5t-54.5 24t-22.5 59
t22 60t54 25q33 0 55.5 -24.5t22.5 -59.5z" />
    <glyph glyph-name="oslash" unicode="&#xf8;" horiz-adv-x="511" 
d="M511 494q-15 -12 -37 -35q-4 -5 -4 -11t3 -10q37 -68 37 -191q0 -116 -60 -185q-65 -75 -187 -75q-90 0 -155 42q-5 3 -10 3q-7 0 -13 -6q-13 -16 -32 -39q-18 25 -48 50q13 13 39 40q8 7 8 13t-5 15q-31 61 -31 138q0 298 240 298q89 0 146 -38q11 -7 14 -7q4 0 10 7
q28 31 35 39q29 -31 50 -48zM311 367q0 23 -12 42q-14 24 -37 24q-32 0 -45.5 -37.5t-13.5 -132.5q0 -6 -1 -26l3 -2q26 26 101 119q5 6 5 13zM322 284l-4 3q-3 -4 -8 -12q-32 -36 -92 -106q-4 -6 -4 -18q0 -18 14.5 -36t33.5 -18q58 0 58 157q0 8 2 30z" />
    <glyph glyph-name="ugrave" unicode="&#xf9;" horiz-adv-x="565" 
d="M350 562q-31 3 -64 3q-18 0 -57 -3q-63 75 -135 148q32 2 90 2q60 0 109 -2q15 -36 57 -148zM541 -2q-46 3 -104 3q-49 0 -94 -2q-2 19 -2 52q0 9 -4 9q-1 -1 -5 -6q-41 -65 -152 -65q-63 0 -102.5 34.5t-39.5 93.5v6q0 23 1.5 101t1.5 116q0 76 -3 189q43 -2 100 -2
q56 0 97 2q-2 -91 -2 -194q0 -106 2 -183q2 -42 39 -42q33 0 50 22q10 12 11 38q2 49 2 122q0 39 -1 125t-1 112q43 -3 91 -3q50 0 103 3q-2 -81 -2 -165q0 -295 14 -366z" />
    <glyph glyph-name="uacute" unicode="&#xfa;" horiz-adv-x="565" 
d="M469 709q-85 -85 -135 -147q-28 2 -62 2q-35 0 -63 -2q37 95 61 147q68 2 108 2q45 0 91 -2zM541 -2q-46 3 -104 3q-49 0 -94 -2q-2 19 -2 52q0 9 -4 9q-1 -1 -5 -6q-41 -65 -152 -65q-63 0 -102.5 34.5t-39.5 93.5v6q0 23 1.5 101t1.5 116q0 76 -3 189q43 -2 100 -2
q56 0 97 2q-2 -91 -2 -194q0 -106 2 -183q2 -42 39 -42q33 0 50 22q10 12 11 38q2 49 2 122q0 39 -1 125t-1 112q43 -3 91 -3q50 0 103 3q-2 -81 -2 -165q0 -295 14 -366z" />
    <glyph glyph-name="ucircumflex" unicode="&#xfb;" horiz-adv-x="565" 
d="M475 562q-24 1 -63 1t-63 -1q-15 17 -48 51q-2 2 -10 12t-10 10q-3 0 -10 -9q-9 -12 -11 -13q-15 -18 -45 -51q-27 2 -63 2q-35 0 -63 -2q40 58 102 147q57 -2 91 -2q44 0 89 2q35 -49 104 -147zM541 -2q-46 3 -104 3q-49 0 -94 -2q-2 19 -2 52q0 9 -4 9q-1 -1 -5 -6
q-41 -65 -152 -65q-63 0 -102.5 34.5t-39.5 93.5v6q0 23 1.5 101t1.5 116q0 76 -3 189q43 -2 100 -2q56 0 97 2q-2 -91 -2 -194q0 -106 2 -183q2 -42 39 -42q33 0 50 22q10 12 11 38q2 49 2 122q0 39 -1 125t-1 112q43 -3 91 -3q50 0 103 3q-2 -81 -2 -165q0 -295 14 -366z
" />
    <glyph glyph-name="udieresis" unicode="&#xfc;" horiz-adv-x="565" 
d="M441 573q-34 2 -67 2q-32 0 -63 -2q2 38 2 65q0 24 -2 68q22 -2 60 -2q34 0 70 2q-2 -40 -2 -66t2 -67zM258 572q-31 2 -67 2q-35 0 -65 -2q2 20 2 61q0 36 -2 73q20 -2 65 -2q27 0 67 2q-2 -40 -2 -67q0 -28 2 -67zM541 -2q-46 3 -104 3q-49 0 -94 -2q-2 19 -2 52
q0 9 -4 9q-1 -1 -5 -6q-41 -65 -152 -65q-63 0 -102.5 34.5t-39.5 93.5v6q0 23 1.5 101t1.5 116q0 76 -3 189q43 -2 100 -2q56 0 97 2q-2 -91 -2 -194q0 -106 2 -183q2 -42 39 -42q33 0 50 22q10 12 11 38q2 49 2 122q0 39 -1 125t-1 112q43 -3 91 -3q50 0 103 3
q-2 -81 -2 -165q0 -295 14 -366z" />
    <glyph glyph-name="yacute" unicode="&#xfd;" horiz-adv-x="487" 
d="M437 709q-85 -85 -136 -147q-27 2 -61 2q-35 0 -64 -2q38 95 62 147q67 2 108 2q45 0 91 -2zM502 530l-161 -539q-58 -176 -216 -176q-45 0 -106 13q4 33 4 60q0 28 -4 59q36 -11 82 -11q42 0 42 45q0 22 -13 69l-136 480q44 -3 98 -3q50 0 101 3q19 -113 48 -293
q2 -14 6 -41q1 -5 5 -5q2 0 3 4t8 41q38 219 44 294q42 -2 90 -2q66 0 105 2z" />
    <glyph glyph-name="thorn" unicode="&#xfe;" horiz-adv-x="542" 
d="M529 261q0 -269 -188 -269q-52 0 -88 28q-3 2 -19 21l-2 -3l3 -221q-64 2 -109 2q-39 0 -80 -2q1 32 1 130l-1 748q41 -2 97 -2t89 1q-4 -140 -4 -201v-12q0 -7 4 -7q1 0 4 6q31 56 118 56q110 0 150 -100q25 -61 25 -175zM337 260q0 79 -3 101q-10 72 -47 72
q-50 0 -54 -67q-1 -19 -1 -90v-101q0 -43 8 -58q10 -20 40 -20q33 0 45 36t12 127z" />
    <glyph glyph-name="ydieresis" unicode="&#xff;" horiz-adv-x="487" 
d="M399 573q-34 2 -67 2q-32 0 -63 -2q2 38 2 65q0 24 -2 68q22 -2 60 -2q34 0 70 2q-2 -40 -2 -66t2 -67zM216 572q-31 2 -67 2q-35 0 -65 -2q2 20 2 61q0 36 -2 73q20 -2 65 -2q27 0 67 2q-2 -40 -2 -67q0 -28 2 -67zM502 530l-161 -539q-58 -176 -216 -176q-45 0 -106 13
q4 33 4 60q0 28 -4 59q36 -11 82 -11q42 0 42 45q0 22 -13 69l-136 480q44 -3 98 -3q50 0 101 3q19 -113 48 -293q2 -14 6 -41q1 -5 5 -5q2 0 3 4t8 41q38 219 44 294q42 -2 90 -2q66 0 105 2z" />
    <glyph glyph-name="dotlessi" unicode="&#x131;" horiz-adv-x="271" 
d="M233 -1q-44 2 -99 2t-96 -2q3 119 3 246q0 167 -3 285q42 -2 95 -2q36 0 100 2q-3 -176 -3 -323q0 -119 3 -208z" />
    <glyph glyph-name="Lslash" unicode="&#x141;" horiz-adv-x="433" 
d="M427 139q-2 -33 -2 -71q0 -17 1 -68q-67 2 -163 2q-87 0 -222 -2q3 103 3 220q0 5 1 17.5t1 18.5q0 4 -2 4q-4 -3 -12 -7q-13 -7 -38 -19q1 28 1 91q10 4 36 15q13 5 13 20q0 182 -3 334q38 -1 98 -1q71 0 106 1q-3 -76 -4 -222q0 -5 -1 -18t-1 -19q0 -8 3 -8q6 4 17 11
q69 31 112 52q-1 -18 -1 -40t1 -50q-38 -15 -118 -49q-12 -5 -12 -18q0 -103 1 -185q1 -11 12 -11h23q46 0 150 2z" />
    <glyph glyph-name="lslash" unicode="&#x142;" horiz-adv-x="250" 
d="M265 498l-2 -91l-28 -18q-12 -8 -12 -56q0 -197 4 -334q-64 3 -106 3q-43 0 -89 -3q2 72 5 230q0 5 1 14v14q0 7 -3 7q-2 0 -16 -11q-17 -13 -25 -18q2 31 2 58q0 7 -1 33l33 21q9 6 9 21q0 111 -5 326q43 -2 88 -2q43 0 107 2q-2 -71 -3 -200v-16l-1 -7q0 -3 3 -3
q2 0 13 10q15 13 26 20z" />
    <glyph glyph-name="OE" unicode="&#x152;" horiz-adv-x="797" 
d="M779 0q-75 2 -210 2q-123 0 -204 -2q-24 -3 -57 -3q-146 0 -214 87t-68 263q0 180 64 263q66 88 217 88q36 0 64 -4q122 -2 192 -2q50 0 204 2q-1 -18 -1 -68q0 -48 1 -66l-180 2q-14 0 -15 -6q-2 -27 -2 -111v-20q0 -14 18 -14h6q58 0 162 2q-1 -24 -1 -66q0 -43 1 -67
q-113 2 -162 2h-8q-16 0 -16 -14v-16q0 -78 1 -104q1 -11 16 -11q41 0 192 2q-3 -45 -3 -70q0 -37 3 -69zM377 342q0 151 -17 197q-12 33 -49 33q-41 0 -54 -40q-15 -45 -15 -195q0 -134 17 -178q13 -35 51 -35q40 0 52 34q15 41 15 184z" />
    <glyph glyph-name="oe" unicode="&#x153;" horiz-adv-x="808" 
d="M792 303q0 -52 -4 -76q-189 4 -196 4q-35 0 -66 -1q-27 -1 -27 -14q0 -65 13 -92t42 -27q44 0 47 80q70 -7 183 -7q-9 -87 -59 -132q-57 -51 -169 -51q-60 0 -105 16q-6 2 -23 13q-13 9 -21 9q-7 0 -20 -8q-16 -11 -21 -13q-43 -17 -97 -17q-253 0 -253 275
q0 279 246 279q62 0 112 -23q5 -2 18 -11q10 -7 15 -7q4 0 14 8t13 10q49 25 122 25q116 0 178 -69q58 -64 58 -171zM598 335q0 100 -51 100q-22 0 -36 -31t-14 -81q0 -7 7 -7q41 0 79 3q15 1 15 16zM314 264q0 74 -3 98q-11 71 -49 71q-29 0 -41 -38q-12 -41 -12 -142
q0 -81 11 -117q12 -39 42 -39q52 0 52 167z" />
    <glyph glyph-name="Scaron" unicode="&#x160;" horiz-adv-x="565" 
d="M491 878q-80 -94 -117 -146q-61 2 -97 2q-41 0 -83 -2q-38 50 -114 146q25 -1 69 -1q46 0 69 1q14 -16 46 -49q2 -2 12 -14q7 -9 10 -9q2 0 9.5 10.5t9.5 12.5q17 17 48 49q13 -1 67 -1q57 0 71 1zM547 199q0 -98 -70.5 -155t-190.5 -57q-267 0 -267 213q0 28 1 43
q80 -3 107 -3q62 0 102 3q-1 -10 -1 -42q0 -87 65 -87q24 0 42 14t18 39q0 40 -25.5 65t-99.5 53q-62 23 -100 45q-98 57 -98 170q0 84 61 142q70 66 197 66q121 0 186 -54q62 -51 62 -141v-48q-113 6 -201 0q1 18 1 46q0 70 -55 70q-27 0 -41 -18.5t-14 -43.5q0 -30 18 -48
q24 -25 123 -66q87 -36 125 -74q55 -55 55 -132z" />
    <glyph glyph-name="scaron" unicode="&#x161;" horiz-adv-x="463" 
d="M440 708q-80 -94 -116 -146q-61 2 -97 2q-42 0 -83 -2q-38 50 -114 146q24 -1 68 -1q46 0 70 1q14 -16 46 -49q1 -2 10 -12.5t11 -10.5q3 0 10 10.5t9 12.5q17 17 48 49q14 -1 68 -1q56 0 70 1zM454 153q0 -75 -61 -120.5t-161 -45.5q-219 0 -219 152v35q33 -2 84 -2
q47 0 83 3q0 -20 1 -32q6 -55 53 -55q43 0 43 44q0 26 -25 44q-17 13 -60 29q-85 32 -113 54q-59 43 -59 118t58.5 120.5t149.5 45.5q218 0 218 -168v-16q-37 3 -86 3q-55 0 -77 -1v12q0 70 -47 70q-42 0 -42 -49q0 -36 76 -65q96 -37 129 -63q55 -43 55 -113z" />
    <glyph glyph-name="Ydieresis" unicode="&#x178;" horiz-adv-x="553" 
d="M443 733q-35 2 -68 2q-32 0 -63 -2q2 38 2 65q0 24 -2 68q22 -2 60 -2q34 0 71 2q-2 -40 -2 -66t2 -67zM259 732q-31 2 -66 2q-36 0 -66 -2q2 20 2 61q0 36 -2 73q21 -2 66 -2q27 0 66 2q-2 -40 -2 -67q0 -28 2 -67zM566 694l-178 -400q-15 -33 -15 -56v-76q0 -23 3 -163
q-46 2 -102 2q-59 0 -102 -2q2 140 2 163v76q0 21 -14 55l-173 401q46 -2 107 -2q60 0 106 2q25 -60 75 -207l9 -32q3 -9 6 -9t6 9l11 33q23 71 76 206q43 -2 85 -2q40 0 98 2z" />
    <glyph glyph-name="Zcaron" unicode="&#x17d;" horiz-adv-x="508" 
d="M463 878q-80 -94 -116 -146q-61 2 -97 2q-42 0 -83 -2q-38 50 -114 146q24 -1 68 -1q46 0 70 1q14 -16 45 -49q2 -2 12 -14q7 -9 10 -9t10 10.5t9 12.5q17 17 48 49q13 -1 67 -1q57 0 71 1zM492 0q-99 3 -218 3q-161 0 -258 -3q2 38 2 69q0 15 -2 60q10 17 223 402
q11 19 15.5 24t4.5 7q0 3 -15 3h-6q-101 0 -214 -2q2 19 2 67q0 46 -2 64q115 -2 217 -2q83 0 247 2q3 -30 3 -64q0 -31 -3 -55q-71 -123 -228 -417q-14 -27 -14 -23q0 -5 6 -5h17q154 0 222 2q-1 -23 -1 -51q0 -38 2 -81z" />
    <glyph glyph-name="zcaron" unicode="&#x17e;" horiz-adv-x="443" 
d="M431 708q-80 -94 -117 -146q-61 2 -97 2q-41 0 -83 -2q-38 50 -114 146q25 -1 69 -1q46 0 69 1q14 -16 46 -49q2 -2 12 -14q7 -9 10 -9q2 0 9.5 10.5t9.5 12.5q17 17 48 49q13 -1 67 -1q57 0 71 1zM436 -1q-108 3 -224 3q-98 0 -190 -2q1 19 1 45t-1 61q11 13 26 36
q59 87 166 250q7 12 10 15l2 4q-3 0 -8 1q-59 -1 -183 -3q2 28 2 54q0 36 -2 66q132 -3 224 -3q69 0 171 2q2 -30 2 -48q0 -26 -4 -52q-60 -99 -180 -287q-14 -22 -14 -19q1 -1 4 -2q10 2 24 2q61 1 174 2q-3 -25 -3 -57q0 -43 3 -68z" />
    <glyph glyph-name="florin" unicode="&#x192;" horiz-adv-x="550" 
d="M499 702q-12 -44 -12 -112v-9q-21 7 -43 7q-49 0 -56 -53l-14 -91q-1 -9 -1 -6q0 -11 19 -11q41 0 75 2q-10 -44 -10 -73q0 3 1 -17q-47 3 -76 3q-21 0 -23 -18l-39 -301q-11 -94 -62 -136t-150 -42q-53 0 -84 9q11 35 11 93q0 9 -1 25q17 -5 42 -5q43 0 52 55
q17 104 44 303q1 9 1 6q0 11 -17 11t-67 -3q9 47 9 83v7q47 -3 65 -3q16 0 19.5 3.5t4.5 15.5q5 41 13 113q19 152 213 152q41 0 86 -8z" />
    <glyph glyph-name="circumflex" unicode="&#x2c6;" horiz-adv-x="516" 
d="M451 562q-24 1 -63 1t-63 -1q-15 17 -48 51q-2 2 -10 12t-10 10q-3 0 -10 -9q-9 -12 -11 -13q-15 -18 -45 -51q-27 2 -63 2q-35 0 -63 -2q40 58 102 147q57 -2 91 -2q44 0 89 2q35 -49 104 -147z" />
    <glyph glyph-name="caron" unicode="&#x2c7;" horiz-adv-x="516" 
d="M463 708q-80 -94 -116 -146q-61 2 -97 2q-42 0 -83 -2q-38 50 -114 146q24 -1 68 -1q46 0 70 1q14 -16 45 -49q2 -2 12 -14q7 -9 10 -9t10 10.5t9 12.5q17 17 48 49q13 -1 67 -1q57 0 71 1z" />
    <glyph glyph-name="breve" unicode="&#x2d8;" horiz-adv-x="430" 
d="M368 756q-4 -75 -44.5 -114.5t-107.5 -39.5q-146 0 -154 154q16 -2 30 -2q16 0 38 2q8 -61 84 -61q72 0 89 61q15 -2 30 -2q12 0 35 2z" />
    <glyph glyph-name="dotaccent" unicode="&#x2d9;" horiz-adv-x="430" 
d="M283 609q-31 2 -61 2q-29 0 -75 -2q1 17 1 71q0 53 -1 69q30 -2 67 -2t69 2q-2 -32 -2 -62q0 -27 2 -78z" />
    <glyph glyph-name="ring" unicode="&#x2da;" horiz-adv-x="430" 
d="M309 651q0 -41 -28 -69.5t-67 -28.5t-66 29t-27 70t27.5 69.5t65.5 28.5q39 0 67 -29t28 -70zM256 651q0 19 -12 32.5t-29 13.5t-28.5 -13.5t-11.5 -32.5t11.5 -32.5t28.5 -13.5t29 13.5t12 32.5z" />
    <glyph glyph-name="ogonek" unicode="&#x2db;" horiz-adv-x="516" 
d="M377 -170q-59 -23 -111 -23q-49 0 -82 16q-44 22 -44 67q0 68 128 120h100v-11q-118 -56 -118 -99q0 -32 38 -32q25 0 89 18q-1 -8 -1 -27t1 -29z" />
    <glyph glyph-name="tilde" unicode="&#x2dc;" horiz-adv-x="430" 
d="M388 684q0 -55 -26.5 -89.5t-71.5 -34.5q-25 0 -58 12q-27 10 -55 21q-19 6 -29 6q-26 0 -28 -39q-23 2 -41 2t-36 -2v19q0 50 29.5 84t73.5 34q33 0 76.5 -19.5t57.5 -19.5q26 0 31 41q26 -2 38 -2q11 0 39 2v-15z" />
    <glyph glyph-name="hungarumlaut" unicode="&#x2dd;" horiz-adv-x="430" 
d="M394 751q-58 -62 -117 -142q-18 2 -44 2t-41 -2q33 54 73 142q27 -2 68 -2q38 0 61 2zM240 751q-76 -79 -119 -142q-12 2 -37 2q-26 0 -47 -2q49 87 72 142q25 -2 65 -2q41 0 66 2z" />
    <glyph glyph-name="endash" unicode="&#x2013;" horiz-adv-x="529" 
d="M520 194q-173 2 -255 2t-254 -2q2 49 2 76q0 30 -2 62q116 -2 253 -2q138 0 256 2q-3 -49 -3 -76q0 -29 3 -62z" />
    <glyph glyph-name="emdash" unicode="&#x2014;" horiz-adv-x="1081" 
d="M1072 194l-537 2q-162 0 -524 -2q2 48 2 75q0 31 -2 63l529 -2q287 0 532 2q-3 -31 -3 -69q0 -36 3 -69z" />
    <glyph glyph-name="quoteleft" unicode="&#x2018;" horiz-adv-x="191" 
d="M166 421q-39 2 -71 2q-24 0 -49 -2q-27 109 -46 294q47 -2 70 -2q33 0 81 2q0 -176 15 -294z" />
    <glyph glyph-name="quoteright" unicode="&#x2019;" horiz-adv-x="191" 
d="M176 715q-19 -185 -46 -294q-25 2 -57 2q-23 0 -62 -2q16 126 16 294q48 -2 80 -2q22 0 69 2z" />
    <glyph glyph-name="quotesinglbase" unicode="&#x201a;" horiz-adv-x="171" 
d="M164 162q-16 -152 -46 -275q-39 2 -65 2q-18 0 -55 -2q16 126 16 275q32 -2 70 -2q49 0 80 2z" />
    <glyph glyph-name="quotedblleft" unicode="&#x201c;" horiz-adv-x="417" 
d="M384 418q-32 1 -66 1q-24 0 -55 -1q-28 131 -46 299q39 -2 69 -2q40 0 82 2q0 -134 16 -299zM210 418q-33 1 -75 1q-30 0 -45 -1q-38 116 -73 299q41 -2 69 -2q37 0 81 2q14 -153 43 -299z" />
    <glyph glyph-name="quotedblright" unicode="&#x201d;" horiz-adv-x="416" 
d="M400 717q-32 -169 -75 -299q-15 1 -45 1q-41 0 -74 -1q29 146 43 299q44 -2 81 -2q29 0 70 2zM199 717q-18 -168 -46 -299q-31 1 -55 1q-33 0 -65 -1q15 155 15 299q42 -2 82 -2q30 0 69 2z" />
    <glyph glyph-name="quotedblbase" unicode="&#x201e;" horiz-adv-x="378" 
d="M365 162q-24 -127 -74 -279q-21 2 -54 2q-37 0 -66 -2q33 162 43 279q30 -2 81 -2q40 0 70 2zM164 162q-14 -128 -46 -279q-24 2 -58 2t-62 -2q16 165 16 279q44 -3 89 -3q35 0 61 3z" />
    <glyph glyph-name="dagger" unicode="&#x2020;" horiz-adv-x="541" 
d="M521 358q-101 18 -168 24q-2 0 -8.5 1.5t-9.5 1.5q-6 0 -6 -4q0 7 6 -15q25 -93 25 -113q0 -16 -10 -97q-23 -194 -27 -287q-24 2 -52 2t-50 -2q-6 118 -27 287q-10 89 -10 97q0 21 25 113q5 18 5 15q0 4 -4 4q-2 0 -8 -1.5t-8 -1.5q-12 -1 -174 -24q4 37 4 80
q0 41 -4 82q96 -17 174 -25q2 0 8.5 -1.5t8.5 -1.5q4 0 4 4v2q0 -6 -4 16q-16 102 -31 172q41 -2 82 -2q37 0 99 2q-10 -60 -30 -170q-5 -26 -5 -18q0 -6 5 -6q3 0 9.5 1.5t8.5 1.5q56 6 172 27q-4 -42 -4 -77q0 -33 4 -87z" />
    <glyph glyph-name="daggerdbl" unicode="&#x2021;" horiz-adv-x="540" 
d="M521 35q-76 18 -177 25q-2 0 -7 1.5t-7 1.5q-6 0 -6 -7q0 -2 1.5 -7.5t2.5 -7.5q10 -85 32 -172q-44 3 -97 3q-51 0 -84 -3q15 62 30 170q0 2 1.5 8t1.5 9q0 7 -4 7q-3 0 -8 -1.5t-8 -1.5q-88 -7 -172 -27q5 41 5 81q0 39 -5 74q74 -18 168 -24q3 0 8 -1t8 -1q7 0 7 4
q0 2 -2.5 7l-3.5 7q-13 48 -13 93q0 41 17 102q5 18 5 14q0 4 -5 4q-2 0 -7.5 -1t-7.5 -1q-102 -5 -174 -24q5 36 5 74q0 40 -5 79q77 -19 174 -25q3 0 8.5 -1.5t7.5 -1.5q5 0 5 7q0 2 -2 7.5t-2 7.5q-11 94 -31 172q44 -3 97 -3q51 0 84 3q-15 -62 -30 -170q0 -3 -2.5 -8.5
t-2.5 -8.5q0 -7 6 -7q3 0 8.5 1.5t8.5 1.5q88 7 172 27q-5 -41 -5 -81q0 -39 5 -74q-74 18 -168 24q-3 0 -8.5 1t-8.5 1q-7 0 -7 -4q0 -2 2.5 -7l3.5 -7q15 -57 15 -94q0 -31 -19 -101q0 -2 -3 -7t-3 -7q0 -4 6 -4q2 0 6.5 1t6.5 1q106 5 177 24q-5 -36 -5 -74q0 -40 5 -79z
" />
    <glyph glyph-name="bullet" unicode="&#x2022;" horiz-adv-x="330" 
d="M294 348q0 -53 -38 -91t-91 -38t-91 38t-38 91t38 91t91 38t91 -38t38 -91z" />
    <glyph glyph-name="ellipsis" unicode="&#x2026;" horiz-adv-x="922" 
d="M838 -1q-26 2 -79 2q-58 0 -84 -2q2 36 2 71t-2 92q16 -1 81 -1q66 0 82 1q-2 -28 -2 -84t2 -79zM541 -1q-26 2 -79 2q-57 0 -83 -2q2 36 2 71t-2 92q16 -1 80 -1q66 0 82 1q-2 -28 -2 -84t2 -79zM248 -1q-26 2 -81 2q-57 0 -83 -2q2 36 2 71t-2 92q16 -1 81 -1
q67 0 83 1q-2 -28 -2 -84t2 -79z" />
    <glyph glyph-name="perthousand" unicode="&#x2030;" horiz-adv-x="1116" 
d="M1090 180q0 -192 -155 -192q-157 0 -157 191q0 199 154 199q158 0 158 -198zM746 181q0 -191 -153 -191q-157 0 -157 190q0 200 153 200q157 0 157 -199zM620 706q-108 -192 -369 -717q-24 2 -51 2q-26 0 -50 -2q170 301 372 717q15 -1 46 -1q33 0 52 1zM337 501
q0 -192 -153 -192q-158 0 -158 191q0 199 154 199q157 0 157 -198zM965 180q0 54 -2 66q-5 49 -29 49q-25 0 -31 -46q-2 -12 -2 -63q0 -50 2 -64q6 -47 31 -47q23 0 29 44q2 12 2 61zM622 182q0 55 -2 66q-5 49 -28 49q-25 0 -31 -46q-2 -14 -2 -63q0 -50 2 -64
q6 -47 31 -47q23 0 28 44q2 11 2 61zM215 502q0 66 -7.5 90t-26.5 24q-23 0 -28 -45q-2 -12 -2 -63q0 -52 2 -65q6 -47 29 -47q25 0 31 45q2 13 2 61z" />
    <glyph glyph-name="guilsinglleft" unicode="&#x2039;" horiz-adv-x="288" 
d="M278 83q-58 2 -84 2q-42 0 -74 -2q-61 102 -110 171q22 30 110 171q33 -2 67 -2q17 0 45 1q37 1 46 1q-37 -54 -103 -152q-14 -23 -14 -20q0 -2 8 -11t10 -13q35 -51 99 -146z" />
    <glyph glyph-name="guilsinglright" unicode="&#x203a;" horiz-adv-x="286" 
d="M278 254q-22 -30 -110 -171q-33 2 -68 2q-17 0 -44 -1q-37 -1 -46 -1q37 54 103 152q13 21 13 20q0 -3 -17 24q-35 51 -99 146q58 -2 82 -2q44 0 76 2q61 -102 110 -171z" />
    <glyph glyph-name="fraction" unicode="&#x2044;" horiz-adv-x="136" 
d="M328 691q-172 -278 -400 -702q-16 2 -43 2t-60 -2q195 323 396 701q12 -1 33 -1q4 0 74 2z" />
    <glyph glyph-name="Euro" unicode="&#x20ac;" horiz-adv-x="576" 
d="M572 161q-34 -170 -228 -170q-117 0 -185 61q-65 58 -70 157q-1 12 -9 12h-1q-54 0 -73 -1q18 58 26 103q11 -2 27 -2q17 0 17 9q0 1 -1 7.5t-1 12.5t1 13.5t1 8.5q0 6 -17 6q-22 0 -51 -2q12 37 28 106q9 -1 28 -1q22 0 26 17q25 104 103 159q71 51 168 51
q133 0 211 -55q-10 -36 -37 -124q-79 42 -146 42q-56 0 -84 -27q-23 -22 -23 -57q0 -3 7 -6q110 0 234 2q-12 -38 -31 -107q-84 2 -204 2h-6q-10 0 -12 -5t-2 -28q0 -17 2 -20.5t14 -3.5q115 0 194 2q-11 -35 -29 -105q-84 2 -157 2q-6 0 -8.5 -2t-2.5 -9q0 -38 19 -67.5
t44 -29.5q56 0 63 53q43 -5 115 -5q29 0 50 1z" />
    <glyph glyph-name="trademark" unicode="&#x2122;" horiz-adv-x="704" 
d="M678 393q-13 2 -40 2q-28 0 -48 -2q3 62 3 85q0 12 -1 33v31v10q1 7 1 10q0 2 -1 2q-2 0 -4 -7q-6 -23 -29 -79q-25 -59 -32 -85q-12 1 -39 1q-25 0 -34 -1q-25 84 -56 151l-1.5 10t-4.5 10q-2 0 -2 -6q0 -3 1 -8v-7v-79q0 -47 1 -71q-17 2 -46 2q-26 0 -41 -2
q3 46 3 136q0 93 -3 152q27 -2 55 -2q24 0 62 2q39 -101 63 -151l1.5 -9t4.5 -9l8 18q12 25 63 151q37 -2 61 -2q27 0 55 2q-4 -72 -4 -149q0 -79 4 -139zM280 617l-77 2q-14 0 -15 -15q-1 -43 -1 -102q0 -63 1 -109q-20 2 -42 2q-20 0 -52 -2q2 76 2 143q0 41 -1 70
q-1 13 -15 13h-1l-77 -2q3 19 3 31t-3 33q69 -3 148 -3q80 0 130 3q-3 -14 -3 -33t3 -31z" />
    <glyph glyph-name="notequal" unicode="&#x2260;" horiz-adv-x="576" 
 />
    <glyph glyph-name="fi" unicode="&#xf001;" horiz-adv-x="652" 
d="M613 572q-33 1 -98 1q-66 0 -96 -1q1 16 1 77q0 49 -1 65q56 -2 102 -2q47 0 92 2q-1 -25 -1 -61q0 -55 1 -81zM613 -1q-43 2 -98 2q-56 0 -96 -2q2 119 2 246q0 167 -2 285q41 -2 95 -2q35 0 99 2q-2 -176 -2 -323q0 -119 2 -208zM372 660q0 -38 -4 -64q-48 4 -50 4
q-37 0 -49 -19q-9 -13 -9 -48q0 -5 5 -5q41 0 100 2q-1 -19 -1 -51q0 -21 1 -60q-87 2 -95 2q-10 0 -10 -10l4 -412q-47 3 -89 3q-41 0 -101 -3q3 121 3 217q0 68 -3 198q0 7 -8 7q-38 0 -65 -1q1 15 1 56q0 40 -1 53q19 -1 64 -1q8 0 8 6v23q0 86 41.5 124.5t135.5 38.5
q77 0 121 -15q1 -16 1 -45z" />
    <glyph glyph-name="fl" unicode="&#xf002;" horiz-adv-x="652" 
d="M613 -1q-42 2 -105 2q-58 0 -89 -2q2 168 2 348q0 198 -2 367q58 -2 97 -2t97 2q-2 -202 -2 -384q0 -161 2 -331zM372 660q0 -38 -4 -64q-48 4 -50 4q-37 0 -49 -19q-9 -13 -9 -48q0 -5 5 -5q41 0 100 2q-1 -19 -1 -51q0 -21 1 -60q-87 2 -95 2q-10 0 -10 -10l4 -412
q-47 3 -89 3q-41 0 -101 -3q3 121 3 217q0 68 -3 198q0 7 -8 7q-38 0 -65 -1q1 15 1 56q0 40 -1 53q19 -1 64 -1q8 0 8 6v23q0 86 41.5 124.5t135.5 38.5q77 0 121 -15q1 -16 1 -45z" />
    <glyph glyph-name="HT" horiz-adv-x="530" 
 />
    <glyph glyph-name="nonmarkingreturn" horiz-adv-x="542" 
 />
    </font>
</defs>
</svg>
