<?xml version="1.0" standalone="no"?>
<!DOCTYPE svg PUBLIC "-//W3C//DTD SVG 1.1//EN" "http://www.w3.org/Graphics/SVG/1.1/DTD/svg11.dtd" >
<svg xmlns="http://www.w3.org/2000/svg" xmlns:xlink="http://www.w3.org/1999/xlink" version="1.1">
<metadata>
Created by FontForge 20201107 at Tue Feb 26 19:01:11 2002
 By 
Brown is a trademark of Shinn Type Foundry. Brown is published by Shinn Type Foundry. Copyright(c) 2002 by Nick Shinn.
</metadata>
<defs>
<font id="BrownLightItalic" horiz-adv-x="248" >
  <font-face 
    font-family="BrownLight"
    font-weight="400"
    font-style="italic"
    font-stretch="normal"
    units-per-em="1000"
    panose-1="0 0 4 0 0 0 0 0 0 0"
    ascent="800"
    descent="-200"
    x-height="500"
    cap-height="694"
    bbox="-228 -198 1054 903"
    underline-thickness="66"
    underline-position="-166"
    slope="-11"
    unicode-range="U+0020-F002"
  />
<missing-glyph horiz-adv-x="500" 
d="M63 0v753h375v-753h-375zM125 63h250v628h-250v-628z" />
    <glyph glyph-name=".notdef" horiz-adv-x="500" 
d="M63 0v753h375v-753h-375zM125 63h250v628h-250v-628z" />
    <glyph glyph-name="glyph1" horiz-adv-x="0" 
 />
    <glyph glyph-name="glyph2" horiz-adv-x="258" 
 />
    <glyph glyph-name="space" unicode=" " horiz-adv-x="258" 
 />
    <glyph glyph-name="exclam" unicode="!" horiz-adv-x="331" 
d="M311 695q-12 -56 -65 -260q-50 -196 -69 -261q-10 2 -22 2q-10 0 -28 -2q9 64 42 260q34 204 46 261q23 -4 50 -4q26 0 46 4zM179 92q-17 -54 -20 -92q-20 5 -40 5q-18 0 -47 -5q16 50 20 92q20 -2 40 -2q18 0 47 2z" />
    <glyph glyph-name="quotedbl" unicode="&#x22;" horiz-adv-x="364" 
d="M401 694q-46 -159 -73 -276q-13 3 -26 3q-12 0 -32 -3q29 154 44 276q19 -2 47 -2q26 0 40 2zM245 694q-44 -142 -73 -276q-12 2 -31 2t-28 -2q30 151 45 276q14 -2 40 -2q29 0 47 2z" />
    <glyph glyph-name="numbersign" unicode="#" horiz-adv-x="591" 
d="M616 495q-13 -26 -26 -71q-74 4 -89 4q-18 0 -25 -18q-49 -121 -49 -132q0 -6 9 -6q10 0 97 5q-14 -27 -24 -70q-51 4 -89 4q-19 0 -27 -22q-26 -74 -70 -196q-18 5 -38 5t-37 -5l79 204q2 6 2 8q0 8 -15 8h-96q-19 0 -24 -3t-11 -19q-26 -75 -70 -198q-17 5 -37 5
q-21 0 -39 -5q84 209 84 215q0 5 -7 5q8 0 -105 -5q16 32 26 69q60 -4 92 -4q13 0 17 3t9 16q48 118 48 132q0 5 -6 5q-4 0 -104 -5q12 26 27 70q3 0 40 -2q31 -1 49 -1q21 0 28 18q34 88 65 185q22 -3 39 -3q18 0 36 3q-51 -125 -75 -191q-3 -8 -3 -9q0 -4 5 -4h118
q13 0 17 3t9 16q14 37 66 185q22 -2 39 -2q18 0 34 2q-63 -159 -76 -194l-2 -6q0 -4 11 -4q-1 0 98 5zM413 423q0 6 -16 6h-104q-22 0 -30 -20q-48 -121 -48 -131q0 -6 8 -6h114q14 0 19 3.5t11 19.5q46 115 46 128z" />
    <glyph glyph-name="dollar" unicode="$" horiz-adv-x="545" 
d="M537 565q0 -18 -3 -37q-12 5 -37 5q-20 0 -35 -6q1 16 1 27q0 34 -15 50.5t-50 25.5l-12 3q-6 0 -9 -15l-41 -187q-4 -19 -4 -20q0 -8 22 -16q134 -48 134 -145q0 -20 -5 -44q-35 -165 -209 -194q-19 -3 -20 -3q-6 -3 -9 -15q-3 -21 -11 -64q-14 4 -30 4q-15 0 -31 -4
q6 22 16 66q1 5 1 8q0 7 -13 9q-136 17 -136 151q0 20 4 42q13 -4 35 -4q20 0 37 3q0 -2 -1 -9q-1 -15 -1 -19q0 -77 69 -99q9 -3 13 -3q9 0 14 21l48 219q2 9 2 16q0 9 -19 16q-119 46 -119 139q0 15 5 39q14 66 64 110t124 56q15 2 18.5 4t5.5 13q3 16 10 53q11 -6 29 -6
t29 6q-13 -55 -13 -61q0 -7 14 -8q128 -13 128 -127zM324 627q0 6 -8 6q-2 0 -10 -2q-91 -22 -107 -98q-3 -14 -3 -24q0 -49 60 -80q25 -13 23 -13q4 0 5 5t1.5 14t1.5 13q4 14 11 47q5 25 24 122zM415 225q0 58 -81 92q-2 1 -9.5 6.5t-10.5 5.5t-4 -6q-1 -12 -4 -32
q-2 -9 -41 -195q-2 -10 -2 -16q0 -7 6 -7q5 0 14 2q107 23 127 115q5 24 5 35z" />
    <glyph glyph-name="percent" unicode="%" horiz-adv-x="758" 
d="M401 579q0 -24 -8 -62q-18 -83 -67.5 -133.5t-116.5 -50.5q-53 0 -82 33.5t-29 91.5q0 29 6 57q18 86 67.5 137t116.5 51q113 0 113 -124zM731 694q-96 -115 -564 -694q-13 5 -32 5t-42 -5q143 168 563 694q17 -4 38 -4q20 0 37 4zM717 236q0 -28 -7 -61
q-18 -83 -67.5 -134t-116.5 -51q-53 0 -82 33.5t-29 91.5q0 29 6 57q18 86 67.5 137t116.5 51q112 0 112 -124zM336 583q0 68 -59 68q-78 0 -106 -133q-8 -38 -8 -63q0 -69 59 -69q78 0 105 127q9 42 9 70zM653 245q0 63 -59 63q-80 0 -108 -133q-7 -33 -7 -61q0 -71 59 -71
q78 0 105 128q10 47 10 74z" />
    <glyph glyph-name="ampersand" unicode="&#x26;" horiz-adv-x="727" 
d="M645 388q-50 -129 -140 -233q-18 -21 -18 -26q0 -7 8 -20q28 -46 71 -46q17 0 37 8q-6 -22 -14 -74q-29 -8 -55 -8q-70 0 -107 57q-12 18 -14 18q-1 0 -25 -18q-45 -33 -79.5 -45t-88.5 -12q-92 0 -139 50q-40 43 -40 109q0 23 4 42q31 146 184 206q24 9 24 13
q0 -4 -9 19q-22 57 -22 97q0 21 3 35q14 67 62 105q51 42 134 42q73 0 108 -38q29 -30 29 -78q0 -129 -184 -196q-5 -1 -15.5 -5t-10.5 -10q0 2 12 -25q25 -55 71 -136q4 -7 9 -24q4 -12 7 -12q4 0 25 28q51 68 94 176q12 -3 40 -3q19 0 39 4zM483 582q0 63 -76 63
q-88 0 -105 -78q-3 -14 -3 -26q0 -28 18 -83q7 -21 18 -21q7 0 22 6q58 24 86.5 48.5t37.5 66.5q2 9 2 24zM391 123q0 2 -6 11q-4 5 -9 13q-51 93 -52 94q-22 43 -39 85q-11 27 -16 27q-6 0 -23 -8q-54 -26 -81 -58t-38 -83q-5 -24 -5 -45q0 -102 109 -102q43 0 65 6
q30 9 68 38q2 2 16 11q11 7 11 11z" />
    <glyph glyph-name="quotesingle" unicode="'" horiz-adv-x="207" 
d="M245 694q-41 -139 -73 -276q-8 2 -27 2t-32 -2q28 153 45 276q18 -3 44 -3q24 0 43 3z" />
    <glyph glyph-name="parenleft" unicode="(" horiz-adv-x="354" 
d="M405 717q-111 -122 -173 -277q-64 -158 -64 -319q0 -144 53 -273q-8 1 -28 1t-28 -1q-76 139 -76 299q0 154 71 307q68 145 188 263q8 -1 28 -1q21 0 29 1z" />
    <glyph glyph-name="parenright" unicode=")" horiz-adv-x="354" 
d="M289 428q0 -154 -75 -312q-69 -146 -188 -268q-18 2 -30 2q-13 0 -26 -2q108 128 172 281q69 167 69 324q0 143 -59 264q10 -2 28 -2q19 0 31 2q78 -132 78 -289z" />
    <glyph glyph-name="asterisk" unicode="*" horiz-adv-x="426" 
d="M468 545q-63 -14 -121 -31q-9 -1 -28 -5q-10 -3 -10 -9q0 -3 7 -11t8 -10q24 -46 57 -103q-29 -10 -59 -35q-14 36 -44 104q-3 8 -6 17t-8 9q-4 0 -10 -8q-9 -13 -10 -14q-47 -52 -96 -109q-20 26 -44 40q43 39 104 102q6 4 16 12q6 5 6 10q0 3 -5 5q-8 1 -20 3
q-65 20 -115 32q24 31 34 61q38 -18 105 -41q3 -1 12 -6t13 -5q10 0 10 16v9q0 9 1 15q10 59 16 114q18 -3 35 -3q16 0 31 3q-10 -35 -31 -122q-1 -3 -5.5 -13t-4.5 -14q0 -5 8 -5q-5 0 28 10q52 15 118 41q-1 -6 -1 -14q0 -22 9 -45z" />
    <glyph glyph-name="plus" unicode="+" horiz-adv-x="570" 
d="M518 288q-13 -27 -15 -70l-183 2q-9 0 -10 -7.5t-4 -21.5l-34 -179q-21 6 -35 6q-15 0 -34 -6l41 176q7 30 7 25q0 7 -6 7h-10q-8 -1 -11 -1l-164 -2q14 33 15 71l164 -4q2 0 9 -1h11q7 0 8.5 8.5t3.5 21.5l34 178q19 -3 36 -3q18 0 33 3l-42 -177q-1 -6 -3 -11
q-3 -9 -3 -13q0 -7 6 -7h11q8 1 9 1z" />
    <glyph glyph-name="comma" unicode="," horiz-adv-x="241" 
d="M140 97q-39 -123 -102 -248q-9 1 -18 1q-10 0 -38 -2q48 117 76 249q23 -2 42 -2q20 0 40 2z" />
    <glyph glyph-name="hyphen" unicode="-" horiz-adv-x="273" 
d="M247 300q-14 -41 -15 -67q-44 3 -100 3q-53 0 -87 -3q12 31 14 67q46 -4 99 -4q52 0 89 4z" />
    <glyph glyph-name="hyphen" unicode="&#x2010;" horiz-adv-x="273" 
d="M247 300q-14 -41 -15 -67q-44 3 -100 3q-53 0 -87 -3q12 31 14 67q46 -4 99 -4q52 0 89 4z" />
    <glyph glyph-name="period" unicode="." horiz-adv-x="241" 
d="M137 97q-17 -57 -21 -97q-20 5 -40 5q-18 0 -47 -5q16 52 21 97q20 -2 40 -2q18 0 47 2z" />
    <glyph glyph-name="slash" unicode="/" horiz-adv-x="429" 
d="M486 709q-258 -436 -484 -830q-18 4 -35 4q-16 0 -33 -4q216 359 481 829q13 -3 32 -3q21 0 39 4z" />
    <glyph glyph-name="zero" unicode="0" horiz-adv-x="537" 
d="M543 506q0 -184 -67 -331q-86 -187 -243 -187q-176 0 -176 193q0 182 70 332q88 188 245 188q171 0 171 -195zM466 503q0 62 -19 92q-24 39 -84 39q-78 0 -128 -76q-39 -60 -70 -181q-29 -114 -29 -195q0 -42 10 -70q21 -58 94 -58q81 0 128 69q39 58 69 182
q29 117 29 198z" />
    <glyph glyph-name="one" unicode="1" horiz-adv-x="338" 
d="M342 694q-46 -205 -80 -366q-45 -210 -68 -328q-17 6 -38 6t-43 -6q44 188 73 328l37 176q4 12 10 34q2 7 2 14q0 5 -3 5q-4 0 -16 -10q-15 -11 -22 -14q-67 -28 -113 -35q14 33 15 67q70 18 109 41q49 30 89 88q7 -3 22 -3q16 0 26 3z" />
    <glyph glyph-name="two" unicode="2" horiz-adv-x="537" 
d="M534 551q0 -117 -107 -224q-97 -97 -295 -226q-15 -8 -40 -23q-8 -6 -8 -9q0 -4 10 -4q5 0 18 2t19 2q54 0 92 1q102 2 215 6q-15 -39 -16 -76q-80 4 -197 4q-112 0 -222 -4q10 24 13 94q81 53 221 153q109 88 143 126q75 84 75 170q0 92 -111 92q-128 0 -162 -141
l-6 -25q-15 6 -37 6q-15 0 -40 -6q17 101 85 165q71 68 171 68q83 0 131 -40.5t48 -110.5z" />
    <glyph glyph-name="three" unicode="3" horiz-adv-x="537" 
d="M530 546q0 -123 -115 -175q-12 -4 -25 -7q-19 -6 -19 -11q0 -3 9 -6q13 -3 31 -8q68 -34 68 -123q0 -107 -82 -169q-74 -58 -187 -58q-87 0 -133.5 42t-46.5 113q0 24 6 53q23 -6 42 -6q20 0 37 6q-4 -22 -4 -45q0 -97 109 -97q81 0 129.5 44t48.5 121q0 51 -32 78
t-86 27q-43 0 -88 -3q10 26 14 67q65 -4 86 -4q74 0 118.5 42t44.5 113q0 95 -110 95q-66 0 -103 -33q-33 -29 -51 -93q-21 6 -40 6q-20 0 -38 -6q27 93 91 143t152 50q83 0 130 -47q44 -43 44 -109z" />
    <glyph glyph-name="four" unicode="4" horiz-adv-x="537" 
d="M499 225q-4 -9 -10 -28q-5 -24 -5 -43v-1q-38 2 -79 2q-16 0 -21 -4t-9 -22q-14 -64 -25 -129q-24 5 -39 5q-21 0 -40 -5q18 76 29 128q2 9 2 15q0 13 -24 13q-167 0 -261 -3q17 50 18 78q122 158 352 463q28 -5 59 -5q26 0 50 5q-35 -152 -97 -445q-3 -14 -3 -15
q0 -11 20 -11q10 0 40.5 1t42.5 1zM403 609q0 6 -4 6q-7 0 -16 -14q-19 -31 -39 -57q-1 -2 -117 -163q-87 -119 -115 -145q-6 -5 -6 -10q0 -4 6 -4q3 0 10 1t10 1h28h68q43 -1 68 -1q24 0 30 25q8 35 24 106q7 33 18.5 92t17.5 86q4 18 13 58q4 16 4 19z" />
    <glyph glyph-name="five" unicode="5" horiz-adv-x="526" 
d="M540 694q-18 -38 -19 -73q-191 3 -268 3q-17 0 -21 -4t-9 -24q-14 -63 -41 -155l-9 -20q0 -5 6 -5q4 0 12 7q54 46 134 46q77 0 119 -42t42 -119q0 -131 -72 -221q-78 -97 -207 -97q-171 0 -171 149q0 24 7 59q16 -5 35 -5q18 0 42 5q-6 -28 -6 -52q0 -89 102 -89
q94 0 147 77q46 67 46 165q0 103 -113 103q-50 0 -81 -12q-34 -14 -66 -51q-19 10 -58 11q23 64 80 306l9 38q39 -3 128 -3q43 0 232 3z" />
    <glyph glyph-name="six" unicode="6" horiz-adv-x="537" 
d="M545 570q0 -20 -6 -49q-25 6 -38 6q-27 0 -44 -6q4 23 4 42q0 38 -18.5 55t-65.5 17q-71 0 -114.5 -37.5t-74.5 -130.5q-8 -23 -21 -61q-4 -14 -15 -46q-8 -19 -8 -25q0 -4 2 -4q1 0 10 11q24 29 32 38q20 21 38 33q47 31 110 31q75 0 117.5 -42.5t42.5 -115.5
q0 -122 -69 -206q-75 -91 -194 -91q-176 0 -176 199q0 59 15 130q35 165 92 254q83 130 221 130q160 0 160 -132zM416 274q0 102 -100 102q-46 0 -89.5 -24t-70.5 -64q-23 -34 -23 -107q0 -124 111 -124q85 0 132 69q40 59 40 148z" />
    <glyph glyph-name="seven" unicode="7" horiz-adv-x="495" 
d="M552 694q-8 -30 -14 -67q-284 -285 -357 -627q-17 3 -38 3t-44 -3q69 326 337 598q7 6 21 17q7 6 7 9t-8 3q-5 0 -18 -1.5t-18 -1.5h-90q-141 0 -227 -6q12 33 18 76q175 -2 293 -2q99 0 138 2z" />
    <glyph glyph-name="eight" unicode="8" horiz-adv-x="537" 
d="M535 566q0 -124 -113 -183l-29 -9q-23 -8 -23 -13t18 -9t27 -9q70 -39 70 -117q0 -110 -74.5 -173.5t-185.5 -63.5q-91 0 -142 37.5t-51 105.5q0 71 37 126t103 85q15 3 41 10q12 3 12 9q0 5 -11.5 9t-31.5 12q-54 37 -54 99q0 97 70 160q67 60 166 60q79 0 125 -36.5
t46 -99.5zM456 555q0 80 -100 80q-73 0 -112 -43t-39 -116q0 -79 99 -79q72 0 112 43t40 115zM412 226q0 104 -120 104q-80 0 -132 -52t-52 -131q0 -90 124 -90q85 0 132.5 43t47.5 126z" />
    <glyph glyph-name="nine" unicode="9" horiz-adv-x="537" 
d="M527 503q0 -55 -16 -130q-35 -164 -92 -254q-82 -130 -220 -130q-160 0 -160 132q0 24 5 49q25 -6 39 -6q26 0 43 6q0 -5 -1 -16q-2 -16 -2 -26q0 -38 18.5 -55t65.5 -17q71 0 114.5 37.5t74.5 130.5q8 23 20 61q4 14 15 46q9 22 9 25q0 4 -2 4t-11 -11q-27 -33 -32 -38
q-19 -21 -37 -33q-47 -31 -110 -31q-75 0 -117.5 42.5t-42.5 115.5q0 122 69 206q74 91 193 91q177 0 177 -199zM451 510q0 124 -111 124q-85 0 -132 -69q-41 -59 -41 -148q0 -102 101 -102q46 0 89.5 24t70.5 64q23 34 23 107z" />
    <glyph glyph-name="colon" unicode=":" horiz-adv-x="241" 
d="M215 467q-16 -52 -20 -97q-20 5 -40 5q-18 0 -47 -5q15 47 20 97q20 -2 40 -2q18 0 47 2zM137 97q-17 -57 -21 -97q-20 5 -40 5q-18 0 -47 -5q16 52 21 97q20 -2 40 -2q18 0 47 2z" />
    <glyph glyph-name="semicolon" unicode=";" horiz-adv-x="241" 
d="M215 467q-16 -52 -20 -97q-20 5 -40 5q-18 0 -47 -5q15 47 20 97q20 -2 40 -2q18 0 47 2zM138 92q-41 -129 -101 -248q-9 1 -19 1q-9 0 -37 -2q48 117 76 249q23 -2 42 -2t39 2z" />
    <glyph glyph-name="less" unicode="&#x3c;" horiz-adv-x="570" 
d="M569 517q-14 -43 -16 -76q-123 -50 -342 -148q-23 -6 -60 -20q-10 -6 -10 -12t11 -12q16 -6 45 -19q159 -89 280 -147q-13 -27 -15 -70q-172 104 -401 222q10 29 13 62q221 92 495 220z" />
    <glyph glyph-name="equal" unicode="=" horiz-adv-x="570" 
d="M538 386q-10 -24 -14 -67q-87 2 -240 2q-142 0 -203 -2q14 34 15 67q172 -4 238 -4q80 0 204 4zM498 196q-14 -39 -14 -68q-129 4 -239 4q-111 0 -204 -4q7 17 11 34q3 12 3 34q62 -2 205 -2q151 0 238 2z" />
    <glyph glyph-name="greater" unicode="&#x3e;" horiz-adv-x="570" 
d="M522 295q-10 -29 -13 -62q-221 -92 -495 -220q15 39 15 71v5q133 54 343 148q18 6 52 17q18 7 18 15t-19 16q-14 4 -38 15q-159 89 -280 147q14 29 16 70q172 -104 401 -222z" />
    <glyph glyph-name="question" unicode="?" horiz-adv-x="493" 
d="M513 563q0 -27 -6 -55q-15 -69 -54.5 -112.5t-117.5 -82.5q-44 -22 -62.5 -42t-28.5 -59q-1 -5 -7 -32q-18 4 -36 4q-15 0 -38 -4q2 9 5 24q21 88 80 131q52 28 104 57q57 36 73 110q6 28 6 51q0 82 -102 82q-60 0 -92 -21t-50 -76q-3 -9 -9 -34q-14 3 -35 3
q-17 0 -40 -4q5 28 11 46q52 153 228 153q81 0 126 -35.5t45 -103.5zM226 92q-17 -51 -20 -92q-27 5 -45 5q-19 0 -42 -5q17 41 19 92q18 -2 46 -2q27 0 42 2z" />
    <glyph glyph-name="at" unicode="@" horiz-adv-x="754" 
d="M736 467q0 -43 -10 -90q-22 -103 -80.5 -169t-128.5 -66q-53 0 -69 37q-1 3 -2 19q0 13 -5 13q-4 0 -12 -11q-11 -15 -13 -17q-40 -39 -90 -39q-87 0 -87 101q0 22 6 50q21 98 84 167t131 69q48 0 60 -38q3 -10 7 -10q6 0 14 44q12 -2 30 -2q17 0 28 2q-38 -110 -89 -260
q-4 -10 -8 -23q-2 -9 -2 -16q0 -34 35 -34q45 0 83 50t55 132q9 42 9 77q0 93 -52 148.5t-142 55.5q-115 0 -210.5 -90.5t-124.5 -225.5q-9 -42 -9 -79q0 -104 60 -168t161 -64q91 0 195 56v-2q0 -20 10 -39q-67 -39 -112.5 -52.5t-110.5 -13.5q-123 0 -195.5 73.5
t-72.5 194.5q0 44 10 91q34 160 150 265t260 105q111 0 174 -65t63 -176zM501 438q0 42 -46 42q-43 0 -83 -51.5t-56 -126.5q-4 -19 -4 -38q0 -60 40 -60q48 0 89 70q14 23 41 96q19 50 19 68z" />
    <glyph glyph-name="A" unicode="A" horiz-adv-x="593" 
d="M525 0q-18 5 -40 5t-49 -5q-1 12 -13 147q-1 13 -5 16.5t-18 3.5q-75 2 -141 2q-37 0 -88 -1q-22 0 -29 -4t-14 -18l-74 -146q-24 5 -46 5t-42 -5q157 286 374 695q24 -4 60 -4q28 0 44 3q3 -43 81 -694zM417 242q0 2 -2 8.5t-2 10.5q-1 12 -20 170q-13 105 -13 169v14
q-1 10 -4 10q-5 0 -9 -10q-14 -36 -22 -51q-51 -95 -157 -300q-3 -6 -12 -18q-4 -5 -4 -7q0 -4 8 -4q4 0 11 1t9 1q50 1 97 1q48 0 94 -1q2 0 8 -1t9 -1q9 0 9 8z" />
    <glyph glyph-name="B" unicode="B" horiz-adv-x="587" 
d="M572 559q0 -144 -138 -188q-11 -2 -23 -4q-18 -3 -18 -7q0 -3 7 -5q12 -1 32 -4q94 -24 94 -130q0 -103 -73 -164q-68 -57 -173 -57q-25 0 -73.5 1.5t-73.5 1.5q-56 0 -99 -3q97 424 148 694q23 -3 69 -3q26 0 79.5 1.5t79.5 1.5q162 0 162 -135zM485 548q0 77 -111 77
q-11 0 -107 -3q-16 -1 -19.5 -4.5t-8.5 -22.5q-13 -55 -35 -155l-5 -25q-1 -5 -1 -11q0 -13 16 -13q11 0 96 2q146 3 171 119q4 19 4 36zM441 230q0 92 -138 96q-77 2 -105 2q-19 0 -24 -24l-5 -22q-18 -80 -34 -174q-2 -12 -2 -17q0 -22 37 -23q41 -1 95 -1q81 0 128.5 42
t47.5 121z" />
    <glyph glyph-name="C" unicode="C" horiz-adv-x="586" 
d="M588 466q-12 2 -33 2q-26 0 -47 -3q6 31 6 52q0 111 -111 111q-91 0 -148 -64q-61 -70 -95 -228q-16 -75 -16 -127q0 -151 127 -151q149 0 190 181q17 -6 40 -6q18 0 38 4q-8 -43 -22 -77q-34 -81 -100 -125.5t-152 -44.5q-202 0 -202 207q0 57 16 132q79 370 335 370
q182 0 182 -162q0 -33 -8 -71z" />
    <glyph glyph-name="D" unicode="D" horiz-adv-x="628" 
d="M593 341q-72 -341 -336 -341h-17q-21 0 -73 1.5t-71 1.5q-37 0 -62 -3q36 156 74 334q41 195 74 360q45 -3 72 -3q22 0 56.5 1.5t47.5 1.5h14q235 0 235 -231q0 -56 -14 -122zM526 454q0 172 -183 172q-7 0 -72 -1q-17 0 -22.5 -5.5t-9.5 -22.5q-25 -105 -57 -257
q-25 -117 -43 -211q-5 -26 -5 -35q0 -14 9 -19t36 -6q19 -1 41 -1q132 0 200 69q62 62 92 205q14 66 14 112z" />
    <glyph glyph-name="E" unicode="E" horiz-adv-x="539" 
d="M554 693q-11 -38 -16 -78q-103 3 -257 3q-25 0 -31 -3.5t-10 -21.5q-12 -54 -36 -163l-5 -22q-2 -9 -2 -13q0 -9 25 -9h19q60 0 237 4q-15 -42 -16 -78q-102 3 -200 3h-55q-19 0 -23.5 -3.5t-8.5 -19.5l-5 -20q-4 -16 -35 -173q-2 -10 -2 -13q0 -11 26 -11q187 0 274 4
q-16 -46 -17 -79q-70 4 -180 4q-113 0 -202 -4q74 320 148 693q84 -4 193 -4t179 4z" />
    <glyph glyph-name="F" unicode="F" horiz-adv-x="491" 
d="M554 693q-7 -23 -10 -37.5t-6 -40.5q-121 3 -240 3h-26q-18 0 -23 -4t-9 -21q-11 -50 -34 -153l-7 -32q-1 -5 -1 -12q0 -10 24 -10q79 0 256 4q-15 -42 -16 -78q-102 3 -255 3q-17 0 -23 -4t-9 -19q-33 -154 -60 -292q-19 3 -39 3t-42 -3q74 320 148 693q84 -4 211 -4
q91 0 161 4z" />
    <glyph glyph-name="G" unicode="G" horiz-adv-x="607" 
d="M607 534q0 -28 -7 -62q-13 2 -38 2t-42 -2q3 21 3 42q0 117 -115 117q-188 0 -252 -299q-14 -66 -14 -119q0 -159 130 -159q100 0 156 52q22 21 28.5 34t16.5 59t10 60q0 16 -21 16q-69 0 -132 -4q10 29 15 73q54 -3 121 -3q66 0 111 3q-30 -133 -50 -235
q-65 -69 -125.5 -95.5t-144.5 -26.5q-195 0 -195 213q0 58 16 133q78 368 344 368q84 0 134.5 -43t50.5 -124z" />
    <glyph glyph-name="H" unicode="H" horiz-adv-x="645" 
d="M657 694q-92 -413 -148 -694q-18 5 -35 5q-16 0 -40 -5q25 104 62 286l2 13q1 7 1 9q0 13 -22 14q-39 1 -144 1q-87 0 -130 -1q-21 0 -26 -21l-4 -15q-15 -58 -59 -286q-18 5 -36 5q-17 0 -42 -5q77 333 148 694q20 -4 39 -4q20 0 39 4q-34 -143 -58 -262l-3 -15
q-2 -10 -2 -13q0 -12 19 -12q81 -2 136 -2q76 0 143 2q22 1 27 26l3 16q19 91 54 260q16 -3 35 -3q20 0 41 3z" />
    <glyph glyph-name="I" unicode="I" 
d="M263 694l-80 -362q-35 -164 -68 -332q-20 5 -38 5q-19 0 -45 -5q37 159 74 332q35 164 74 362q16 -4 37 -4t46 4z" />
    <glyph glyph-name="J" unicode="J" horiz-adv-x="515" 
d="M529 694q-20 -86 -55 -251q-8 -38 -23 -115t-23 -115q-24 -114 -74 -165q-58 -59 -168 -59q-77 0 -117 40t-40 109q0 44 17 104q23 -4 41 -4q20 0 37 4q-3 -11 -8 -31q-7 -33 -7 -62q0 -93 85 -93q70 0 104 38q31 35 54 130q10 43 42 192q37 176 58 278q20 -4 39 -4
q17 0 38 4z" />
    <glyph glyph-name="K" unicode="K" horiz-adv-x="565" 
d="M622 694q-101 -94 -295 -277q-19 -18 -62 -54q-10 -7 -10 -10t9 -11t42 -62q62 -98 177 -280q-26 4 -52 4t-44 -4l-147 246q-16 26 -45 75l-9 17q-4 0 -7 -12q-6 -39 -17 -100l-49 -226q-23 5 -40 5t-37 -5q36 155 74 334q40 190 74 360q16 -3 35 -3q20 0 42 3l-54 -245
q-17 -77 -17 -74q0 -5 3 -5l15 15q27 27 85 83q90 86 236 226q12 -3 29 -3q-5 0 64 3z" />
    <glyph glyph-name="L" unicode="L" horiz-adv-x="452" 
d="M389 79q-16 -40 -17 -79q-70 4 -167 4q-83 0 -171 -4q51 227 84 384q41 191 64 310q22 -4 41 -4q21 0 38 4q-36 -156 -75 -339q-5 -22 -51 -251q-3 -15 -3 -17q0 -12 17 -12h19q139 0 221 4z" />
    <glyph glyph-name="M" unicode="M" horiz-adv-x="805" 
d="M815 694q-36 -165 -66 -304q-50 -236 -81 -390q-17 5 -36 5q-18 0 -44 -5q72 327 93 432q23 82 51 188q1 5 1 7q0 4 -3 4q-7 0 -29 -47q-24 -51 -65 -135q-70 -124 -212 -379q-9 -16 -36 -70q-16 4 -37 4t-44 -4q-3 43 -6 70q-22 149 -53 377q-6 49 -6 119v25q0 37 -7 37
q-4 0 -7 -12q-12 -80 -40 -235l-79 -381q-22 5 -40 5t-37 -5q42 185 69 311q35 165 79 383q28 -4 61 -4q31 0 53 4q8 -84 68 -528q1 -7 1 -22v-14q-1 -9 -1 -14v-18q0 -14 3 -14q4 0 12 21q20 52 26 63q205 362 288 526q28 -4 65 -4t59 4z" />
    <glyph glyph-name="N" unicode="N" horiz-adv-x="659" 
d="M673 694q-41 -176 -72 -325l-78 -369q-29 4 -58 4q-28 0 -50 -4q-82 313 -144 532q-5 25 -14 67q-6 29 -13 29q-6 0 -10 -17q-4 -35 -14 -99l-40 -185q-31 -145 -67 -327q-17 5 -36 5q-20 0 -44 -5q41 178 73 327q39 185 75 367q29 -4 65 -4q35 0 59 4q16 -62 138 -496
q8 -27 15 -80q5 -39 11 -39q4 0 7 14q4 39 15 110l103 491q23 -5 42 -5t37 5z" />
    <glyph glyph-name="O" unicode="O" horiz-adv-x="645" 
d="M625 478q0 -61 -17 -141q-74 -350 -333 -350q-209 0 -209 226q0 58 16 133q36 171 122 263t217 92q204 0 204 -223zM545 461q0 173 -134 173q-190 0 -251 -291q-14 -66 -14 -124q0 -166 134 -166q87 0 150 68q69 73 100 219q15 71 15 121z" />
    <glyph glyph-name="P" unicode="P" horiz-adv-x="544" 
d="M557 529q0 -29 -7 -62q-44 -207 -281 -207h-43q-29 1 -43 1q-15 0 -19 -16l-5 -22q-15 -64 -45 -223q-25 5 -42 5q-18 0 -38 -5q34 144 70 316q48 224 78 378q27 -2 62 -2q22 0 60.5 1t60.5 1q91 0 141.5 -43t50.5 -122zM473 514q0 110 -117 110q-18 0 -88 -3
q-22 -1 -26 -18q-20 -80 -34 -149l-20 -97q-2 -10 -2 -13q0 -11 14 -12q24 -1 64 -1q94 0 141 33.5t64 111.5q4 19 4 38z" />
    <glyph glyph-name="Q" unicode="Q" horiz-adv-x="645" 
d="M625 478q0 -165 -68 -299q-81 -159 -225 -187q-18 -3 -18 -41q0 -41 81 -41q20 0 54 6q-9 -23 -13 -43q-3 -12 -5 -39v0q-35 -8 -69 -8q-125 0 -125 103q0 18 5 41q1 5 1 12q0 6 -10 8q-166 26 -166 229q0 56 15 127q34 158 113 250q91 105 226 105q204 0 204 -223z
M544 459q0 175 -133 175q-190 0 -251 -291q-14 -66 -14 -120q0 -170 134 -170q97 0 165 87q59 76 85 200q14 66 14 119z" />
    <glyph glyph-name="R" unicode="R" horiz-adv-x="566" 
d="M569 544q0 -73 -37 -127q-41 -60 -118 -82q-10 -1 -28 -3q-10 -2 -10 -6q0 -3 11 -6q27 -7 41 -23q23 -26 29.5 -66.5t14.5 -230.5q-15 3 -39 3q-26 0 -46 -3q1 67 1 88q0 107 -12 145.5t-33 50.5q-24 13 -85 13h-54q-22 0 -27.5 -3.5t-8.5 -23.5l-1 -6
q-23 -108 -54 -264q-13 3 -35 3q-24 0 -44 -3q17 76 70 326l78 368q25 -2 97 -2q21 0 54.5 1t54.5 1q91 0 138 -44q43 -39 43 -106zM486 536q0 89 -129 89q-34 0 -83 -3q-30 -2 -35 -25q-3 -14 -45 -207q-2 -9 -2 -13q0 -12 29 -12h45q35 0 56 2q77 7 120.5 50t43.5 119z
" />
    <glyph glyph-name="S" unicode="S" horiz-adv-x="557" 
d="M563 562q0 -33 -17 -84q-15 3 -37 3q-24 0 -44 -3q12 48 12 64q0 92 -113 92q-65 0 -110 -36q-49 -39 -49 -101q0 -57 75 -93q70 -32 140 -63q75 -46 75 -124q0 -111 -78 -173q-72 -58 -188 -58q-87 0 -138 38q-55 41 -55 118q0 40 16 89q14 -3 37 -3q25 0 45 3
q-12 -35 -12 -69q0 -105 124 -105q70 0 117 37q51 40 51 108q0 54 -74 89q-69 31 -139 63q-74 46 -74 126q0 49 18 91q28 64 91 100t143 36q78 0 128 -36q56 -40 56 -109z" />
    <glyph glyph-name="T" unicode="T" horiz-adv-x="468" 
d="M551 693q-13 -40 -16 -78q-15 0 -73 2q-45 2 -77 2h-17q-14 0 -18 -17q-8 -34 -28 -123q-64 -301 -100 -479q-19 5 -36 5t-43 -5q37 168 103 477q29 136 29 131q0 11 -15 11h-19q-25 0 -70 -2q-53 -2 -74 -2q12 37 16 78q98 -4 219 -4q122 0 219 4z" />
    <glyph glyph-name="U" unicode="U" horiz-adv-x="614" 
d="M628 694q-8 -33 -39 -181q-16 -87 -57 -271l-1 -4q-33 -133 -96 -192t-180 -59q-179 0 -179 164q0 43 9 79l2 8q8 32 52 239q16 74 45 217q25 -5 41 -5q18 0 37 5q-12 -54 -46 -212q-32 -152 -51 -245q-9 -45 -9 -76q0 -106 108 -106q78 0 123 45t66 140l58 263
q25 119 39 191q23 -5 43 -5q17 0 35 5z" />
    <glyph glyph-name="V" unicode="V" horiz-adv-x="590" 
d="M672 694q-153 -284 -372 -694q-24 4 -60 4q-28 0 -44 -3q-31 258 -83 693q26 -5 48 -5t39 5q20 -244 57 -561q1 -9 1 -28v-10q-1 -8 -1 -14q0 -10 4 -10q6 0 10 10q7 19 21 51q171 320 291 562q17 -5 41 -5q25 0 48 5z" />
    <glyph glyph-name="W" unicode="W" horiz-adv-x="885" 
d="M968 694q-118 -260 -310 -694q-15 5 -49 5q-39 0 -64 -5q-1 49 -23 435q-2 34 -2 53q0 34 4 79t4 36q0 9 -5 9t-20 -45q-18 -54 -55 -131q-80 -162 -211 -436q-16 5 -48 5q-36 0 -60 -5q-4 243 -16 694q17 -5 36 -5t45 5q0 -30 3 -251q2 -182 2 -274v-8q0 -12 -1.5 -35
t-1.5 -35v-9q0 -11 4 -11t8 11q24 59 37 87q97 199 249 525q17 -5 48 -5q30 0 45 5q2 -128 22 -525v-8q0 -12 -1.5 -35t-1.5 -35v-9q0 -11 4 -11t8 11q24 59 37 87q90 201 229 525q15 -5 37 -5t47 5z" />
    <glyph glyph-name="X" unicode="X" horiz-adv-x="543" 
d="M612 694q-91 -113 -251 -314q-15 -19 -15 -28t3 -17q41 -110 124 -335q-32 4 -53 4q-23 0 -41 -4l-74 233q-4 10 -12 36q-4 20 -8 20l-16 -20q-7 -10 -25 -33q-53 -72 -180 -236q-14 5 -36 5q-14 0 -59 -5q98 121 268 336q14 18 14 28q0 4 -2 10q-21 64 -115 320
q36 -4 51 -4q20 0 37 4q48 -154 72 -216q4 -20 14 -48q2 -3 5 -3q5 0 16 17t28 39q4 5 159 211q14 -4 38 -4q23 0 58 4z" />
    <glyph glyph-name="Y" unicode="Y" horiz-adv-x="556" 
d="M638 694q-109 -140 -279 -364q-22 -30 -29.5 -47t-15.5 -56q-12 -56 -48 -227q-16 5 -34 5q-16 0 -43 -5l49 224q8 38 8 58q0 19 -9 48q-47 135 -124 364q26 -4 42 -4q18 0 42 4q26 -88 86 -275q10 -33 11 -49.5t5 -16.5t12.5 17.5t31.5 48.5q78 102 205 275q20 -4 42 -4
q23 0 48 4z" />
    <glyph glyph-name="Z" unicode="Z" horiz-adv-x="482" 
d="M543 694q-5 -23 -13 -60l-426 -543q-4 -6 -15 -15q-6 -5 -6 -8q0 -2 5 -2q4 0 18 2t19 2l291 7q-7 -26 -16 -77l-264 4q-125 0 -154 -4q7 24 15 67l374 477q13 16 45 51q20 19 20 25t-18 6h-46q-44 0 -133 -3q-96 -4 -117 -4q12 32 16 75l257 -4q61 0 148 4z" />
    <glyph glyph-name="bracketleft" unicode="[" horiz-adv-x="354" 
d="M379 717q-6 -24 -10 -50l-82 2q-13 0 -16 -15q-46 -209 -82 -378q-29 -136 -75 -362q-1 -5 -1 -7q0 -11 12 -11q22 0 82 1q-8 -22 -11 -49q-48 2 -83 2t-85 -2q44 196 94 431q53 252 91 438q25 -1 85 -1q59 0 81 1z" />
    <glyph glyph-name="backslash" unicode="\" horiz-adv-x="429" 
d="M303 -121q-15 4 -32 4t-37 -4q-69 466 -130 831q16 -4 37 -4q19 0 33 3q64 -464 129 -830z" />
    <glyph glyph-name="bracketright" unicode="]" horiz-adv-x="354" 
d="M337 717q-41 -184 -93 -427q-57 -269 -92 -442q-25 1 -85 1q-59 0 -81 -1q6 24 10 50l82 -2q13 0 16 15q50 228 83 382q24 115 74 358q1 5 1 7q0 11 -12 11q-22 0 -82 -1q8 22 11 49q48 -2 83 -2t85 2z" />
    <glyph glyph-name="asciicircum" unicode="^" horiz-adv-x="555" 
d="M544 325q-11 2 -32 2q-19 0 -33 -2q-53 157 -105 276q-2 8 -4.5 17t-7.5 9t-11 -9l-12 -18q-103 -124 -220 -275q-14 2 -35 2t-32 -2q162 192 286 357q14 -2 35 -2q22 0 34 2q52 -150 137 -357z" />
    <glyph glyph-name="underscore" unicode="_" horiz-adv-x="555" 
d="M488 -72l-12 -58h-552l12 58h552z" />
    <glyph glyph-name="grave" unicode="`" 
d="M285 578q-8 1 -29 1q-20 0 -29 -1q-31 51 -88 143q25 2 52 2t47 -2q17 -51 47 -143z" />
    <glyph glyph-name="a" unicode="a" horiz-adv-x="503" 
d="M454 397q0 -25 -7 -58q-16 -71 -41 -188q-4 -18 -19 -151q-51 0 -78 -4q0 3 14 67q2 9 2 10q0 4 -2 4q-3 0 -14 -16q-49 -74 -150 -74q-129 0 -129 110q0 21 4 40q16 75 68 113q40 30 110 41q6 1 116 11q39 3 44 33l2 11q5 28 5 38q0 63 -84 63q-57 0 -83.5 -17
t-34.5 -55q-1 -8 -3 -21q-16 3 -37 3q-16 0 -36 -3q1 8 2 20q15 71 72 108q52 33 129 33q150 0 150 -118zM357 251q0 3 -3 3q1 0 -12 -3q-24 -5 -65 -9q-23 -2 -66 -8q-88 -19 -106 -104q-2 -9 -2 -21q0 -60 77 -60q56 0 105 48q46 45 58 101q1 3 8 28q6 21 6 25z" />
    <glyph glyph-name="b" unicode="b" horiz-adv-x="535" 
d="M491 347q0 -51 -12 -107q-53 -250 -243 -250q-77 0 -106 45q-3 4 -11 24q-5 14 -10 14q-4 0 -7 -23q-5 -31 -13 -50q-12 2 -37 2q-16 0 -33 -2q16 54 36 128q78 345 124 581q22 -5 37 -5q16 0 37 5l-48 -217q-5 -19 -14 -56q-1 -5 -1 -6q0 -3 2 -3t24 28q45 59 132 59
q143 0 143 -167zM414 340q0 107 -97 107q-41 0 -78 -28.5t-58 -72.5q-10 -20 -25 -92q-14 -66 -14 -99q0 -99 100 -99q65 0 104 48q36 45 57 143q11 52 11 93z" />
    <glyph glyph-name="c" unicode="c" horiz-adv-x="465" 
d="M450 353l-3 -19q-24 4 -40 4q-18 0 -39 -5l1 16q6 99 -71 99q-118 0 -162 -208q-12 -54 -12 -92q0 -97 81 -97q47 0 82.5 35t48.5 93q19 -9 44 -9q15 0 32 4q-59 -188 -213 -188q-153 0 -153 160q0 43 11 95q58 274 258 274q138 0 138 -125q0 -17 -3 -37z" />
    <glyph glyph-name="d" unicode="d" horiz-adv-x="533" 
d="M558 709q-32 -138 -61 -276q-15 -70 -61 -298q-3 -13 -16 -135h-12q-43 0 -65 -4q1 7 15 75l1 5q0 6 -4 6t-12 -11q-9 -15 -40 -45q-51 -36 -119 -36q-139 0 -139 161q0 47 12 103q24 115 81 182q66 78 167 78q47 0 80 -26q26 -21 30 -44q3 -18 8 -18q3 0 4 6.5t4 30.5
q2 15 6 37l42 209q18 -5 38 -5q16 0 41 5zM398 325q5 50 -14 83q-24 39 -79 39q-70 0 -111 -52q-38 -47 -60 -149q-11 -52 -11 -87q0 -104 89 -104q56 0 101 42q40 37 56 94q24 84 29 134z" />
    <glyph glyph-name="e" unicode="e" horiz-adv-x="493" 
d="M461 358q0 -40 -11 -92l-6 -27q-54 2 -161 2h-131q-18 0 -22 -3.5t-7 -20.5q-4 -26 -4 -54q0 -111 102 -111q97 0 135 93q29 -4 48 -4q10 0 22 2q-58 -157 -218 -157q-77 0 -119.5 45t-42.5 128q0 130 67 235q78 122 204 122q144 0 144 -158zM385 360q0 90 -82 90
q-48 0 -91.5 -36.5t-65.5 -94.5q-4 -11 -4 -16q0 -9 19 -9h70q32 0 121 2q19 0 24.5 7.5t7.5 38.5q1 13 1 18z" />
    <glyph glyph-name="f" unicode="f" horiz-adv-x="298" 
d="M380 702q-3 -42 -16 -73q-23 10 -45 10q-34 0 -52 -28q-12 -18 -22 -61q-11 -48 -11 -45q0 -7 14 -7q63 0 90 2q-15 -39 -15 -67q-52 2 -93 2q-11 0 -14 -12q-43 -200 -88 -423q-18 5 -38 5t-38 -5q28 125 50 227l42 197q1 1 1 4q0 7 -12 7q-19 0 -73 -2q14 32 14 62v5
q36 -2 71 -2q14 0 17 16.5t7 39.5q17 80 58.5 118.5t100.5 38.5q27 0 52 -9z" />
    <glyph glyph-name="g" unicode="g" horiz-adv-x="534" 
d="M522 504q-14 -47 -41 -141q-20 -75 -43 -190l-38 -190q-38 -181 -236 -181q-150 0 -150 95q0 14 4 33q16 -2 41 -2t38 2q-2 -9 -2 -17q0 -50 81 -50q54 0 95 31.5t54 86.5l10 44q2 9 10 29t8 23q0 5 -4 5q-5 0 -19 -16q-10 -12 -21 -25q-42 -46 -116 -46q-147 0 -147 167
q0 43 12 99q26 124 90 188.5t156 64.5q83 0 108 -67q2 -6 5.5 -15.5t7.5 -9.5t9 23q9 39 15 59q11 -4 35 -4q22 0 38 4zM393 340q0 45 -24 75q-25 34 -69 34q-123 0 -164 -192q-12 -56 -12 -96q0 -103 91 -103q51 0 103 54q42 44 63 142q12 56 12 86z" />
    <glyph glyph-name="h" unicode="h" horiz-adv-x="531" 
d="M484 400q0 -25 -9 -63q-28 -117 -72 -337q-19 5 -39 5q-19 0 -41 -5l64 280q17 80 17 110q0 60 -66 60q-58 0 -108 -50.5t-67 -130.5l-56 -269q-16 5 -35 5q-17 0 -42 -5q70 300 151 709q18 -4 35 -4q18 0 42 4l-45 -209q-3 -13 -10 -33q-15 -41 -15 -50q0 -5 3 -5t7 5
q1 1 12 18q52 80 158 80q58 0 87 -32.5t29 -82.5z" />
    <glyph glyph-name="i" unicode="i" 
d="M264 709q-15 -45 -20 -97q-14 3 -38 3q-23 0 -42 -3q18 57 21 97q17 -2 43 -2q23 0 36 2zM220 500q-67 -284 -107 -500q-23 5 -39 5q-22 0 -40 -5q57 238 107 500q17 -5 38 -5q16 0 41 5z" />
    <glyph glyph-name="j" unicode="j" 
d="M264 709q-15 -45 -20 -97q-14 3 -38 3q-23 0 -42 -3q18 57 21 97q17 -2 43 -2q23 0 36 2zM220 500q-15 -62 -46 -208q-20 -105 -62 -300l-2 -8q-21 -85 -59 -125q-47 -51 -133 -51q-26 0 -55 8q12 36 15 71q28 -7 52 -7q48 0 67.5 20.5t36.5 91.5q31 130 107 508
q22 -5 38 -5q21 0 41 5z" />
    <glyph glyph-name="k" unicode="k" horiz-adv-x="491" 
d="M522 500q-16 -16 -197 -180q-6 -6 -43 -34q-9 -7 -9 -14q0 -5 4 -10q15 -19 25 -39q46 -88 120 -223q-44 5 -55 5q-20 0 -36 -5q-42 84 -106 213q-8 16 -14 16q-4 0 -14 -6q-24 -15 -32 -23q-14 -14 -18 -35l-34 -165q-17 5 -33 5q-19 0 -46 -5q96 422 151 709
q19 -4 41 -4q18 0 38 4q-33 -152 -83 -381q-3 -12 -9 -37q-4 -11 -10 -31v-6q0 -3 1 -3t23 22q15 15 35 33q91 81 205 194q10 -4 31 -4q19 0 65 4z" />
    <glyph glyph-name="l" unicode="l" 
d="M265 709q-36 -161 -82 -377q-51 -238 -69 -332q-17 4 -38 4t-42 -4q72 316 151 709q18 -4 39 -4t41 4z" />
    <glyph glyph-name="m" unicode="m" horiz-adv-x="800" 
d="M752 402q0 -24 -8 -63l-24 -117l-48 -222q-15 5 -37 5t-42 -5q25 96 52 222q8 34 22 103q6 31 6 56q0 68 -64 68t-108 -50q-37 -43 -51 -111l-14 -66l-45 -222q-17 5 -36 5q-18 0 -42 -5q45 192 74 343q5 26 5 42q0 64 -65 64q-63 0 -107 -54q-37 -44 -53 -112
q-20 -86 -59 -283q-18 5 -36 5t-42 -5q38 164 79 373l18 127q19 -5 37 -5q16 0 42 5q-1 -16 -6 -39l-10 -40v-5q0 -4 1 -4q3 0 11 15q22 39 59.5 63.5t80.5 24.5q113 0 113 -85v-11q0 -7 3 -7q-1 0 12 18q62 85 164 85q118 0 118 -113z" />
    <glyph glyph-name="n" unicode="n" horiz-adv-x="531" 
d="M482 397q0 -27 -6 -51l-2 -8q-22 -87 -71 -338q-11 5 -32 5q-23 0 -46 -5q25 104 70 327q7 35 7 55q0 68 -69 68q-47 0 -87 -32q-61 -49 -81 -144q-7 -31 -17 -82l-40 -192q-14 5 -33 5t-45 -5q11 48 35 161q14 65 41 196q3 16 21 143q23 -5 42 -5t36 5q-1 -17 -6 -42
q-4 -12 -10 -38q-1 -5 -1 -6q0 -2 2 -2q3 0 10 12l10 17q32 41 65.5 57.5t84.5 16.5q122 0 122 -118z" />
    <glyph glyph-name="o" unicode="o" horiz-adv-x="512" 
d="M476 343q0 -41 -11 -93q-56 -265 -257 -265q-162 0 -162 172q0 41 11 93q56 265 257 265q162 0 162 -172zM399 343q0 105 -93 105q-129 0 -171 -198q-11 -52 -11 -93q0 -105 92 -105q129 0 171 198q12 56 12 93z" />
    <glyph glyph-name="p" unicode="p" horiz-adv-x="537" 
d="M497 352q0 -46 -11 -98q-25 -117 -80 -186q-65 -83 -165 -83q-99 0 -112 62q-4 21 -10 21q-3 0 -4 -6q-2 -19 -9 -63l-39 -188q-18 5 -35 5q-20 0 -45 -5q24 106 56 255q15 70 61 298q7 35 16 135q12 -1 17 -1q23 0 63 5q-1 -8 -15 -75l-1 -5q0 -6 4 -6t12 11
q61 87 160 87q62 0 97 -38q40 -42 40 -125zM420 345q0 105 -93 105q-42 0 -93 -42q-41 -34 -60 -100q-9 -33 -19.5 -81.5t-10.5 -69.5q0 -44 25 -77t68 -33q128 0 172 209q11 52 11 89z" />
    <glyph glyph-name="q" unicode="q" horiz-adv-x="537" 
d="M522 504q-14 -47 -41 -141q-14 -53 -28 -120q-15 -77 -44 -226q-15 -67 -44 -206q-22 5 -42 5q-16 0 -37 -5q16 66 49 204q2 9 10 29t8 23q0 5 -4 5q-5 0 -19 -16q-10 -12 -21 -25q-42 -46 -116 -46q-147 0 -147 167q0 138 59 240q71 122 199 122q83 0 108 -67
q2 -6 5.5 -15.5t7.5 -9.5t9 23q9 39 15 59q11 -4 35 -4q22 0 38 4zM393 340q0 45 -24 75q-25 34 -69 34q-91 0 -139 -108q-37 -84 -37 -190q0 -103 91 -103q51 0 103 54q39 41 63 152q12 56 12 86z" />
    <glyph glyph-name="r" unicode="r" horiz-adv-x="328" 
d="M364 513q-1 -38 -18 -85q-11 3 -21 3q-68 0 -114 -65q-36 -50 -52 -128l-50 -238q-19 5 -38 5t-40 -5q16 69 54 243q12 54 33 163q11 69 12 94q21 -5 38 -5q18 0 36 5q-1 -25 -7 -53q-3 -12 -9 -35q-1 -5 -1 -10q0 -3 2 -3t12 14q18 26 26 36q15 19 33 32q45 33 92 33
q1 0 12 -1z" />
    <glyph glyph-name="s" unicode="s" horiz-adv-x="454" 
d="M419 403q0 -16 -6 -44q-15 3 -29 3q-17 0 -40 -4q3 14 3 25q0 67 -80 67q-54 0 -81.5 -26t-27.5 -64q0 -39 60 -62q55 -20 110 -41q60 -31 60 -91q0 -85 -65 -135q-60 -46 -149 -46q-155 0 -155 119q0 21 7 52q15 -4 34 -4q18 0 37 4q-5 -22 -5 -38q0 -67 96 -67
q49 0 86 24q41 28 41 75q0 38 -60 61q-55 20 -111 41q-60 32 -60 92q0 78 60 126q56 45 136 45q63 0 99 -27q40 -29 40 -85z" />
    <glyph glyph-name="t" unicode="t" horiz-adv-x="307" 
d="M337 500q-10 -32 -14 -67q-118 2 -104 2q-18 0 -24 -23q-39 -174 -58 -272q-6 -32 -6 -46q0 -40 61 -40q21 0 59 11q-3 -33 -14 -65q-47 -13 -82 -13q-104 0 -104 90q0 19 5 42l2 9q12 55 37 172q9 43 22 93l9 36q0 6 -10 6q-3 0 -13 -1t-34 -1q5 18 8 37q54 28 107 142
q9 2 24 2t31 -2q-15 -64 -24 -107q0 -2 -1 -4q0 -3 6 -3h8q7 0 109 2z" />
    <glyph glyph-name="u" unicode="u" horiz-adv-x="533" 
d="M508 501q-11 -48 -35 -161q-14 -65 -41 -196q-3 -16 -21 -143q-23 5 -42 5t-36 -5q1 17 6 42q4 12 10 38q1 5 1 6q0 2 -1 2q-3 0 -9.5 -10.5t-11.5 -18.5q-32 -41 -65.5 -57.5t-84.5 -16.5q-122 0 -122 118q0 27 6 51l2 8q22 87 71 338q11 -5 32 -5q23 0 46 5
q-25 -104 -70 -327q-7 -35 -7 -58q0 -69 67 -69q44 0 89 36q61 49 81 144q7 31 17 82l40 192q14 -5 33 -5t45 5z" />
    <glyph glyph-name="v" unicode="v" horiz-adv-x="461" 
d="M502 500q-114 -206 -274 -500q-18 3 -46 3q-30 0 -46 -3q-22 161 -65 500q31 -3 51 -3q22 0 33 3q10 -114 35 -365q1 -7 2 -59q0 -7 4 -7t8 9q16 42 24 56q57 107 189 366q11 -4 33 -4q21 0 52 4z" />
    <glyph glyph-name="w" unicode="w" horiz-adv-x="694" 
d="M735 500q-91 -190 -232 -500q-15 5 -53 5q-24 0 -49 -5q0 12 -15 268q-1 17 -1 56q0 41 2 63q0 5 2.5 17.5t2.5 16.5q0 7 -4 7q-5 0 -19 -41q-18 -53 -49 -118q-42 -84 -130 -269q-16 5 -43 5q-33 0 -57 -5q-7 164 -19 500q29 -3 44 -3q17 0 34 3q0 -50 2 -173
q2 -112 2 -160v-8q0 -12 -1 -35.5t-1 -35.5v-9q0 -10 6 -10q5 0 9 10q13 32 37 88q47 97 132 280l23 53q14 -4 47 -4q31 0 43 4l1 -53q3 -134 10 -279q1 -19 1 -30v-59q0 -10 5 -10t9 10q10 30 33 89q50 111 147 332q8 -3 31 -3q26 0 50 3z" />
    <glyph glyph-name="x" unicode="x" horiz-adv-x="429" 
d="M453 500l-170 -213q-15 -19 -15 -29q0 -7 3 -15q29 -79 90 -243q-23 4 -42 4q-18 0 -45 -4q-27 98 -46 155q-9 26 -12.5 42.5t-4.5 16.5q1 0 -13 -18q-8 -13 -25 -38q-37 -50 -118 -158q-14 5 -35 5q-12 0 -55 -5l200 251q13 17 13 32q0 11 -36 104q-22 57 -44 113
q24 -4 42 -4q17 0 43 4q16 -55 46 -164q4 -15 7 -15q4 0 13 15q12 19 31 47q25 36 84 117q15 -4 36 -4q18 0 53 4z" />
    <glyph glyph-name="y" unicode="y" horiz-adv-x="452" 
d="M493 500l-268 -500q-54 -100 -82 -133q-54 -65 -124 -65q-33 0 -63 7q7 15 11 36q3 14 4 36q31 -10 56 -10q37 0 68 28t40 69q3 14 3 36q0 -4 -12 100q-19 132 -55 396q31 -3 53 -3q23 0 34 3q10 -113 35 -363q0 -23 1 -57q1 -9 6 -9q2 0 6 9q16 42 24 56q58 119 181 364
q11 -4 31 -4t51 4z" />
    <glyph glyph-name="z" unicode="z" horiz-adv-x="410" 
d="M422 500q-3 -29 -12 -58l-284 -331q-6 -7 -26 -27q-11 -10 -11 -13t6 -3h24q17 1 24 1q119 1 197 3q-6 -24 -15 -72q-134 3 -227 3q-87 0 -113 -3q6 22 13 63l34 39q140 162 247 289l21 20q17 16 17 20q0 3 -9 3q-4 0 -12.5 -1t-11.5 -1h-58q-19 0 -141 -4q14 41 15 72
q106 -4 197 -4q93 0 125 4z" />
    <glyph glyph-name="braceleft" unicode="{" horiz-adv-x="327" 
d="M374 719q-7 -15 -7 -31v-5q-46 -1 -67 -26q-17 -19 -27 -68q-2 -12 -12 -76t-12 -76q-19 -90 -75 -126q-12 -3 -35 -10q-13 -4 -13 -12q0 -6 11 -9t28 -10q29 -23 29 -66q0 -23 -9 -65q-3 -12 -21 -80.5t-21 -80.5q-6 -28 -6 -43q0 -48 60 -49q-8 -16 -8 -29v-8h-17
q-104 0 -104 82q0 22 6 50q3 13 22 82.5t22 82.5q7 33 7 57q0 61 -56 68q8 17 9 41q76 9 100 122q2 12 11.5 76t11.5 75q16 75 53 104.5t120 29.5z" />
    <glyph glyph-name="bar" unicode="|" horiz-adv-x="235" 
d="M252 724q-99 -445 -181 -853q-9 2 -29 2q-18 0 -32 -2q88 385 181 853q19 -2 32 -2q14 0 29 2z" />
    <glyph glyph-name="braceright" unicode="}" horiz-adv-x="327" 
d="M279 637q0 -22 -6 -50q-3 -13 -21.5 -82.5t-21.5 -82.5q-7 -33 -7 -57q0 -61 55 -68q-8 -18 -8 -40v-1q-76 -9 -100 -122q-2 -12 -11.5 -76t-11.5 -75q-16 -74 -53.5 -104t-120.5 -30q8 17 8 31v5q46 1 67 26q17 19 27 68q2 12 12 76t12 76q21 99 75 126q12 3 36 10
q11 4 11 12q0 5 -6 8q-13 3 -33 11q-28 22 -28 66q0 27 8 65q3 12 21.5 80.5t21.5 80.5q6 28 6 43q0 48 -61 49q9 17 9 29q0 3 -1 8h18q103 0 103 -82z" />
    <glyph glyph-name="asciitilde" unicode="~" horiz-adv-x="653" 
d="M658 581q-49 -143 -172 -143q-47 0 -120.5 46t-105.5 46q-59 0 -104 -83q-9 5 -18 5t-25 -5q51 144 168 144q45 0 119 -48t108 -48q62 0 106 86q11 -4 21 -4t23 4z" />
    <glyph glyph-name="nonbreakingspace" unicode="&#xa0;" horiz-adv-x="903" 
 />
    <glyph glyph-name="exclamdown" unicode="&#xa1;" horiz-adv-x="331" 
d="M269 521q-14 -45 -19 -92q-20 2 -40 2q-19 0 -48 -2q17 54 20 92q20 -5 40 -5q18 0 47 5zM214 348q-9 -65 -42 -262q-34 -205 -46 -262q-23 4 -50 4q-26 0 -46 -4q12 57 65 262q51 199 69 262q10 -2 22 -2q10 0 28 2z" />
    <glyph glyph-name="cent" unicode="&#xa2;" horiz-adv-x="473" 
d="M464 411q0 -21 -5 -46q-9 2 -26 2q-31 0 -50 -3q1 8 3 22q1 9 1 17q0 69 -74 69q-130 0 -169 -185q-9 -42 -9 -76q0 -102 93 -102q100 0 130 119q21 -4 44 -4q16 0 33 4q-16 -61 -56 -108q-43 -51 -100 -66q-29 -8 -35 -35q0 -3 -12 -68q-11 4 -32 4q-20 0 -38 -4
q6 22 17 71q2 9 2 14q0 12 -17 16q-109 23 -109 147q0 36 10 83q41 192 176 240q15 5 28 8q20 4 24 22.5t12 65.5q15 -4 34 -4q21 0 35 4q-9 -35 -16 -68q-1 -5 -1 -9q0 -10 14 -13q93 -18 93 -117z" />
    <glyph glyph-name="sterling" unicode="&#xa3;" horiz-adv-x="546" 
d="M569 586q0 -20 -5 -48q-17 4 -36 4q-17 0 -37 -4q3 18 3 33q0 67 -78 67q-101 0 -138 -77q-24 -52 -24 -164q0 -24 10 -24q27 0 70 2q57 2 70 2q-5 -14 -9.5 -33.5t-4.5 -31.5q-115 3 -128 3q-5 0 -5 -14q0 -53 -7 -86q-18 -83 -75 -118q-18 -11 -18 -15q0 -6 24 -6
t69 -8.5t68 -8.5q51 0 78 26q22 22 36 73q17 -4 36 -4q18 0 35 4q-23 -89 -73 -131t-141 -42q-42 0 -109.5 20.5t-99.5 20.5q-27 0 -39 -29q-17 8 -34 8q-14 0 -34 -5q16 60 64 82q11 5 44 14q22 7 42 21q48 35 57 82q6 32 6 94q0 14 -2.5 17t-14.5 3q-9 0 -95 -2q5 13 9 30
q4 21 5 36q8 0 44 -2q27 -2 43 -2q9 0 9 8t-1.5 24t-1.5 24q0 118 61 193q67 80 185 80q142 0 142 -116z" />
    <glyph glyph-name="currency" unicode="&#xa4;" horiz-adv-x="537" 
d="M450 216l-46 -46l-48 49q-29 -18 -69 -18q-38 0 -66 17l-50 -48l-47 46l53 52q-15 31 -15 64q0 37 15 66l-48 49l47 46l47 -47q28 16 64 16q38 0 67 -17l49 46l47 -46l-51 -49q15 -30 15 -64t-15 -64zM361 332q0 33 -18 55q-21 25 -56 25t-54 -23.5t-19 -56.5t18 -56
q21 -26 55 -26q35 0 56 26q18 23 18 56z" />
    <glyph glyph-name="yen" unicode="&#xa5;" horiz-adv-x="531" 
d="M601 678q-75 -97 -211 -277q-22 -30 -22 -31q0 -4 7 -4q3 0 22 3l109 2q-10 -25 -10 -51q-14 0 -76 2q-49 1 -79 1q-8 0 -19 -17q-19 -28 -19 -54q0 -9 10 -9q14 0 167 2q-9 -21 -11 -50q-100 2 -153 2q-23 0 -27 -17q-9 -49 -35 -180q-18 5 -37 5q-18 0 -40 -5l43 182
q1 5 1 8q0 7 -18 7q-16 0 -150 -2q6 14 11 50h73q54 -1 74 -1q21 0 25 17q3 14 3 29q0 33 -15 33q-27 0 -74 -1q-58 -2 -70 -2q10 23 11 51l98 -2q2 0 11 -1.5t13 -1.5q6 0 6 6v6q-4 7 -9 22q-37 134 -91 278q13 -2 38 -2q28 0 47 2q27 -120 77 -285q0 -2 5 -26q3 -14 7 -14
q5 0 14 15q14 24 15 25q103 141 199 285q16 -2 41 -2t39 2z" />
    <glyph glyph-name="brokenbar" unicode="&#xa6;" horiz-adv-x="235" 
d="M246 694l-30 -132l-24 -123q-9 2 -29 2q-19 0 -33 -2q33 145 55 255q19 -2 31 -2q15 0 30 2zM152 255l-29 -132q-6 -28 -25 -123q-9 2 -28 2t-33 -2q26 112 54 255q19 -2 32 -2q14 0 29 2z" />
    <glyph glyph-name="section" unicode="&#xa7;" horiz-adv-x="530" 
d="M540 572q0 -14 -3 -36q-18 6 -38 6q-19 0 -42 -5q3 17 3 26q0 76 -102 76q-116 0 -136 -93q-2 -9 -2 -19q0 -46 73 -75q55 -17 111 -34q87 -34 87 -107q0 -16 -4 -35q-17 -79 -91 -126q-3 -2 -26 -10q-10 -3 -10 -7q0 -2 22 -12q46 -20 46 -89q0 -98 -82 -159
q-74 -55 -177 -55q-183 0 -183 141q0 19 4 42q18 -7 38 -7q17 0 43 7q-3 -19 -3 -29q0 -84 114 -84q138 0 159 100q3 14 3 20q0 49 -74 80q-58 18 -116 37q-90 35 -90 107q0 15 4 34q10 46 41 84t72 51q18 6 18 10q0 2 -9 6t-12 7q-39 33 -39 81q0 90 72 147q68 53 161 53
q168 0 168 -133zM408 282q0 56 -90 80q-46 12 -55 12q-10 0 -23 -5q-94 -35 -94 -110q0 -32 27 -51q52 -36 115 -36q21 0 29 3q91 36 91 107z" />
    <glyph glyph-name="dieresis" unicode="&#xa8;" 
d="M355 689q-16 -51 -19 -91q-15 3 -42 3q-26 0 -45 -3q13 37 19 91q17 -3 45 -3q26 0 42 3zM173 690q-13 -38 -19 -91q-16 2 -45 2q-28 0 -42 -2q12 40 19 91q12 -1 45 -1q31 0 42 1z" />
    <glyph glyph-name="copyright" unicode="&#xa9;" horiz-adv-x="784" 
d="M750 347q0 -146 -90 -248q-100 -112 -269 -112t-268 113q-89 101 -89 247t90 248q99 113 268 113t268 -113q90 -102 90 -248zM690 347q0 124 -75 210q-83 95 -224 95t-223 -95q-74 -86 -74 -210t74 -209q82 -95 223 -95t224 95q75 85 75 209zM565 280q-5 -70 -56 -111
q-46 -38 -111 -38q-78 0 -133 53q-61 61 -61 165t60 164q53 53 130 53q64 0 111 -39q50 -42 57 -113q-19 5 -32 5q-16 0 -33 -5q-5 45 -35 70.5t-69 25.5q-49 0 -83 -38q-39 -44 -39 -122t40 -123q36 -40 87 -40q39 0 68.5 25t34.5 69q15 -5 31 -5q18 0 33 4z" />
    <glyph glyph-name="ordfeminine" unicode="&#xaa;" horiz-adv-x="349" 
d="M357 621q0 -14 -5 -38q-4 -19 -12.5 -57t-11.5 -50q-8 -38 -11 -89q-7 1 -13 1q-15 0 -37 -4q2 19 6 36h-4q-27 -40 -86 -40q-38 0 -58 20t-20 49q0 9 2 18q13 62 71 82q22 8 103 15q20 2 23 17l1 6q2 12 2 21q0 34 -46 34q-58 0 -66 -38q0 -5 -1 -15q-11 2 -24 2
q-11 0 -24 -2q1 6 2 14q18 83 123 83q86 0 86 -65zM294 527l-4 3q-13 -2 -39 -5q-42 -4 -58 -10q-31 -14 -39 -51q-1 -5 -1 -10q0 -32 46 -32q71 0 88 81q7 33 7 24z" />
    <glyph glyph-name="guillemotleft" unicode="&#xab;" horiz-adv-x="444" 
d="M437 437q-62 -81 -96 -131l-21 -24q-9 -11 -9 -17q0 -7 5.5 -17.5t6.5 -15.5q12 -56 37 -135q-18 2 -36 2q-16 0 -42 -2q-22 79 -53 169q79 101 127 171q25 -1 42 -1q18 0 39 1zM263 433q-56 -70 -100 -133l-17 -17q-11 -11 -11 -20q0 -6 6.5 -17.5t7.5 -15.5
q17 -64 42 -130q-17 2 -36 2q-17 0 -44 -2q-31 97 -57 166q55 65 129 167q11 -1 39 -1q29 0 41 1z" />
    <glyph glyph-name="logicalnot" unicode="&#xac;" horiz-adv-x="570" 
d="M527 320q-42 -153 -61 -288q-13 2 -32 2t-34 -2q17 64 43 192q1 7 1 13q0 15 -24 16q-35 2 -101 2q-46 0 -133.5 -2t-121.5 -2q14 45 15 69q83 -3 220 -3q139 0 228 3z" />
    <glyph glyph-name="minus" unicode="&#xad;" horiz-adv-x="570" 
d="M515 282q-13 -34 -13 -61v-3q-97 2 -240 2q-135 0 -201 -2q10 27 13 64q67 -2 203 -2q142 0 238 2z" />
    <glyph glyph-name="minus" unicode="&#x2212;" horiz-adv-x="570" 
d="M515 282q-13 -34 -13 -61v-3q-97 2 -240 2q-135 0 -201 -2q10 27 13 64q67 -2 203 -2q142 0 238 2z" />
    <glyph glyph-name="registered" unicode="&#xae;" horiz-adv-x="784" 
d="M750 347q0 -146 -90 -248q-100 -112 -269 -112t-268 113q-89 101 -89 247t90 248q99 113 268 113t268 -113q90 -102 90 -248zM690 347q0 124 -75 210q-83 95 -224 95t-223 -95q-74 -86 -74 -210t74 -209q82 -95 223 -95t224 95q75 85 75 209zM546 132q-22 4 -34 4
q-14 0 -34 -3q-25 126 -42 157q-14 26 -56 26h-38q-17 0 -21 -3.5t-4 -13.5q0 -121 2 -167q-19 4 -30 4q-14 0 -34 -3l1 208q0 94 -1 233q26 -2 67 -2q13 0 39 1h39q69 0 104 -40q30 -33 30 -83q0 -40 -21 -69q-4 -6 -36.5 -21t-32.5 -17q0 -6 18 -11q28 -8 42 -48
q10 -28 42 -152zM471 450q0 66 -86 66h-55q-11 0 -11 -12q-1 -41 -1 -125q2 -7 10 -7h37q51 0 73 11q33 17 33 67z" />
    <glyph glyph-name="macron" unicode="&#xaf;" 
d="M348 640q-12 -28 -11 -54q-44 2 -129 2q-88 0 -148 -2q12 26 12 54q60 -2 149 -2q84 0 127 2z" />
    <glyph glyph-name="macron" unicode="&#x2c9;" 
d="M348 640q-12 -28 -11 -54q-44 2 -129 2q-88 0 -148 -2q12 26 12 54q60 -2 149 -2q84 0 127 2z" />
    <glyph glyph-name="degree" unicode="&#xb0;" horiz-adv-x="372" 
d="M398 556q0 -61 -42 -104t-101 -43q-56 0 -98 40.5t-42 104.5q0 60 41.5 103t99.5 43t100 -42t42 -102zM342 555q0 36 -25 62t-61 26q-35 0 -60 -26t-25 -62t24.5 -61.5t59.5 -25.5q36 0 61.5 25.5t25.5 61.5z" />
    <glyph glyph-name="plusminus" unicode="&#xb1;" horiz-adv-x="570" 
d="M524 318q-6 -13 -10 -31.5t-5 -38.5l-180 2q-9 0 -10 -7.5t-4 -21.5l-34 -179q-23 6 -38 6t-36 -6l41 176q3 9 7 25q0 7 -7 7h-11q-9 -1 -12 -1l-159 -2q14 33 15 71l159 -4q2 0 10 -1h12q8 0 9.5 8.5t2.5 21.5l34 178q21 -3 39 -3q20 0 36 3l-42 -177q-6 -25 -6 -23
q0 -8 6 -8h12q9 1 10 1zM446 -4q-11 -27 -14 -65q-96 3 -193 3q-92 0 -233 -3q10 31 14 65q93 -2 230 -2q131 0 196 2z" />
    <glyph glyph-name="twosuperior" unicode="&#xb2;" horiz-adv-x="314" 
d="M348 619q0 -10 -4 -29q-11 -50 -55 -94q-48 -48 -166 -125q-7 -3 -19 -10q-7 -4 -7 -8q1 -2 5 -2q3 0 10.5 1.5t10.5 1.5h54q15 0 118 4q-8 -17 -9 -42q-40 2 -108 2q-67 0 -122 -2q7 32 7 51q89 59 121 85q57 46 76 66q33 35 41 72q3 14 3 24q0 51 -61 51q-71 0 -89 -78
l-3 -13q-8 3 -21 3q-10 0 -22 -3q9 55 49.5 91.5t95.5 36.5q95 0 95 -83z" />
    <glyph glyph-name="threesuperior" unicode="&#xb3;" horiz-adv-x="314" 
d="M346 622q0 -15 -2 -24q-14 -64 -81 -81q-8 -2 -8 -6t6.5 -5t15.5 -3q40 -20 40 -62q0 -14 -2 -23q-10 -47 -49 -77q-42 -32 -101 -32q-96 0 -96 84v12l3 18q8 -2 21 -2q14 0 23 2q-3 -16 -3 -25q0 -53 60 -53q80 0 96 73q2 9 2 23q0 53 -64 53q-12 0 -49 -2q7 18 8 37
q32 -2 50 -2q69 0 84 71q3 14 3 19q0 47 -61 47q-65 0 -85 -69q-10 3 -20 3q-11 0 -22 -3q12 47 50 76.5t87 29.5q94 0 94 -79z" />
    <glyph glyph-name="acute" unicode="&#xb4;" 
d="M317 709q-55 -48 -144 -137q-21 3 -28 3q-20 0 -42 -3q39 47 112 137q15 4 51 4q38 0 51 -4z" />
    <glyph glyph-name="mu" unicode="&#xb5;" horiz-adv-x="533" 
d="M509 502q-36 -156 -71 -335q-24 -119 -26 -165q-23 5 -42 5t-36 -5q1 17 6 42l8 38q0 4 -2 6l-17 -24q-30 -43 -67 -59q-33 -15 -87 -15q-29 0 -50 12.5t-19 12.5l-3 -2q-1 -5 -4 -25l-27 -159q-13 3 -37 3t-44 -3q30 135 73 335l71 338q23 -6 42 -6t37 6
q-31 -128 -71 -327q-7 -35 -7 -51q0 -72 70 -72q68 0 117 64q38 50 51 112l57 274q15 -5 34 -5q18 0 44 5z" />
    <glyph glyph-name="mu" unicode="&#x3bc;" horiz-adv-x="533" 
d="M509 502q-36 -156 -71 -335q-24 -119 -26 -165q-23 5 -42 5t-36 -5q1 17 6 42l8 38q0 4 -2 6l-17 -24q-30 -43 -67 -59q-33 -15 -87 -15q-29 0 -50 12.5t-19 12.5l-3 -2q-1 -5 -4 -25l-27 -159q-13 3 -37 3t-44 -3q30 135 73 335l71 338q23 -6 42 -6t37 6
q-31 -128 -71 -327q-7 -35 -7 -51q0 -72 70 -72q68 0 117 64q38 50 51 112l57 274q15 -5 34 -5q18 0 44 5z" />
    <glyph glyph-name="paragraph" unicode="&#xb6;" horiz-adv-x="530" 
d="M543 693q-110 -479 -183 -862q-15 3 -26 3t-24 -3q23 102 81 375l88 419q1 5 1 10q0 16 -32 16l-24 -1q-17 -1 -22 -23q-109 -482 -170 -796q-16 3 -26 3q-12 0 -25 -3l95 439q3 14 3 20q0 19 -29 21q-160 10 -160 137q0 28 6 56q40 189 261 189h60q41 -1 61 -1
q43 0 65 1z" />
    <glyph glyph-name="periodcentered" unicode="&#xb7;" horiz-adv-x="169" 
d="M177 402q-21 -62 -25 -117q-21 3 -53 3q-33 0 -61 -3q17 51 25 117q25 -3 59 -3q32 0 55 3z" />
    <glyph glyph-name="periodcentered" unicode="&#x2219;" horiz-adv-x="169" 
d="M177 402q-21 -62 -25 -117q-21 3 -53 3q-33 0 -61 -3q17 51 25 117q25 -3 59 -3q32 0 55 3z" />
    <glyph glyph-name="cedilla" unicode="&#xb8;" 
d="M148 -89q0 -45 -47 -72q-40 -22 -88 -22q-37 0 -69 15q10 14 17 37q30 -9 54 -9q65 0 65 41q0 22 -53 25q-21 1 -27 1q30 36 54 82h46l-22 -35q-4 -5 -9 -12l3 -3l11 2q65 -3 65 -50z" />
    <glyph glyph-name="onesuperior" unicode="&#xb9;" horiz-adv-x="314" 
d="M286 694q-26 -119 -43.5 -200t-37.5 -182q-10 4 -20 4t-25 -4q23 98 40 181l20 96q7 34 7 27q0 3 -1 3q-2 0 -9.5 -6t-11.5 -8q-36 -15 -62 -19q6 13 7 37q73 19 109 71q5 -3 11 -3t16 3z" />
    <glyph glyph-name="ordmasculine" unicode="&#xba;" horiz-adv-x="355" 
d="M369 583q0 -24 -6 -52q-33 -153 -150 -153q-97 0 -97 101q0 24 6 52q33 154 150 154q97 0 97 -102zM320 583q0 59 -52 59q-73 0 -97 -111q-6 -28 -6 -52q0 -58 52 -58q74 0 97 110q6 28 6 52z" />
    <glyph glyph-name="guillemotright" unicode="&#xbb;" horiz-adv-x="444" 
d="M404 268q-62 -72 -130 -167q-11 1 -39 1q-29 0 -41 -1q64 80 101 133q8 8 22 24q6 8 6 13q0 6 -6.5 17.5t-7.5 15.5q-17 64 -42 130q17 -2 36 -2q16 0 43 2q26 -82 58 -166zM228 268q-69 -89 -126 -171q-25 1 -42 1q-18 0 -39 -1q51 67 95 131q9 9 26 29q5 7 5 13
q0 4 -3.5 11.5t-9.5 20.5q-12 56 -37 135q18 -2 37 -2q16 0 42 2q25 -92 52 -169z" />
    <glyph glyph-name="onequarter" unicode="&#xbc;" horiz-adv-x="606" 
d="M264 694q-26 -119 -43.5 -200t-37.5 -182q-10 4 -20 4t-25 -4q23 98 40 181l20 96q7 34 7 27q0 3 -1 3q-2 0 -9.5 -6t-11.5 -8q-36 -15 -62 -19q6 13 7 37q73 19 109 71q5 -3 11 -3t16 3zM613 694q-332 -420 -544 -702q-6 3 -26 3t-28 -3q300 380 543 702q10 -2 27 -2
q18 0 28 2zM541 124q-6 -14 -9 -40q-19 1 -43 1q-13 0 -16 -14q-9 -42 -14 -71q-14 3 -22 3q-9 0 -21 -3q1 5 15 70l2 9q0 7 -14 7q-80 0 -143 -2q10 28 10 43q67 87 193 255q17 -3 33 -3q13 0 27 3q-13 -58 -53 -245q-1 -5 -1 -8q0 -6 11 -6h21q18 1 24 1zM488 335
q0 5 -3 5q-2 0 -8.5 -10t-20.5 -31q-40 -54 -121 -163q-10 -13 -10 -12q0 -2 3 -2q1 0 5 1t6 1h8q5 -1 8 -1h74q14 0 17 13l13 59q7 34 20 98q2 10 7 32q2 8 2 10z" />
    <glyph glyph-name="onehalf" unicode="&#xbd;" horiz-adv-x="606" 
d="M264 694q-26 -119 -43.5 -200t-37.5 -182q-10 4 -20 4t-25 -4q23 98 40 181l20 96q7 34 7 27q0 3 -1 3q-2 0 -9.5 -6t-11.5 -8q-36 -15 -62 -19q6 13 7 37q73 19 109 71q5 -3 11 -3t16 3zM613 694q-332 -420 -544 -702q-6 3 -26 3t-28 -3q300 380 543 702q10 -2 27 -2
q18 0 28 2zM589 301q0 -65 -58 -123q-65 -65 -184 -134q-8 -5 -8 -8q1 -2 5 -2q3 0 10.5 1t10.5 1q17 0 53 1q75 1 119 3q-8 -24 -9 -42q-40 2 -108 2t-123 -2q8 38 8 48q0 5 0 4q45 29 121 84q57 46 76 66q33 35 41 72q3 14 3 25q0 50 -61 50q-73 0 -89 -77l-3 -14
q-8 3 -21 3q-10 0 -22 -3q9 55 49.5 91.5t95.5 36.5q94 0 94 -83z" />
    <glyph glyph-name="threequarters" unicode="&#xbe;" horiz-adv-x="606" 
d="M346 622q0 -15 -2 -24q-14 -64 -81 -81q-8 -2 -8 -6t6.5 -5t15.5 -3q40 -20 40 -62q0 -14 -2 -23q-10 -47 -49 -77q-42 -32 -101 -32q-96 0 -96 84v12l3 18q8 -2 21 -2q14 0 23 2q-3 -16 -3 -25q0 -53 60 -53q80 0 96 73q2 9 2 23q0 53 -64 53q-12 0 -49 -2q7 18 8 37
q32 -2 50 -2q69 0 84 71q3 14 3 19q0 47 -61 47q-65 0 -85 -69q-10 3 -20 3q-11 0 -22 -3q12 47 50 76.5t87 29.5q94 0 94 -79zM645 694q-332 -420 -544 -702q-6 3 -26 3t-28 -3q300 380 543 702q10 -2 28 -2q17 0 27 2zM541 124q-6 -14 -9 -40q-19 1 -43 1q-13 0 -16 -14
q-9 -42 -14 -71q-14 3 -22 3q-9 0 -21 -3q1 5 15 70l2 9q0 7 -14 7q-80 0 -143 -2q10 28 10 43q67 87 193 255q17 -3 33 -3q13 0 27 3q-13 -58 -53 -245q-1 -5 -1 -8q0 -6 11 -6h21q18 1 24 1zM488 335q0 5 -3 5q-2 0 -8.5 -10t-20.5 -31q-40 -54 -121 -163q-10 -13 -10 -12
q0 -2 3 -2q1 0 5 1t6 1h8q5 -1 8 -1h74q14 0 17 13l13 59q7 34 20 98q2 10 7 32q2 8 2 10z" />
    <glyph glyph-name="questiondown" unicode="&#xbf;" horiz-adv-x="493" 
d="M386 521q-17 -41 -19 -92q-18 2 -46 2q-27 0 -42 -2q17 51 20 92q27 -5 45 -5q19 0 42 5zM403 18q-4 -22 -12 -46q-52 -153 -231 -153q-168 0 -168 139q0 27 6 55q15 69 56 114q38 42 116 81q44 22 62.5 42t28.5 59q1 5 7 32q18 -4 36 -4q16 0 39 4q-2 -9 -6 -24
q-21 -88 -80 -131q-52 -28 -104 -57q-56 -36 -72 -110q-7 -33 -7 -51q0 -82 102 -82q60 0 92 21t50 76q3 9 9 34q14 -3 35 -3q18 0 41 4z" />
    <glyph glyph-name="Agrave" unicode="&#xc0;" horiz-adv-x="593" 
d="M478 728q-8 1 -28 1t-29 -1q-31 51 -88 143q25 2 52 2q26 0 46 -2q17 -51 47 -143zM525 0q-18 5 -40 5t-49 -5q-1 12 -13 147q-1 13 -5 16.5t-18 3.5q-75 2 -141 2q-37 0 -88 -1q-22 0 -29 -4t-14 -18l-74 -146q-24 5 -46 5t-42 -5q157 286 374 695q24 -4 60 -4
q28 0 44 3q3 -43 81 -694zM417 242q0 2 -2 8.5t-2 10.5q-1 12 -20 170q-13 105 -13 169v14q-1 10 -4 10q-5 0 -9 -10q-14 -36 -22 -51q-51 -95 -157 -300q-3 -6 -12 -18q-4 -5 -4 -7q0 -4 8 -4q4 0 11 1t9 1q50 1 97 1q48 0 94 -1q2 0 8 -1t9 -1q9 0 9 8z" />
    <glyph glyph-name="Aacute" unicode="&#xc1;" horiz-adv-x="593" 
d="M529 859q-55 -48 -144 -137q-21 3 -28 3q-20 0 -42 -3q39 47 112 137q15 4 50 4q39 0 52 -4zM526 -3q-18 5 -40 5q-23 0 -50 -5q-5 47 -14 150q-1 13 -5 16.5t-18 3.5q-75 2 -141 2q-37 0 -88 -1q-22 0 -29 -4t-14 -18l-76 -149q-24 5 -45 5q-22 0 -42 -5
q158 288 376 698q24 -4 59 -4q29 0 45 3q2 -30 82 -697zM417 240q1 4 0 6q-2 5 -5 15q-11 106 -32 301q0 19 -1 52q-1 10 -4 10q-5 0 -9 -10q-14 -36 -22 -51q-51 -95 -157 -300q-3 -6 -12 -18q-2 -2 -4 -6q-1 -5 8 -5q4 0 11 1t9 1q49 1 97 1t94 -1q2 0 8 -1t9 -1q9 0 10 6
z" />
    <glyph glyph-name="Acircumflex" unicode="&#xc2;" horiz-adv-x="593" 
d="M525 726q-21 3 -41 3q-7 0 -29 -3q-8 19 -30 54l-6 16q-4 10 -10 10q-7 0 -15 -9.5t-15 -17.5q-32 -30 -51 -53q-21 3 -28 3q-21 0 -43 -3q46 47 126 137q26 -3 37 -3t38 3q9 -24 39 -81q27 -52 28 -56zM526 -3q-18 5 -40 5q-23 0 -50 -5q-5 47 -14 150q-1 13 -5 16.5
t-18 3.5q-75 2 -141 2q-37 0 -88 -1q-22 0 -29 -4t-14 -18l-76 -149q-24 5 -45 5q-22 0 -42 -5q158 288 376 698q24 -4 59 -4q29 0 45 3q2 -30 82 -697zM417 240q1 4 0 6q-2 5 -5 15q-11 106 -32 301q0 19 -1 52q-1 10 -4 10q-5 0 -9 -10q-14 -36 -22 -51q-51 -95 -157 -300
q-3 -6 -12 -18q-2 -2 -4 -6q-1 -5 8 -5q4 0 11 1t9 1q49 1 97 1t94 -1q2 0 8 -1t9 -1q9 0 10 6z" />
    <glyph glyph-name="Atilde" unicode="&#xc3;" horiz-adv-x="593" 
d="M580 842q-24 -109 -116 -109q-27 0 -62 23.5t-51 23.5q-30 0 -53 -51q-12 3 -25 3t-29 -3q8 51 40.5 81.5t77.5 30.5q27 0 62 -23.5t56 -23.5q28 0 50 48q13 -4 25 -4q13 0 25 4zM525 0q-18 5 -40 5t-49 -5q-1 12 -13 147q-1 13 -5 16.5t-18 3.5q-75 2 -141 2
q-37 0 -88 -1q-22 0 -29 -4t-14 -18l-74 -146q-24 5 -46 5t-42 -5q157 286 374 695q24 -4 60 -4q28 0 44 3q3 -43 81 -694zM417 242q0 2 -2 8.5t-2 10.5q-1 12 -20 170q-13 105 -13 169v14q-1 10 -4 10q-5 0 -9 -10q-14 -36 -22 -51q-51 -95 -157 -300q-3 -6 -12 -18
q-4 -5 -4 -7q0 -4 8 -4q4 0 11 1t9 1q50 1 97 1q48 0 94 -1q2 0 8 -1t9 -1q9 0 9 8z" />
    <glyph glyph-name="Adieresis" unicode="&#xc4;" horiz-adv-x="593" 
d="M549 839q-17 -55 -20 -91q-15 3 -41 3t-45 -3q13 37 19 91q17 -3 45 -3q26 0 42 3zM367 840q-13 -38 -19 -91q-16 2 -45 2q-28 0 -42 -2q12 40 19 91q12 -1 45 -1q31 0 42 1zM525 0q-18 5 -40 5t-49 -5q-1 12 -13 147q-1 13 -5 16.5t-18 3.5q-75 2 -141 2q-37 0 -88 -1
q-22 0 -29 -4t-14 -18l-74 -146q-24 5 -46 5t-42 -5q157 286 374 695q24 -4 60 -4q28 0 44 3q3 -43 81 -694zM419 242q0 2 -3 8.5t-3 10.5q-11 106 -32 301q-1 9 -1 22v16v14q-1 10 -4 10q-5 0 -9 -10q-14 -36 -22 -51q-51 -95 -157 -300q-3 -6 -12 -18q-4 -5 -4 -7
q0 -4 8 -4q4 0 11 1t9 1q49 1 97 1t94 -1q2 0 8 -1t9 -1q11 0 11 8z" />
    <glyph glyph-name="Aring" unicode="&#xc5;" horiz-adv-x="593" 
d="M487 812q0 -44 -27.5 -68.5t-65.5 -24.5q-37 0 -64 24t-27 67q0 44 29 70q26 23 63 23t64.5 -24t27.5 -67zM525 0q-18 5 -40 5t-49 -5q-1 12 -13 147q-1 13 -5 16.5t-18 3.5q-75 2 -141 2q-37 0 -88 -1q-22 0 -29 -4t-14 -18l-74 -146q-24 5 -46 5t-42 -5
q157 286 374 695q24 -4 60 -4q28 0 44 3q3 -43 81 -694zM446 811q0 24 -15 38t-36 14q-20 0 -35 -13.5t-15 -38.5q0 -51 49 -51q21 0 36.5 13.5t15.5 37.5zM417 242q0 2 -2 8.5t-2 10.5q-1 12 -20 170q-13 105 -13 169v14q-1 10 -4 10q-5 0 -9 -10q-14 -36 -22 -51
q-51 -95 -157 -300q-3 -6 -12 -18q-4 -5 -4 -7q0 -4 8 -4q4 0 11 1t9 1q50 1 97 1q48 0 94 -1q2 0 8 -1t9 -1q9 0 9 8z" />
    <glyph glyph-name="AE" unicode="&#xc6;" horiz-adv-x="877" 
d="M892 693q-7 -25 -11 -43t-6 -35q-103 3 -257 3q-25 0 -30.5 -3.5t-9.5 -21.5q-20 -87 -41 -186q-2 -9 -2 -12q0 -10 24 -10q79 0 256 4q-15 -42 -16 -78q-82 2 -187 3h-67q-17 0 -23.5 -4t-9.5 -19l-24 -102q-17 -74 -17 -96q0 -18 26 -18q186 0 273 4q-7 -20 -12 -42.5
t-5 -36.5q-88 5 -184 5q-118 0 -197 -5l7 33l26 113q1 17 1 20q0 15 -19 15q-42 1 -65 1q-61 0 -118 -2q-29 -1 -50 -31q-67 -96 -101 -149q-24 5 -41 5q-28 0 -47 -5q299 406 497 694q48 -6 133 -6q22 0 67 1h69q91 0 161 4zM511 636q0 9 -5 9q-10 0 -25 -24l-27 -43
q-65 -103 -226 -321q-7 -9 -7 -12q0 -5 10 -5t29 1h29q66 0 101 1q27 1 31 5q2 1 12 30l62 290q7 24 15 57q1 5 1 12z" />
    <glyph glyph-name="Ccedilla" unicode="&#xc7;" horiz-adv-x="586" 
d="M596 539q0 -34 -8 -73q-12 2 -33 2q-26 0 -47 -3q7 42 7 55q0 108 -112 108q-91 0 -148 -64q-62 -70 -95 -228q-16 -75 -16 -127q0 -151 127 -151q149 0 190 181q17 -6 40 -6q18 0 38 4q-14 -96 -76 -162t-157 -79q-25 -3 -38 -20q-6 -8 -6 -14q0 -3 2 -3t6 1t5 1
q65 0 65 -50q0 -35 -35 -63q-39 -31 -100 -31q-37 0 -69 15q10 14 17 37q30 -9 54 -9q30 0 48 13t18 28q0 23 -34 23q-16 0 -27 -3q-26 6 -20 6q17 28 33 47q9 11 9 15t-21 8q-150 26 -150 201q0 56 16 131q79 370 335 370q182 0 182 -160z" />
    <glyph glyph-name="Egrave" unicode="&#xc8;" horiz-adv-x="539" 
d="M442 728q-8 1 -28 1t-29 -1q-31 51 -88 143q25 2 52 2q26 0 46 -2q17 -51 47 -143zM554 693q-7 -23 -10 -37.5t-6 -40.5q-103 3 -257 3q-25 0 -31 -3.5t-10 -21.5q-12 -54 -36 -163l-5 -22q-1 -4 -1 -12q0 -10 24 -10h19q60 0 237 4q-15 -42 -16 -78q-82 2 -200 3h-55
q-17 0 -22.5 -4t-9.5 -19l-5 -20q-4 -16 -35 -173q-2 -10 -2 -13q0 -11 26 -11q187 0 274 4q-7 -20 -12 -42.5t-5 -36.5q-70 4 -180 4q-113 0 -202 -4q74 320 148 693q84 -4 193 -4t179 4z" />
    <glyph glyph-name="Eacute" unicode="&#xc9;" horiz-adv-x="539" 
d="M529 859q-55 -48 -144 -137q-21 3 -28 3q-20 0 -42 -3q39 47 112 137q15 4 50 4q39 0 52 -4zM554 693q-11 -38 -16 -78q-103 3 -257 3q-25 0 -31 -3.5t-10 -21.5q-12 -54 -36 -163l-5 -22q-2 -9 -2 -13q0 -9 25 -9h19q60 0 237 4q-15 -42 -16 -78q-102 3 -200 3h-55
q-19 0 -23.5 -3.5t-8.5 -19.5l-5 -20q-4 -16 -35 -173q-2 -10 -2 -13q0 -11 26 -11q187 0 274 4q-16 -46 -17 -79q-70 4 -180 4q-113 0 -202 -4q74 320 148 693q84 -4 193 -4t179 4z" />
    <glyph glyph-name="Ecircumflex" unicode="&#xca;" horiz-adv-x="539" 
d="M515 726q-21 3 -41 3q-7 0 -29 -3q-8 19 -30 54l-6 16q-4 10 -10 10q-7 0 -14.5 -9.5t-14.5 -17.5q-37 -35 -52 -53q-21 3 -28 3q-20 0 -42 -3q46 47 125 137q26 -3 37 -3t38 3q9 -24 39 -81q27 -52 28 -56zM554 693q-7 -23 -10 -37.5t-6 -40.5q-103 3 -257 3
q-25 0 -31 -3.5t-10 -21.5q-12 -54 -36 -163l-5 -22q-1 -4 -1 -12q0 -10 24 -10h19q60 0 237 4q-15 -42 -16 -78q-82 2 -200 3h-55q-17 0 -22.5 -4t-9.5 -19l-5 -20q-4 -16 -35 -173q-2 -10 -2 -13q0 -11 26 -11q187 0 274 4q-7 -20 -12 -42.5t-5 -36.5q-70 4 -180 4
q-113 0 -202 -4q74 320 148 693q84 -4 193 -4t179 4z" />
    <glyph glyph-name="Edieresis" unicode="&#xcb;" horiz-adv-x="539" 
d="M531 839q-17 -55 -20 -91q-15 3 -41 3t-45 -3q13 37 19 91q17 -3 45 -3q26 0 42 3zM349 840q-13 -38 -19 -91q-16 2 -45 2q-28 0 -42 -2q12 40 19 91q12 -1 45 -1q31 0 42 1zM554 693q-7 -23 -10 -37.5t-6 -40.5q-103 3 -257 3q-25 0 -31 -3.5t-10 -21.5
q-12 -54 -36 -163l-5 -22q-1 -4 -1 -12q0 -10 24 -10h19q60 0 237 4q-15 -42 -16 -78q-82 2 -200 3h-55q-17 0 -22.5 -4t-9.5 -19l-5 -20q-4 -16 -35 -173q-2 -10 -2 -13q0 -11 26 -11q187 0 274 4q-7 -20 -12 -42.5t-5 -36.5q-70 4 -180 4q-113 0 -202 -4q74 320 148 693
q84 -4 193 -4t179 4z" />
    <glyph glyph-name="Igrave" unicode="&#xcc;" 
d="M292 738q-8 1 -29 1q-20 0 -29 -1q-31 51 -88 143q25 2 52 2t47 -2q17 -51 47 -143zM263 694l-80 -362q-35 -164 -68 -332q-20 5 -38 5q-19 0 -45 -5q37 159 74 332q35 164 74 362q16 -4 37 -4t46 4z" />
    <glyph glyph-name="Iacute" unicode="&#xcd;" 
d="M369 869q-55 -48 -144 -137q-21 3 -28 3q-20 0 -42 -3q39 47 112 137q15 4 51 4q38 0 51 -4zM263 694l-80 -362q-35 -164 -68 -332q-20 5 -38 5q-19 0 -45 -5q37 159 74 332q35 164 74 362q16 -4 37 -4t46 4z" />
    <glyph glyph-name="Icircumflex" unicode="&#xce;" 
d="M362 726q-21 3 -41 3q-7 0 -29 -3q-8 19 -30 54l-6 16q-4 10 -10 10q-7 0 -14.5 -9.5t-14.5 -17.5q-37 -35 -52 -53q-21 3 -28 3q-20 0 -42 -3q46 47 125 137q26 -3 37 -3t38 3q9 -24 39 -81q27 -52 28 -56zM263 694l-80 -362q-35 -164 -68 -332q-20 5 -38 5
q-19 0 -45 -5q37 159 74 332q35 164 74 362q16 -4 37 -4t46 4z" />
    <glyph glyph-name="Idieresis" unicode="&#xcf;" 
d="M387 839q-17 -55 -20 -91q-15 3 -41 3t-45 -3q13 37 19 91q17 -3 45 -3q26 0 42 3zM205 840q-13 -38 -19 -91q-16 2 -45 2q-28 0 -42 -2q12 40 19 91q12 -1 45 -1q31 0 42 1zM263 694l-80 -362q-35 -164 -68 -332q-20 5 -38 5q-19 0 -45 -5q37 159 74 332q35 164 74 362
q16 -4 37 -4t46 4z" />
    <glyph glyph-name="Eth" unicode="&#xd0;" horiz-adv-x="628" 
d="M608 472q0 -60 -15 -131q-35 -164 -123.5 -252.5t-222.5 -88.5q-27 0 -75.5 1.5t-75.5 1.5q-37 0 -62 -3q29 127 65 293q1 5 1 8q0 8 -11 8q-33 0 -55 -2q14 29 14 60v7q34 -3 55 -3q12 0 15 12q37 173 64 311q45 -3 72 -3q23 0 64 1.5t64 1.5q226 0 226 -222zM526 454
q0 172 -183 172q-7 0 -72 -1q-17 0 -22.5 -5.5t-9.5 -22.5q-20 -85 -47 -212q-1 -5 -1 -6q0 -9 13 -9q84 0 121 4q-14 -29 -14 -67q-44 3 -123 3q-12 0 -15 -12q-15 -71 -34 -169q-5 -26 -5 -35q0 -14 9 -19t36 -6q19 -1 41 -1q132 0 200 69q62 62 92 205q14 66 14 112z" />
    <glyph glyph-name="Ntilde" unicode="&#xd1;" horiz-adv-x="659" 
d="M607 842l-3 -9q-13 -40 -41 -68q-33 -32 -72 -32q-27 0 -62 23.5t-51 23.5q-35 0 -58 -51q-12 3 -23 3q-10 0 -26 -3l3 9q14 43 48 73t67 30q27 0 62 -23.5t56 -23.5q33 0 55 48q13 -4 22 -4q11 0 23 4zM673 694q-41 -176 -72 -325l-78 -369q-29 4 -58 4q-28 0 -50 -4
q-82 313 -144 532q-5 25 -14 67q-6 29 -13 29q-6 0 -10 -17q-4 -35 -14 -99l-40 -185q-31 -145 -67 -327q-17 5 -36 5q-20 0 -44 -5q41 178 73 327q39 185 75 367q29 -4 65 -4q35 0 59 4q16 -62 138 -496q8 -27 15 -80q5 -39 11 -39q4 0 7 14q4 39 15 110l103 491
q23 -5 42 -5t37 5z" />
    <glyph glyph-name="Ograve" unicode="&#xd2;" horiz-adv-x="645" 
d="M460 728q-8 1 -28 1h-1q-19 0 -28 -1q-31 51 -88 143q25 2 52 2q26 0 46 -2q17 -51 47 -143zM625 480q0 -63 -17 -143q-74 -350 -336 -350q-206 0 -206 224q0 60 16 135q36 171 123.5 263t218.5 92q201 0 201 -221zM544 458q0 89 -39 135q-35 41 -97 41q-187 0 -248 -291
q-14 -66 -14 -121q0 -169 137 -169q186 0 247 287q14 66 14 118z" />
    <glyph glyph-name="Oacute" unicode="&#xd3;" horiz-adv-x="645" 
d="M601 859q-55 -48 -144 -137q-21 3 -28 3q-20 0 -42 -3q39 47 112 137q15 4 50 4q39 0 52 -4zM625 480q0 -63 -17 -143q-74 -350 -336 -350q-206 0 -206 224q0 60 16 135q36 171 123.5 263t218.5 92q201 0 201 -221zM544 458q0 89 -39 135q-35 41 -97 41q-187 0 -248 -291
q-14 -66 -14 -121q0 -169 137 -169q186 0 247 287q14 66 14 118z" />
    <glyph glyph-name="Ocircumflex" unicode="&#xd4;" horiz-adv-x="645" 
d="M551 726q-21 3 -41 3q-7 0 -29 -3q-8 19 -30 54l-6 16q-4 10 -10 10q-7 0 -14.5 -9.5t-14.5 -17.5q-37 -35 -52 -53q-21 3 -28 3q-20 0 -42 -3q46 47 125 137q26 -3 37 -3t38 3q9 -24 39 -81q27 -52 28 -56zM625 480q0 -63 -17 -143q-74 -350 -336 -350q-206 0 -206 224
q0 60 16 135q36 171 123.5 263t218.5 92q201 0 201 -221zM544 458q0 89 -39 135q-35 41 -97 41q-187 0 -248 -291q-14 -66 -14 -121q0 -169 137 -169q186 0 247 287q14 66 14 118z" />
    <glyph glyph-name="Otilde" unicode="&#xd5;" horiz-adv-x="645" 
d="M610 842q-24 -109 -116 -109q-27 0 -62 23.5t-51 23.5q-30 0 -53 -51q-12 3 -25 3t-29 -3q8 51 40.5 81.5t77.5 30.5q27 0 62 -23.5t56 -23.5q28 0 50 48q13 -4 25 -4q13 0 25 4zM625 478q0 -61 -17 -141q-74 -350 -333 -350q-209 0 -209 226q0 58 16 133q36 171 122 263
t217 92q204 0 204 -223zM545 461q0 173 -134 173q-190 0 -251 -291q-14 -66 -14 -124q0 -166 134 -166q87 0 150 68q69 73 100 219q15 71 15 121z" />
    <glyph glyph-name="Odieresis" unicode="&#xd6;" horiz-adv-x="645" 
d="M585 839q-17 -55 -20 -91q-15 3 -41 3t-45 -3q13 37 19 91q17 -3 45 -3q26 0 42 3zM403 840q-13 -38 -19 -91q-16 2 -45 2q-28 0 -42 -2q12 40 19 91q12 -1 45 -1q31 0 42 1zM625 480q0 -63 -17 -143q-74 -350 -336 -350q-206 0 -206 224q0 60 16 135q36 171 123.5 263
t218.5 92q201 0 201 -221zM544 458q0 89 -39 135q-35 41 -97 41q-187 0 -248 -291q-14 -66 -14 -121q0 -169 137 -169q186 0 247 287q14 66 14 118z" />
    <glyph glyph-name="multiply" unicode="&#xd7;" horiz-adv-x="570" 
d="M517 412l-162 -137q-27 -23 -27 -28q0 -2 14 -20l102 -134q-34 -20 -55 -48q-33 47 -95 141q-10 17 -15 17q-4 0 -27 -20l-158 -140q-11 27 -34 47l161 137q24 20 24 25q0 6 -4.5 11t-9.5 9l-102 133q30 21 54 48l95 -138q14 -20 17 -20q5 0 26 19l162 144q8 -23 34 -46z
" />
    <glyph glyph-name="Oslash" unicode="&#xd8;" horiz-adv-x="645" 
d="M657 679l-47 -58q-11 -14 -11 -20t3 -13q20 -49 20 -125q0 -60 -14 -126q-74 -350 -336 -350q-79 0 -134 47q-9 8 -12 8q-4 0 -14 -12q-14 -18 -41 -52q-17 26 -34 33l49 56q12 14 12 17q0 -1 -7 16q-22 52 -22 128q0 57 13 118q36 171 123.5 263t218.5 92q79 0 133 -47
q10 -9 12 -9q4 0 11 9q16 20 39 54q13 -18 38 -29zM511 577q0 5 -9 16q-35 41 -94 41q-187 0 -248 -291q-13 -62 -13 -111q0 -29 4 -54.5t5 -25.5q4 0 8 7q7 11 7 12q133 156 327 386q13 16 13 20zM543 448q0 31 -5 60q0 7 -0.5 15t-4.5 8l-17 -21q-107 -124 -324 -382
q-13 -16 -13 -21q0 -6 8 -15q35 -39 96 -39q186 0 247 287q13 61 13 108z" />
    <glyph glyph-name="Ugrave" unicode="&#xd9;" horiz-adv-x="614" 
d="M451 728q-8 1 -28 1h-1q-19 0 -28 -1q-31 51 -88 143q25 2 52 2q26 0 46 -2q17 -51 47 -143zM628 694q-8 -33 -39 -181q-16 -87 -57 -271l-1 -4q-33 -133 -96 -192t-180 -59q-179 0 -179 164q0 43 9 79l2 8q8 32 52 239q16 74 45 217q25 -5 41 -5q18 0 37 5
q-12 -54 -46 -212q-32 -152 -51 -245q-8 -40 -8 -68q0 -111 115 -111q78 0 120 45q40 41 61 137l58 263q25 119 39 191q23 -5 43 -5q17 0 35 5z" />
    <glyph glyph-name="Uacute" unicode="&#xda;" horiz-adv-x="614" 
d="M547 859q-55 -48 -144 -137q-21 3 -28 3q-20 0 -42 -3q39 47 112 137q15 4 50 4q39 0 52 -4zM628 694q-8 -33 -39 -181q-16 -87 -57 -271l-1 -4q-33 -133 -96 -192t-180 -59q-179 0 -179 164q0 43 9 79l2 8q8 32 52 239q16 74 45 217q25 -5 41 -5q18 0 37 5
q-12 -54 -46 -212q-32 -152 -51 -245q-8 -40 -8 -68q0 -111 115 -111q78 0 120 45q40 41 61 137l58 263q25 119 39 191q23 -5 43 -5q17 0 35 5z" />
    <glyph glyph-name="Ucircumflex" unicode="&#xdb;" horiz-adv-x="614" 
d="M541 726q-21 3 -41 3q-7 0 -29 -3q-8 19 -30 54l-6 16q-4 10 -10 10q-7 0 -14.5 -9.5t-14.5 -17.5q-37 -35 -52 -53q-21 3 -28 3q-20 0 -42 -3q46 47 125 137q26 -3 37 -3t38 3q9 -24 39 -81q27 -52 28 -56zM628 694q-8 -33 -39 -181q-16 -87 -57 -271l-1 -4
q-33 -133 -96 -192t-180 -59q-179 0 -179 164q0 43 9 79l2 8q8 32 52 239q16 74 45 217q25 -5 41 -5q18 0 37 5q-12 -54 -46 -212q-32 -152 -51 -245q-8 -40 -8 -68q0 -111 115 -111q78 0 120 45q40 41 61 137l58 263q25 119 39 191q23 -5 43 -5q17 0 35 5z" />
    <glyph glyph-name="Udieresis" unicode="&#xdc;" horiz-adv-x="614" 
d="M567 839q-17 -55 -20 -91q-15 3 -41 3t-45 -3q13 37 19 91q17 -3 45 -3q26 0 42 3zM385 840q-13 -38 -19 -91q-16 2 -45 2q-28 0 -42 -2q12 40 19 91q12 -1 45 -1q31 0 42 1zM628 694q-8 -33 -39 -181q-16 -87 -57 -271l-1 -4q-33 -133 -96 -192t-180 -59
q-179 0 -179 164q0 43 9 79l2 8q8 32 52 239q16 74 45 217q25 -5 41 -5q18 0 37 5q-12 -54 -46 -212q-32 -152 -51 -245q-9 -45 -9 -76q0 -106 108 -106q78 0 123 45t66 140l58 263q25 119 39 191q23 -5 43 -5q17 0 35 5z" />
    <glyph glyph-name="Yacute" unicode="&#xdd;" horiz-adv-x="556" 
d="M511 859q-55 -48 -144 -137q-21 3 -28 3q-20 0 -42 -3q39 47 112 137q15 4 50 4q39 0 52 -4zM638 694q-109 -140 -279 -364q-34 -47 -46 -103q-14 -67 -47 -227q-16 5 -34 5q-16 0 -43 -5l50 224q7 33 7 56q0 21 -9 50q-47 135 -124 364q26 -4 45 -4q21 0 45 4
q34 -103 90 -275q6 -19 7 -49q1 -17 5 -17t12.5 17.5t31.5 48.5q78 102 205 275q20 -4 39 -4q20 0 45 4z" />
    <glyph glyph-name="Thorn" unicode="&#xde;" horiz-adv-x="553" 
d="M540 415q0 -30 -7 -63q-23 -106 -102 -163q-74 -53 -183 -53h-46q-31 1 -45 1q-17 0 -20 -16q-8 -40 -23 -121q-25 5 -42 5q-18 0 -38 -5q39 169 76 342q36 167 72 352q20 -6 39 -6t41 6q-12 -47 -25 -109l-2 -9q0 -8 21 -8q16 0 48 1t48 1q188 0 188 -155zM455 389
q0 111 -116 111q-27 0 -97 -3q-23 -1 -27 -18q-6 -24 -33 -149l-21 -97q-2 -9 -2 -13q0 -11 15 -12q24 -1 63 -1q101 0 153 38q46 34 61 106q4 19 4 38z" />
    <glyph glyph-name="germandbls" unicode="&#xdf;" horiz-adv-x="555" 
d="M528 592q0 -19 -5 -43q-20 -92 -123 -130q-17 -3 -43 -8q-7 -2 -7 -6q0 -5 19 -8l24 -4q121 -25 121 -141q0 -33 -7 -66q-19 -90 -84 -143.5t-155 -53.5q-79 0 -124 26q21 27 32 69q43 -30 103 -30q122 0 151 137q6 28 6 50q0 123 -186 123q1 0 -22 -1q15 32 15 66v7
q10 -1 30 -1q71 0 109 22q67 39 67 120q0 73 -84 73q-74 0 -112 -51q-27 -37 -46 -122l-57 -259l-45 -218q-22 6 -38 6q-17 0 -36 -6l40 180l61 297q49 238 247 238q149 0 149 -123z" />
    <glyph glyph-name="agrave" unicode="&#xe0;" horiz-adv-x="503" 
d="M393 578q-8 1 -29 1q-20 0 -29 -1q-31 51 -88 143q25 2 52 2t47 -2q17 -51 47 -143zM454 397q0 -25 -7 -58q-16 -71 -41 -188q-4 -18 -19 -151q-51 0 -78 -4q0 3 14 67q2 9 2 10q0 4 -2 4q-3 0 -14 -16q-49 -74 -150 -74q-129 0 -129 110q0 21 4 40q16 75 68 113
q40 30 110 41q6 1 116 11q39 3 44 33l2 11q5 28 5 38q0 63 -84 63q-57 0 -83.5 -17t-34.5 -55q-1 -8 -3 -21q-16 3 -37 3q-16 0 -36 -3q1 8 2 20q15 71 72 108q52 33 129 33q150 0 150 -118zM357 251q0 3 -3 3q1 0 -12 -3q-24 -5 -65 -9q-23 -2 -66 -8q-88 -19 -106 -104
q-2 -9 -2 -21q0 -60 77 -60q56 0 105 48q46 45 58 101q1 3 8 28q6 21 6 25z" />
    <glyph glyph-name="aacute" unicode="&#xe1;" horiz-adv-x="503" 
d="M470 709q-55 -48 -144 -137q-21 3 -28 3q-20 0 -42 -3q39 47 112 137q15 4 50 4q39 0 52 -4zM454 397q0 -25 -7 -58q-16 -71 -41 -188q-4 -18 -19 -151q-51 0 -78 -4q0 3 14 67q2 9 2 10q0 4 -2 4q-3 0 -14 -16q-49 -74 -150 -74q-129 0 -129 110q0 21 4 40q16 75 68 113
q40 30 110 41q6 1 116 11q39 3 44 33l2 11q5 28 5 38q0 63 -84 63q-57 0 -83.5 -17t-34.5 -55q-1 -8 -3 -21q-16 3 -37 3q-16 0 -36 -3q1 8 2 20q15 71 72 108q52 33 129 33q150 0 150 -118zM357 251q0 3 -3 3q1 0 -12 -3q-24 -5 -65 -9q-23 -2 -66 -8q-88 -19 -106 -104
q-2 -9 -2 -21q0 -60 77 -60q56 0 105 48q46 45 58 101q1 3 8 28q6 21 6 25z" />
    <glyph glyph-name="acircumflex" unicode="&#xe2;" horiz-adv-x="503" 
d="M447 576q-21 3 -41 3q-7 0 -29 -3q-8 19 -30 54l-6 16q-4 10 -10 10q-7 0 -14.5 -9.5t-14.5 -17.5q-37 -35 -52 -53q-21 3 -28 3q-20 0 -42 -3q46 47 125 137q26 -3 37 -3t38 3q9 -24 39 -81q27 -52 28 -56zM454 397q0 -25 -7 -58q-16 -71 -41 -188q-4 -18 -19 -151
q-51 0 -78 -4q0 3 14 67q2 9 2 10q0 4 -2 4q-3 0 -14 -16q-49 -74 -150 -74q-129 0 -129 110q0 21 4 40q16 75 68 113q40 30 110 41q6 1 116 11q39 3 44 33l2 11q5 28 5 38q0 63 -84 63q-57 0 -83.5 -17t-34.5 -55q-1 -8 -3 -21q-16 3 -37 3q-16 0 -36 -3q1 8 2 20
q15 71 72 108q52 33 129 33q150 0 150 -118zM357 251q0 3 -3 3q1 0 -12 -3q-24 -5 -65 -9q-23 -2 -66 -8q-88 -19 -106 -104q-2 -9 -2 -21q0 -60 77 -60q56 0 105 48q46 45 58 101q1 3 8 28q6 21 6 25z" />
    <glyph glyph-name="atilde" unicode="&#xe3;" horiz-adv-x="503" 
d="M494 692q-24 -109 -116 -109q-27 0 -62 23.5t-51 23.5q-30 0 -53 -51q-12 3 -25 3t-29 -3q8 51 40.5 81.5t77.5 30.5q27 0 62 -23.5t56 -23.5q28 0 50 48q13 -4 25 -4q13 0 25 4zM454 397q0 -25 -7 -58q-16 -71 -41 -188q-4 -18 -19 -151q-51 0 -78 -4q0 3 14 67
q2 9 2 10q0 4 -2 4q-3 0 -14 -16q-49 -74 -150 -74q-129 0 -129 110q0 21 4 40q16 75 68 113q40 30 110 41q7 1 116 11q39 3 44 33l2 11q5 28 5 38q0 63 -84 63q-57 0 -83.5 -17t-34.5 -55q-1 -8 -3 -21q-16 3 -37 3q-16 0 -36 -3q1 8 2 20q15 71 72 108q52 33 129 33
q150 0 150 -118zM357 251q0 3 -3 3q1 0 -12 -3q-24 -5 -65 -9q-23 -2 -66 -8q-88 -19 -106 -104q-2 -9 -2 -21q0 -60 77 -60q56 0 105 48q46 45 58 101q1 3 8 28q6 21 6 25z" />
    <glyph glyph-name="adieresis" unicode="&#xe4;" horiz-adv-x="503" 
d="M481 689q-16 -51 -19 -91q-15 3 -42 3q-26 0 -45 -3q13 37 19 91q17 -3 45 -3q26 0 42 3zM299 690q-13 -38 -19 -91q-16 2 -45 2q-28 0 -42 -2q12 40 19 91q12 -1 45 -1q31 0 42 1zM454 397q0 -25 -7 -58q-16 -71 -41 -188q-4 -18 -19 -151q-51 0 -78 -4q0 3 14 67
q2 9 2 10q0 4 -2 4q-3 0 -14 -16q-49 -74 -150 -74q-129 0 -129 110q0 21 4 40q16 75 68 113q40 30 110 41q6 1 116 11q39 3 44 33l2 11q5 28 5 38q0 63 -84 63q-57 0 -83.5 -17t-34.5 -55q-1 -8 -3 -21q-16 3 -37 3q-16 0 -36 -3q1 8 2 20q15 71 72 108q52 33 129 33
q150 0 150 -118zM357 251q0 3 -3 3q1 0 -12 -3q-24 -5 -65 -9q-23 -2 -66 -8q-88 -19 -106 -104q-2 -9 -2 -21q0 -60 77 -60q56 0 105 48q46 45 58 101q1 3 8 28q6 21 6 25z" />
    <glyph glyph-name="aring" unicode="&#xe5;" horiz-adv-x="503" 
d="M452 652q0 -44 -27.5 -68.5t-65.5 -24.5q-37 0 -64 24t-27 67q0 44 29 70q26 23 63 23t64.5 -24t27.5 -67zM454 397q0 -25 -7 -58q-16 -71 -41 -188q-4 -18 -19 -151q-51 0 -78 -4q0 3 14 67q2 9 2 10q0 4 -2 4q-3 0 -14 -16q-49 -74 -150 -74q-129 0 -129 110q0 21 4 40
q16 75 68 113q40 30 110 41q7 1 116 11q39 3 44 33l2 11q5 28 5 38q0 63 -84 63q-57 0 -83.5 -17t-34.5 -55q-1 -8 -3 -21q-16 3 -37 3q-16 0 -36 -3q1 8 2 20q15 71 72 108q52 33 129 33q150 0 150 -118zM411 651q0 24 -15 38t-36 14q-20 0 -35 -13.5t-15 -38.5
q0 -51 49 -51q21 0 36.5 13.5t15.5 37.5zM357 251q0 3 -3 3q1 0 -12 -3q-24 -5 -65 -9q-23 -2 -66 -8q-88 -19 -106 -104q-2 -9 -2 -21q0 -60 77 -60q56 0 105 48q46 45 58 101q1 3 8 28q6 21 6 25z" />
    <glyph glyph-name="ae" unicode="&#xe6;" horiz-adv-x="787" 
d="M755 360q0 -42 -11 -94q-2 -9 -6 -25h-290q-16 0 -19 -3t-7 -21q-7 -33 -7 -56q0 -109 103 -109q94 0 132 93q29 -4 48 -4q11 0 23 2q-58 -157 -222 -157q-90 0 -130 50q-5 6 -12 23q-5 13 -9 13q-2 0 -16 -17q-17 -19 -20 -22q-56 -46 -144 -46q-69 0 -105 34
q-32 31 -32 82q0 16 4 35q21 101 112 136q49 19 181 27q26 2 33 6.5t10 22.5l3 16q5 27 5 38q0 63 -84 63q-57 0 -83.5 -17t-34.5 -55q-1 -8 -3 -21q-16 3 -37 3q-16 0 -36 -3q1 8 2 20q15 71 76 108q54 33 132 33q107 0 127 -58q8 -22 9 -22q5 0 19 14q21 21 28 27
q49 40 121 40q140 0 140 -156zM679 359q0 91 -85 91q-47 0 -87.5 -36t-62.5 -95q-4 -11 -4 -15q0 -9 20 -9q49 -1 65 -1q60 0 121 4q33 2 33 61zM354 238q0 7 -13 8h-9q-8 0 -55 -4q-23 -2 -66 -8q-88 -19 -106 -104q-2 -9 -2 -19q0 -58 82 -58q62 0 103.5 38t56.5 107l8 36
q1 1 1 4z" />
    <glyph glyph-name="ccedilla" unicode="&#xe7;" horiz-adv-x="465" 
d="M452 387q0 -21 -2 -34l-3 -19q-24 4 -40 4q-18 0 -39 -5l1 16v15q0 84 -71 84q-118 0 -162 -208q-11 -52 -11 -88q0 -101 80 -101q47 0 82.5 35t48.5 93q18 -10 43 -10q18 0 33 5q-52 -165 -178 -185q-23 -4 -32 -18q-4 -6 -4 -9t3 -3q2 0 6 1t5 1q27 0 46 -14.5
t19 -37.5q0 -44 -48 -70q-40 -22 -87 -22q-37 0 -69 15q10 14 17 37q30 -9 54 -9q21 0 41 9q25 12 25 31q0 20 -27 20q-10 0 -21 -3q-10 4 -33 10l21 30q18 25 18 27q0 4 -11 6q-112 22 -112 154q0 41 12 97q58 274 258 274q137 0 137 -128z" />
    <glyph glyph-name="egrave" unicode="&#xe8;" horiz-adv-x="493" 
d="M402 578q-8 1 -29 1q-20 0 -29 -1q-31 51 -88 143q25 2 52 2t47 -2q17 -51 47 -143zM461 358q0 -40 -11 -92l-6 -27q-54 2 -161 2h-131q-18 0 -22 -3.5t-7 -20.5q-4 -26 -4 -54q0 -111 102 -111q97 0 135 93q29 -4 48 -4q10 0 22 2q-58 -157 -218 -157q-77 0 -119.5 45
t-42.5 128q0 130 67 235q78 122 204 122q144 0 144 -158zM385 360q0 90 -82 90q-48 0 -91.5 -36.5t-65.5 -94.5q-4 -11 -4 -16q0 -9 19 -9h70q32 0 121 2q19 0 24.5 7.5t7.5 38.5q1 13 1 18z" />
    <glyph glyph-name="eacute" unicode="&#xe9;" horiz-adv-x="493" 
d="M470 709q-55 -48 -144 -137q-21 3 -28 3q-20 0 -42 -3q39 47 112 137q15 4 50 4q39 0 52 -4zM461 358q0 -40 -11 -92l-6 -27q-54 2 -161 2h-131q-18 0 -22 -3.5t-7 -20.5q-4 -26 -4 -54q0 -111 102 -111q97 0 135 93q29 -4 48 -4q10 0 22 2q-58 -157 -218 -157
q-77 0 -119.5 45t-42.5 128q0 130 67 235q78 122 204 122q144 0 144 -158zM385 360q0 90 -82 90q-48 0 -91.5 -36.5t-65.5 -94.5q-4 -11 -4 -16q0 -9 19 -9h70q32 0 121 2q19 0 24.5 7.5t7.5 38.5q1 13 1 18z" />
    <glyph glyph-name="ecircumflex" unicode="&#xea;" horiz-adv-x="493" 
d="M456 576q-21 3 -41 3q-7 0 -29 -3q-8 19 -30 54l-6 16q-4 10 -10 10q-7 0 -14.5 -9.5t-14.5 -17.5q-37 -35 -52 -53q-21 3 -28 3q-20 0 -42 -3q46 47 125 137q26 -3 37 -3t38 3q9 -24 39 -81q27 -52 28 -56zM461 358q0 -40 -11 -92l-6 -27q-54 2 -161 2h-131
q-18 0 -22 -3.5t-7 -20.5q-4 -26 -4 -54q0 -111 102 -111q97 0 135 93q29 -4 48 -4q10 0 22 2q-58 -157 -218 -157q-77 0 -119.5 45t-42.5 128q0 130 67 235q78 122 204 122q144 0 144 -158zM385 360q0 90 -82 90q-48 0 -91.5 -36.5t-65.5 -94.5q-4 -11 -4 -16q0 -9 19 -9
h70q32 0 121 2q19 0 24.5 7.5t7.5 38.5q1 13 1 18z" />
    <glyph glyph-name="edieresis" unicode="&#xeb;" horiz-adv-x="493" 
d="M490 689q-16 -51 -19 -91q-15 3 -42 3q-26 0 -45 -3q13 37 19 91q17 -3 45 -3q26 0 42 3zM308 690q-13 -38 -19 -91q-16 2 -45 2q-28 0 -42 -2q12 40 19 91q12 -1 45 -1q31 0 42 1zM461 358q0 -40 -11 -92l-6 -27q-54 2 -161 2h-131q-18 0 -22 -3.5t-7 -20.5
q-4 -26 -4 -54q0 -111 102 -111q97 0 135 93q29 -4 48 -4q10 0 22 2q-58 -157 -218 -157q-77 0 -119.5 45t-42.5 128q0 130 67 235q78 122 204 122q144 0 144 -158zM385 360q0 90 -82 90q-48 0 -91.5 -36.5t-65.5 -94.5q-4 -11 -4 -16q0 -9 19 -9h70q32 0 121 2
q19 0 24.5 7.5t7.5 38.5q1 13 1 18z" />
    <glyph glyph-name="igrave" unicode="&#xec;" 
d="M249 578q-8 1 -29 1q-20 0 -29 -1q-31 51 -88 143q25 2 52 2t47 -2q17 -51 47 -143zM220 500q-67 -284 -107 -500q-23 5 -39 5q-22 0 -40 -5q57 238 107 500q17 -5 38 -5q16 0 41 5z" />
    <glyph glyph-name="iacute" unicode="&#xed;" 
d="M344 709q-55 -48 -144 -137q-21 3 -28 3q-20 0 -42 -3q39 47 112 137q15 4 51 4q38 0 51 -4zM220 500q-67 -284 -107 -500q-23 5 -39 5q-22 0 -40 -5q57 238 107 500q17 -5 38 -5q16 0 41 5z" />
    <glyph glyph-name="icircumflex" unicode="&#xee;" 
d="M330 576q-21 3 -41 3q-7 0 -29 -3q-8 19 -30 54l-6 16q-4 10 -10 10q-7 0 -14.5 -9.5t-14.5 -17.5q-37 -35 -52 -53q-21 3 -28 3q-20 0 -42 -3q46 47 125 137q26 -3 37 -3t38 3q9 -24 39 -81q27 -52 28 -56zM220 500q-67 -284 -107 -500q-23 5 -39 5q-22 0 -40 -5
q57 238 107 500q17 -5 38 -5q16 0 41 5z" />
    <glyph glyph-name="idieresis" unicode="&#xef;" 
d="M355 689q-16 -51 -19 -91q-15 3 -42 3q-26 0 -45 -3q13 37 19 91q17 -3 45 -3q26 0 42 3zM173 690q-13 -38 -19 -91q-16 2 -45 2q-28 0 -42 -2q12 40 19 91q12 -1 45 -1q31 0 42 1zM220 500q-67 -284 -107 -500q-23 5 -39 5q-22 0 -40 -5q57 238 107 500q17 -5 38 -5
q16 0 41 5z" />
    <glyph glyph-name="eth" unicode="&#xf0;" horiz-adv-x="546" 
d="M483 390q0 -72 -13 -133q-25 -120 -88 -191q-72 -81 -177 -81q-161 0 -161 165q0 38 10 85q26 125 97 188q65 58 159 58q21 0 44.5 -10t31 -23.5t14.5 -13.5q8 0 8 7q0 -5 -5 17q-22 97 -55 131q-8 8 -9 8q-3 0 -9 -7l-80 -55q-5 25 -21 59l53 31q11 2 11 4t-14 7
q-21 7 -45 7q-34 0 -91 -23q8 22 21 73q41 16 85 16q53 0 103 -26q10 -5 12 -5q4 0 13 6l66 45q6 -30 21 -62l-44 -22q-6 -2 -13 -5l8 -9q68 -75 68 -241zM397 332q0 47 -23 64.5t-78 17.5q-126 0 -164 -179q-9 -42 -9 -73q0 -110 96 -110q126 0 165 183q13 61 13 97z" />
    <glyph glyph-name="ntilde" unicode="&#xf1;" horiz-adv-x="531" 
d="M524 692q-24 -109 -116 -109q-27 0 -62 23.5t-51 23.5q-30 0 -53 -51q-12 3 -25 3t-29 -3q8 51 40.5 81.5t77.5 30.5q27 0 62 -23.5t56 -23.5q28 0 50 48q13 -4 25 -4q13 0 25 4zM476 346l-2 -8q-22 -87 -71 -338q-26 11 -78 0q25 104 70 327q7 33 7 55q0 68 -69 68
q-47 0 -87 -32q-61 -49 -81 -144q-7 -31 -17 -82l-40 -192q-27 10 -78 0q11 48 35 161q14 65 41 196q3 16 21 143q23 -5 42 -5t36 5q-1 -17 -6 -42q-4 -12 -10 -38q-2 -8 1 -8t10 12l10 17q32 41 65.5 57.5t84.5 16.5q59 0 91 -31t32 -85q0 -25 -7 -53z" />
    <glyph glyph-name="ograve" unicode="&#xf2;" horiz-adv-x="512" 
d="M393 578q-8 1 -29 1q-20 0 -29 -1q-31 51 -88 143q25 2 52 2t47 -2q17 -51 47 -143zM477 345q0 -39 -12 -95q-27 -129 -95 -197t-165 -68q-159 0 -159 170q0 43 11 95q27 129 95 197t165 68q160 0 160 -170zM398 340q0 108 -95 108q-126 0 -168 -198q-11 -52 -11 -90
q0 -108 95 -108q126 0 168 198q11 52 11 90z" />
    <glyph glyph-name="oacute" unicode="&#xf3;" horiz-adv-x="512" 
d="M470 709q-55 -48 -144 -137q-21 3 -28 3q-20 0 -42 -3q39 47 112 137q15 4 50 4q39 0 52 -4zM477 345q0 -39 -12 -95q-27 -129 -95 -197t-165 -68q-159 0 -159 170q0 43 11 95q27 129 95 197t165 68q160 0 160 -170zM398 340q0 108 -95 108q-126 0 -168 -198
q-11 -52 -11 -90q0 -108 95 -108q126 0 168 198q11 52 11 90z" />
    <glyph glyph-name="ocircumflex" unicode="&#xf4;" horiz-adv-x="512" 
d="M456 576q-21 3 -41 3q-7 0 -29 -3q-8 19 -30 54l-6 16q-4 10 -10 10q-7 0 -14.5 -9.5t-14.5 -17.5q-37 -35 -52 -53q-21 3 -28 3q-20 0 -42 -3q46 47 125 137q26 -3 37 -3t38 3q9 -24 39 -81q27 -52 28 -56zM477 345q0 -39 -12 -95q-27 -129 -95 -197t-165 -68
q-159 0 -159 170q0 43 11 95q27 129 95 197t165 68q160 0 160 -170zM398 340q0 108 -95 108q-126 0 -168 -198q-11 -52 -11 -90q0 -108 95 -108q126 0 168 198q11 52 11 90z" />
    <glyph glyph-name="otilde" unicode="&#xf5;" horiz-adv-x="512" 
d="M504 692q-24 -109 -116 -109q-27 0 -62 23.5t-51 23.5q-30 0 -53 -51q-12 3 -25 3t-29 -3q8 51 40.5 81.5t77.5 30.5q27 0 62 -23.5t56 -23.5q28 0 50 48q13 -4 25 -4q13 0 25 4zM477 345q0 -39 -12 -95q-27 -129 -95 -197t-165 -68q-159 0 -159 170q0 43 11 95
q27 129 95 197t165 68q160 0 160 -170zM398 340q0 108 -95 108q-126 0 -168 -198q-11 -52 -11 -90q0 -108 95 -108q126 0 168 198q11 52 11 90z" />
    <glyph glyph-name="odieresis" unicode="&#xf6;" horiz-adv-x="512" 
d="M490 689q-16 -51 -19 -91q-15 3 -42 3q-26 0 -45 -3q13 37 19 91q17 -3 45 -3q26 0 42 3zM308 690q-13 -38 -19 -91q-16 2 -45 2q-28 0 -42 -2q12 40 19 91q12 -1 45 -1q31 0 42 1zM477 345q0 -39 -12 -95q-27 -129 -95 -197t-165 -68q-159 0 -159 170q0 43 11 95
q27 129 95 197t165 68q160 0 160 -170zM398 340q0 108 -95 108q-126 0 -168 -198q-11 -52 -11 -90q0 -108 95 -108q126 0 168 198q11 52 11 90z" />
    <glyph glyph-name="divide" unicode="&#xf7;" horiz-adv-x="570" 
d="M395 492q0 -28 -21.5 -49.5t-49.5 -21.5q-20 0 -33 13t-13 33q0 27 22 49t49 22q20 0 33 -13t13 -33zM543 316q-13 -31 -16 -76q-88 4 -180 4q-4 0 -302 -4q15 46 16 76q118 -3 262 -3q137 0 220 3zM309 87q0 -28 -21.5 -49.5t-49.5 -21.5q-46 0 -46 46q0 27 22 48.5
t49 21.5q46 0 46 -45z" />
    <glyph glyph-name="oslash" unicode="&#xf8;" horiz-adv-x="512" 
d="M506 498q-51 -52 -51 -60q0 4 6 -12q14 -37 14 -82q0 -42 -11 -94q-27 -129 -95 -197t-166 -68q-49 0 -93 29q-12 8 -16 8t-14 -12l-30 -37l-36 30l38 42q13 14 13 17q0 2 -5 15q-15 39 -15 87q0 39 10 86q27 129 95 197t166 68q52 0 96 -31q10 -7 13 -7q4 0 13 12l28 36
zM371 418q0 6 -8 12q-23 18 -62 18q-126 0 -168 -198q-11 -52 -11 -115q0 -7 3 -7t17 21l220 252q9 10 9 17zM398 366q0 7 -4 7t-9 -8q-8 -13 -9 -14l-218 -251q-12 -14 -12 -18q0 -6 10 -13q23 -17 61 -17q126 0 168 198q7 32 11 89q2 19 2 27z" />
    <glyph glyph-name="ugrave" unicode="&#xf9;" horiz-adv-x="533" 
d="M402 578q-8 1 -29 1q-20 0 -29 -1q-31 51 -88 143q25 2 52 2t47 -2q17 -51 47 -143zM508 501q-11 -48 -35 -161q-14 -65 -41 -196q-3 -16 -21 -143q-23 5 -42 5t-36 -5q1 17 6 42q4 12 10 38q1 5 1 6q0 2 -1 2q-3 0 -9.5 -10.5t-11.5 -18.5q-32 -41 -65.5 -57.5
t-84.5 -16.5q-122 0 -122 118q0 27 6 51l2 8q22 87 71 338q11 -5 32 -5q23 0 46 5q-25 -104 -70 -327q-7 -35 -7 -58q0 -69 67 -69q44 0 89 36q61 49 81 144q7 31 17 82l40 192q14 -5 33 -5t45 5z" />
    <glyph glyph-name="uacute" unicode="&#xfa;" horiz-adv-x="533" 
d="M479 709q-55 -48 -144 -137q-21 3 -28 3q-20 0 -42 -3q39 47 112 137q15 4 50 4q39 0 52 -4zM508 501q-11 -48 -35 -161q-14 -65 -41 -196q-3 -16 -21 -143q-23 5 -42 5t-36 -5q1 17 6 42q4 12 10 38q1 5 1 6q0 2 -1 2q-3 0 -9.5 -10.5t-11.5 -18.5q-32 -41 -65.5 -57.5
t-84.5 -16.5q-122 0 -122 118q0 27 6 51l2 8q22 87 71 338q11 -5 32 -5q23 0 46 5q-25 -104 -70 -327q-7 -35 -7 -58q0 -69 67 -69q44 0 89 36q61 49 81 144q7 31 17 82l40 192q14 -5 33 -5t45 5z" />
    <glyph glyph-name="ucircumflex" unicode="&#xfb;" horiz-adv-x="533" 
d="M474 576q-21 3 -41 3q-7 0 -29 -3q-8 19 -30 54l-6 16q-4 10 -10 10q-7 0 -14.5 -9.5t-14.5 -17.5q-37 -35 -52 -53q-21 3 -28 3q-20 0 -42 -3q46 47 125 137q26 -3 37 -3t38 3q9 -24 39 -81q27 -52 28 -56zM508 501q-11 -48 -35 -161q-14 -65 -41 -196q-3 -16 -21 -143
q-23 5 -42 5t-36 -5q1 17 6 42q4 12 10 38q1 5 1 6q0 2 -1 2q-3 0 -9.5 -10.5t-11.5 -18.5q-32 -41 -65.5 -57.5t-84.5 -16.5q-122 0 -122 118q0 27 6 51l2 8q22 87 71 338q11 -5 32 -5q23 0 46 5q-25 -104 -70 -327q-7 -35 -7 -58q0 -69 67 -69q44 0 89 36q61 49 81 144
q7 31 17 82l40 192q14 -5 33 -5t45 5z" />
    <glyph glyph-name="udieresis" unicode="&#xfc;" horiz-adv-x="533" 
d="M491 689q-17 -55 -20 -91q-15 3 -41 3t-45 -3q13 37 19 91q17 -3 45 -3q26 0 42 3zM309 690q-13 -38 -19 -91q-16 2 -45 2q-28 0 -42 -2q12 40 19 91q12 -1 45 -1q31 0 42 1zM508 501q-11 -48 -35 -161q-14 -65 -41 -196q-3 -16 -21 -143q-23 5 -42 5t-36 -5q1 17 6 42
q4 12 10 38q1 5 1 6q0 2 -1 2q-3 0 -9.5 -10.5t-11.5 -18.5q-32 -41 -65.5 -57.5t-84.5 -16.5q-122 0 -122 118q0 27 6 51l2 8q22 87 71 338q11 -5 32 -5q23 0 46 5q-25 -104 -70 -327q-7 -35 -7 -58q0 -69 67 -69q44 0 89 36q61 49 81 144q7 31 17 82l40 192q14 -5 33 -5
t45 5z" />
    <glyph glyph-name="yacute" unicode="&#xfd;" horiz-adv-x="452" 
d="M443 709q-55 -48 -144 -137q-21 3 -28 3q-20 0 -42 -3q39 47 112 137q15 4 50 4q39 0 52 -4zM493 500l-268 -500q-54 -100 -82 -133q-54 -65 -124 -65q-33 0 -63 7q7 15 11 36q3 14 4 36q31 -10 56 -10q37 0 68 28t40 69q3 14 3 36q0 -4 -12 100q-19 132 -55 396
q31 -3 48 -3q28 0 39 3q10 -113 35 -363q2 -15 2 -46q0 -20 3 -20q4 0 8 9q16 42 24 56q58 119 181 364q11 -4 36 -4q15 0 46 4z" />
    <glyph glyph-name="thorn" unicode="&#xfe;" horiz-adv-x="537" 
d="M500 359q0 -45 -12 -101q-25 -117 -82 -188q-68 -85 -168 -85q-93 0 -108 71q-4 21 -10 21q-3 0 -4 -6q-2 -24 -10 -72l-39 -188q-18 5 -35 5q-20 0 -45 -5q30 137 94 436l97 462q29 -1 51 -1q23 0 28 1q-20 -75 -55 -224q-4 -17 -12 -41q-6 -19 -6 -23t4 -4t12 11
q61 87 160 87q140 0 140 -156zM420 344q0 105 -93 105q-43 0 -93 -41q-41 -34 -60 -100q-9 -33 -20 -84t-11 -79q0 -13 3 -24q19 -69 92 -69q70 0 111 53q38 49 60 151q11 52 11 88z" />
    <glyph glyph-name="ydieresis" unicode="&#xff;" horiz-adv-x="452" 
d="M454 689q-16 -51 -19 -91q-15 3 -42 3q-26 0 -45 -3q13 37 19 91q17 -3 45 -3q26 0 42 3zM272 690q-13 -38 -19 -91q-16 2 -45 2q-28 0 -42 -2q12 40 19 91q12 -1 45 -1q31 0 42 1zM493 500l-268 -500q-54 -100 -82 -133q-54 -65 -124 -65q-33 0 -63 7q7 15 11 36
q3 14 4 36q31 -10 56 -10q37 0 68 28t40 69q3 14 3 36q0 -4 -12 100q-19 132 -55 396q31 -3 48 -3q28 0 39 3q10 -113 35 -363q0 -23 1 -57q1 -9 6 -9q2 0 6 9q16 42 24 56q58 119 181 364q11 -4 36 -4q15 0 46 4z" />
    <glyph glyph-name="dotlessi" unicode="&#x131;" 
d="M220 500q-67 -284 -107 -500q-23 5 -39 5q-22 0 -40 -5q57 238 107 500q17 -5 38 -5q16 0 41 5z" />
    <glyph glyph-name="Lslash" unicode="&#x141;" horiz-adv-x="464" 
d="M400 79q-7 -16 -12 -39.5t-5 -39.5q-70 4 -166 4q-95 0 -183 -4l56 254q1 6 6 25l-2 3q-4 -2 -12 -8l-61 -38q6 26 19 78l57 34q15 9 21 36q20 96 64 310q22 -4 41 -4q21 0 38 4q-20 -87 -56 -253q-2 -8 -9 -31l2 -4l12 7q58 34 180 111q-14 -46 -17 -76l-181 -107
q-10 -6 -13 -22q-13 -57 -27 -114q-18 -82 -18 -111q0 -19 15 -19h31q138 0 220 4z" />
    <glyph glyph-name="lslash" unicode="&#x142;" 
d="M291 524q-13 -44 -17 -80l-69 -53q-11 -8 -22 -59q-37 -168 -69 -332q-17 4 -36 4q-23 0 -44 -4q34 149 59 266q8 37 8 40q0 5 -3 5q-1 0 -74 -59q1 2 20 82l64 49q11 8 15 27q39 182 62 299q18 -4 41 -4q19 0 39 4q-15 -68 -47 -215q-3 -9 -6 -24q0 -4 5 -4q3 0 74 58z
" />
    <glyph glyph-name="OE" unicode="&#x152;" horiz-adv-x="927" 
d="M944 708q-11 -35 -15 -74q-103 3 -257 3q-25 0 -31 -3.5t-10 -21.5q-13 -59 -38 -173l-6 -26q-1 -4 -1 -12q0 -10 24 -10h21q58 0 235 4q-15 -42 -16 -74q-79 2 -196 3h-58q-17 0 -22.5 -4t-9.5 -19l-7 -30q-37 -159 -37 -182q0 -18 25 -18q187 0 274 4q-15 -43 -16 -75
q-70 4 -180 4q-113 0 -202 -4l1 5q5 14 13 41v3q0 6 -3 6t-11 -9t-11 -11q-66 -48 -138 -48q-205 0 -205 229q0 62 16 137q37 172 125.5 267.5t218.5 95.5q66 0 110 -42q3 -3 11 -15t11 -12q4 0 5 8.5l3 25.5l5 27q84 -4 193 -4t179 4zM537 547q0 12 -8 28q-38 74 -118 74
q-186 0 -249 -299q-15 -71 -15 -123q0 -174 136 -174q82 0 146 62q24 23 33 66l33 152q18 86 38 182q4 19 4 32z" />
    <glyph glyph-name="oe" unicode="&#x153;" horiz-adv-x="822" 
d="M790 360q0 -53 -18 -123q-45 3 -170 4h-119q-16 0 -19 -3t-7 -21q-7 -33 -7 -56q0 -109 103 -109q94 0 132 93q29 -4 48 -4q11 0 23 2q-27 -74 -75 -111q-59 -46 -147 -46q-98 0 -134 59q-2 3 -6 19q-3 12 -8 12t-14 -13q-13 -17 -16 -20q-61 -58 -148 -58
q-162 0 -162 170q0 43 11 95q56 265 257 265q103 0 137 -68q1 -3 5 -21q3 -14 8 -14q6 0 16 14q13 19 15 21q67 69 155 69q140 0 140 -156zM714 359q0 91 -85 91q-47 0 -87.5 -36t-62.5 -95q-3 -8 -3 -15q0 -9 19 -9q49 -1 65 -1q60 0 121 4q33 2 33 61zM398 340
q0 108 -92 108q-129 0 -171 -198q-12 -56 -12 -90q0 -108 93 -108q129 0 171 198q11 52 11 90z" />
    <glyph glyph-name="Scaron" unicode="&#x160;" horiz-adv-x="557" 
d="M544 863q-46 -47 -125 -137q-26 3 -37 3t-38 -3q-9 24 -39 81q-27 52 -28 56q21 -3 40 -3q8 0 30 3q8 -19 30 -54l6 -16q4 -10 10 -10q7 0 14.5 9.5t14.5 17.5q37 35 52 53q21 -3 28 -3q20 0 42 3zM563 563q0 -26 -10 -63q-1 -5 -7 -22q-15 3 -38 3t-43 -3q3 12 7.5 31
t4.5 32q0 45 -31.5 69t-84.5 24q-64 0 -108 -36q-47 -38 -47 -100q0 -46 47 -74q24 -14 76 -33q59 -21 83 -33q89 -43 89 -127q0 -22 -5 -46q-19 -90 -92.5 -144.5t-177.5 -54.5q-86 0 -136 38q-54 40 -54 117q0 23 7 55q5 22 9 35q14 -3 37 -3q25 0 45 3q-7 -21 -9 -32
q-3 -19 -3 -35q0 -107 127 -107q136 0 162 121q3 14 3 25q0 52 -59 82q-20 10 -84 33q-55 20 -84 39q-64 40 -64 113q0 25 5 48q17 81 88 135t166 54q77 0 127 -36q54 -39 54 -108z" />
    <glyph glyph-name="scaron" unicode="&#x161;" horiz-adv-x="454" 
d="M458 713q-46 -47 -125 -137q-26 3 -37 3t-38 -3q-9 24 -39 81q-27 52 -28 56q21 -3 41 -3q7 0 29 3q8 -19 30 -54l6 -16q4 -10 10 -10q7 0 14.5 9.5t14.5 17.5q37 35 52 53q21 -3 28 -3q20 0 42 3zM419 407q0 -20 -6 -48q-15 3 -29 3q-17 0 -40 -4q3 14 3 29q0 61 -80 61
q-46 0 -76 -21q-33 -24 -33 -67q0 -41 60 -61q56 -17 112 -33q60 -28 60 -87q0 -15 -4 -34q-15 -70 -73 -114q-61 -45 -145 -45q-149 0 -149 116q0 12 6 48l1 6q15 -4 34 -4q18 0 37 4l-1 -5q-4 -20 -4 -33q0 -67 96 -67q48 0 82.5 22t42.5 61q2 10 2 16q0 41 -61 60
q-56 18 -112 35q-61 28 -61 89q0 18 4 36q13 62 69.5 103.5t130.5 41.5q87 0 120 -53q14 -22 14 -55z" />
    <glyph glyph-name="Ydieresis" unicode="&#x178;" horiz-adv-x="556" 
d="M531 839q-17 -55 -20 -91q-15 3 -41 3t-45 -3q13 37 19 91q17 -3 45 -3q26 0 42 3zM349 840q-13 -38 -19 -91q-16 2 -45 2q-28 0 -42 -2q12 40 19 91q12 -1 45 -1q31 0 42 1zM638 694q-109 -140 -279 -364q-34 -47 -46 -103q-14 -67 -47 -227q-16 5 -34 5q-16 0 -43 -5
l50 224q7 33 7 56q0 21 -9 50q-47 135 -124 364q26 -4 45 -4q21 0 45 4q34 -103 90 -275q6 -19 7 -49q1 -17 5 -17t12.5 17.5t31.5 48.5q78 102 205 275q20 -4 39 -4q20 0 45 4z" />
    <glyph glyph-name="Zcaron" unicode="&#x17d;" horiz-adv-x="458" 
d="M490 863q-46 -47 -125 -137q-26 3 -37 3t-38 -3q-9 24 -39 81q-27 52 -28 56q21 -3 40 -3q8 0 30 3q8 -19 30 -54l6 -16q4 -10 10 -10q7 0 14.5 9.5t14.5 17.5q37 35 52 53q21 -3 28 -3q20 0 42 3zM531 694q-4 -22 -13 -60l-430 -543q-6 -5 -11 -11q-10 -9 -10 -12
q0 -2 5 -2q4 0 18 2t19 2l295 7q-13 -32 -16 -77l-264 4q-125 0 -154 -4q14 41 15 67l378 477q13 16 45 51q20 19 20 24q0 7 -18 7h-50q-44 0 -133 -3q-96 -4 -117 -4q12 32 16 75l257 -4q61 0 148 4z" />
    <glyph glyph-name="zcaron" unicode="&#x17e;" horiz-adv-x="410" 
d="M440 713q-46 -47 -125 -137q-26 3 -37 3t-38 -3q-9 24 -39 81q-27 52 -28 56q21 -3 41 -3q7 0 29 3q8 -19 30 -54l6 -16q4 -10 10 -10q7 0 14.5 9.5t14.5 17.5q37 35 52 53q21 -3 28 -3q20 0 42 3zM422 500q-3 -29 -12 -58l-284 -331q-6 -7 -26 -27q-11 -10 -11 -13t6 -3
h24q17 1 24 1q119 1 197 3q-5 -18 -10 -40q-3 -15 -5 -32q-134 3 -227 3q-87 0 -113 -3q11 29 13 63l34 39q140 162 247 289l21 20q17 16 17 20q0 3 -9 3q-4 0 -12.5 -1t-11.5 -1h-48q-19 0 -141 -4q8 20 12 39q3 12 3 33q106 -4 197 -4q83 0 115 4z" />
    <glyph glyph-name="florin" unicode="&#x192;" horiz-adv-x="531" 
d="M635 695q-20 -33 -32 -75q-32 5 -51 5q-35 0 -55 -14q-41 -30 -89 -140q-1 -3 -3 -8v-3q0 -7 13 -7q21 0 55 1q46 2 55 2q-17 -34 -25 -70q-106 4 -111 4q-15 0 -23 -19l-117 -293q-13 -32 -26 -62l-3 -7q-45 -102 -112 -138q-46 -25 -116 -25q-15 0 -47 3q20 35 29 74
q14 -1 31 -1q68 0 95.5 25t70.5 131l120 293q1 3 3 8v4q0 7 -11 7q-4 0 -84 -4q18 35 24 61l2 9q96 -3 83 -3q12 0 20 17q4 7 9 18q42 98 81 142q61 69 171 69q16 0 43 -4z" />
    <glyph glyph-name="circumflex" unicode="&#x2c6;" 
d="M330 576q-21 3 -41 3q-7 0 -29 -3q-8 19 -30 54l-6 16q-4 10 -10 10q-7 0 -14.5 -9.5t-14.5 -17.5q-37 -35 -52 -53q-21 3 -28 3q-20 0 -42 -3q46 47 125 137q26 -3 37 -3t38 3q9 -24 39 -81q27 -52 28 -56z" />
    <glyph glyph-name="caron" unicode="&#x2c7;" 
d="M359 713q-46 -47 -125 -137q-26 3 -37 3t-38 -3q-9 24 -39 81q-27 52 -28 56q21 -3 41 -3q7 0 29 3q8 -19 30 -54l6 -16q4 -10 10 -10q7 0 14.5 9.5t14.5 17.5q37 35 52 53q21 -3 28 -3q20 0 42 3z" />
    <glyph glyph-name="breve" unicode="&#x2d8;" 
d="M362 690q-45 -132 -173 -132q-111 0 -111 112q0 8 1 20q12 -3 22 -3t26 3v-2q0 -72 77 -72q79 0 111 74q14 -3 24 -3q11 0 23 3z" />
    <glyph glyph-name="dotaccent" unicode="&#x2d9;" 
d="M265 661q-19 -58 -23 -107q-13 2 -47 2q-36 0 -54 -2q16 47 23 107q24 -3 52 -3q27 0 49 3z" />
    <glyph glyph-name="ring" unicode="&#x2da;" 
d="M324 662q0 -44 -27.5 -68.5t-65.5 -24.5q-37 0 -64 24t-27 67q0 44 29 70q26 23 63 23t64.5 -24t27.5 -67zM283 661q0 24 -15 38t-36 14q-20 0 -35 -13.5t-15 -38.5q0 -51 49 -51q21 0 36.5 13.5t15.5 37.5z" />
    <glyph glyph-name="ogonek" unicode="&#x2db;" 
d="M133 -140q-32 -9 -64 -9q-46 0 -73 18t-27 48q0 71 85 90h58l-1 -6q-25 -12 -51 -25q-26 -16 -26 -47q0 -35 62 -35q19 0 37 3q-3 -18 -3 -19q0 -2 3 -18z" />
    <glyph glyph-name="tilde" unicode="&#x2dc;" 
d="M376 692q-24 -109 -116 -109q-27 0 -62 23.5t-51 23.5q-30 0 -53 -51q-12 3 -25 3t-29 -3q8 51 40.5 81.5t77.5 30.5q27 0 62 -23.5t56 -23.5q28 0 50 48q13 -4 25 -4q13 0 25 4z" />
    <glyph glyph-name="hungarumlaut" unicode="&#x2dd;" 
d="M396 709q-55 -48 -143 -137q-21 3 -29 3q-20 0 -42 -3q39 47 112 137q14 -5 32 -5q25 0 70 5zM238 709q-55 -48 -144 -137q-21 3 -28 3q-20 0 -42 -3q39 47 112 137q14 -5 31 -5q26 0 71 5z" />
    <glyph glyph-name="Delta" unicode="&#x394;" horiz-adv-x="903" 
 />
    <glyph glyph-name="Delta" unicode="&#x2206;" horiz-adv-x="903" 
 />
    <glyph glyph-name="Omega" unicode="&#x3a9;" horiz-adv-x="903" 
 />
    <glyph glyph-name="Omega" unicode="&#x2126;" horiz-adv-x="903" 
 />
    <glyph glyph-name="pi" unicode="&#x3c0;" horiz-adv-x="903" 
 />
    <glyph glyph-name="endash" unicode="&#x2013;" horiz-adv-x="578" 
d="M560 302q-13 -40 -15 -70q-84 2 -242 2q-163 0 -272 -2q10 32 15 70q110 -2 275 -2q158 0 239 2z" />
    <glyph glyph-name="emdash" unicode="&#x2014;" horiz-adv-x="930" 
d="M912 300q-13 -38 -15 -67q-209 3 -464 3q-247 0 -401 -3q2 7 8 33q3 12 6 34h866z" />
    <glyph glyph-name="quoteleft" unicode="&#x2018;" horiz-adv-x="223" 
d="M262 709q-52 -140 -75 -249q-23 2 -42 2q-20 0 -40 -2q41 129 101 248q9 -1 19 -1q9 0 37 2z" />
    <glyph glyph-name="quoteright" unicode="&#x2019;" horiz-adv-x="223" 
d="M262 709q-41 -129 -101 -248q-9 1 -19 1q-9 0 -37 -2q54 147 76 249q23 -2 41 -2q20 0 40 2z" />
    <glyph glyph-name="quotesinglbase" unicode="&#x201a;" horiz-adv-x="241" 
d="M140 97q-39 -123 -102 -248q-9 1 -18 1q-10 0 -38 -2q48 117 76 249q23 -2 42 -2q20 0 40 2z" />
    <glyph glyph-name="quotedblleft" unicode="&#x201c;" horiz-adv-x="394" 
d="M433 709q-52 -140 -75 -249q-23 2 -42 2q-20 0 -40 -2q41 129 101 248q9 -1 19 -1q9 0 37 2zM280 709q-71 -144 -93 -249q-23 2 -42 2q-20 0 -40 -2q39 122 119 248q9 -1 19 -1q9 0 37 2z" />
    <glyph glyph-name="quotedblright" unicode="&#x201d;" horiz-adv-x="394" 
d="M433 709q-39 -122 -119 -248q-9 1 -19 1q-9 0 -37 -2q71 147 93 249q23 -2 42 -2q20 0 40 2zM262 709q-41 -129 -101 -248q-9 1 -19 1q-9 0 -37 -2q54 147 76 249q23 -2 41 -2q20 0 40 2z" />
    <glyph glyph-name="quotedblbase" unicode="&#x201e;" horiz-adv-x="394" 
d="M303 97q-39 -122 -119 -248q-9 1 -19 1q-9 0 -37 -2q71 147 93 249q23 -2 42 -2q20 0 40 2zM132 97q-41 -129 -101 -248q-9 1 -19 1q-9 0 -37 -2q52 140 75 249q23 -2 42 -2q20 0 40 2z" />
    <glyph glyph-name="dagger" unicode="&#x2020;" horiz-adv-x="522" 
d="M538 488q-6 -16 -15 -42q-2 -9 -2 -41q-108 5 -167 6q-10 0 -18 3l-3 -3l-1 -15q-2 -29 -17 -100q-17 -82 -56 -244t-56 -244q-20 3 -35 3q-13 0 -32 -4q17 81 48 243t48 243q10 48 31 118l-2 3q-2 -1 -15 -3q-71 0 -172 -6q12 29 15 41.5t4 44.5q107 -7 170 -8
q11 0 14 -3l2 3l2 17q14 75 37 212q30 -5 45 -5q18 0 43 5q-35 -132 -53 -210q-4 -15 -6 -19l2 -3q14 5 19 5q42 0 170 3z" />
    <glyph glyph-name="daggerdbl" unicode="&#x2021;" horiz-adv-x="522" 
d="M538 488q-6 -16 -15 -42q-2 -9 -2 -41q-108 5 -167 6q-10 0 -18 3l-3 -3l-1 -15q-4 -57 -22 -135l-34 -132q-3 -11 -5 -16l2 -3q2 1 15 3q70 0 171 6q-10 -24 -14 -41q-2 -8 -3 -45q-107 7 -171 8q-11 0 -14 3l-2 -3l-2 -17q-14 -75 -37 -212q-30 5 -45 5q-18 0 -43 -5
q27 102 52 210q4 15 7 19l-2 3q-14 -5 -19 -5q-42 0 -170 -3q11 27 14 41.5t3 41.5q108 -5 167 -6q10 0 17 -3l4 3l1 15q4 57 22 135l34 132q3 11 5 16l-2 3q-2 -1 -15 -3q-71 0 -172 -6q12 29 15 41.5t4 44.5q107 -7 170 -8q11 0 14 -3l2 3l2 17q14 75 37 212q30 -5 45 -5
q18 0 43 5q-35 -132 -53 -210q-4 -15 -6 -19l2 -3q14 5 19 5q42 0 170 3z" />
    <glyph glyph-name="bullet" unicode="&#x2022;" horiz-adv-x="509" 
d="M372 356q0 -49 -35 -83.5t-83 -34.5t-82.5 34.5t-34.5 83.5t34.5 84.5t82.5 35.5t83 -35.5t35 -84.5z" />
    <glyph glyph-name="ellipsis" unicode="&#x2026;" horiz-adv-x="950" 
d="M797 97q-16 -52 -20 -97q-20 5 -41 5q-18 0 -47 -5q16 52 21 97q20 -2 40 -2q18 0 47 2zM482 97q-17 -57 -21 -97q-20 5 -40 5q-18 0 -47 -5q15 47 20 97q20 -2 40 -2q19 0 48 2zM183 97q-17 -57 -21 -97q-20 5 -40 5q-18 0 -47 -5q15 47 20 97q20 -2 40 -2q19 0 48 2z
" />
    <glyph glyph-name="perthousand" unicode="&#x2030;" horiz-adv-x="1101" 
d="M1054 236q0 -28 -7 -61q-18 -83 -67.5 -134t-116.5 -51q-53 0 -82.5 33.5t-29.5 91.5q0 24 7 57q18 86 67.5 137t116.5 51q112 0 112 -124zM399 572q0 -29 -7 -62q-18 -83 -67.5 -133.5t-116.5 -50.5q-53 0 -82.5 33.5t-29.5 91.5q0 24 7 57q18 86 67.5 137t116.5 51
q112 0 112 -124zM725 686q-111 -133 -558 -686q-13 5 -32 5t-42 -5q149 175 557 686q17 -4 37 -4q21 0 38 4zM717 236q0 -28 -7 -61q-18 -83 -67.5 -134t-116.5 -51q-53 0 -82 33.5t-29 91.5q0 29 6 57q18 86 67.5 137t116.5 51q112 0 112 -124zM990 242q0 66 -60 66
q-79 0 -107 -133q-8 -38 -8 -61q0 -71 60 -71q78 0 105 128q10 47 10 71zM334 576q0 68 -58 68q-79 0 -107 -133q-8 -38 -8 -63q0 -69 59 -69q78 0 105 127q9 42 9 70zM653 242q0 66 -59 66q-80 0 -108 -133q-7 -33 -7 -61q0 -71 59 -71q78 0 105 128q10 47 10 71z" />
    <glyph glyph-name="guilsinglleft" unicode="&#x2039;" horiz-adv-x="269" 
d="M263 433q-56 -70 -100 -133q-7 -7 -21 -22q-7 -8 -7 -15q0 -5 4 -12.5t10 -20.5q15 -53 43 -130q-17 2 -35 2q-17 0 -44 -2q-21 68 -59 166q55 65 129 167q11 -1 39 -1q29 0 41 1z" />
    <glyph glyph-name="guilsinglright" unicode="&#x203a;" horiz-adv-x="269" 
d="M229 267q-55 -65 -129 -167q-11 1 -40 1q-28 0 -40 -1q56 70 100 133q1 2 14.5 15.5t13.5 18.5q0 2 -7 16q-3 7 -7 20q-17 64 -42 130q17 -2 36 -2q16 0 43 2q26 -82 58 -166z" />
    <glyph glyph-name="fraction" unicode="&#x2044;" horiz-adv-x="84" 
d="M347 667q-278 -351 -521 -675q-6 3 -26 3t-28 -3q240 304 520 675q10 -2 28 -2q17 0 27 2z" />
    <glyph glyph-name="Euro" unicode="&#x20ac;" horiz-adv-x="565" 
d="M584 600q-26 -18 -56 -67q-29 101 -142 101q-135 0 -197 -171q-6 -16 -6 -17q0 -5 18 -5h64q111 0 198 3q-17 -19 -46 -60q-81 2 -195 2h-37q-14 0 -17.5 -4t-8.5 -26l-10 -47q-1 -5 -1 -12q0 -8 16 -8h40q59 0 140 2q-36 -39 -48 -61q-91 3 -106 3h-39q-12 0 -12 -18v-9
q0 -155 118 -155q140 0 171 147q16 -6 38 -6q18 0 36 4q-18 -99 -84.5 -153t-168.5 -54q-185 0 -185 207v20q0 4 1 8v6q0 4 -3 4q-8 0 -22 -2q-17 -2 -23 -2q12 28 13 61q6 0 19 -1.5t20 -1.5l3 4q2 14 7 41q4 17 12 50l-2 3q-7 0 -21 -1t-19 -1q12 29 13 60q45 -3 43 -3
q5 0 8 9q1 6 3 13q89 238 287 238q149 0 181 -101z" />
    <glyph glyph-name="trademark" unicode="&#x2122;" horiz-adv-x="576" 
d="M635 694q-32 -137 -63 -295q-15 3 -25 3q-7 0 -23 -4q25 103 44 195l4 19q4 11 9 32q0 3 -4 4l-10 -19l-115 -229q-15 2 -22 2q-8 0 -23 -2q-6 77 -15 230v4q1 4 1 6q0 6 -3 6q-5 -1 -5 -3q-2 -13 -5 -31l-4 -21q-14 -68 -39 -193q-14 4 -21 4q-9 0 -24 -3q31 137 63 295
q16 -2 39 -2q21 0 37 2q3 -49 14 -193v-4.5v-11.5q-1 -7 -1 -10q0 -8 4 -8q2 0 6 11q5 16 9 23q40 78 94 193q34 -2 39 -2q11 0 39 2zM321 694q-3 -9 -6 -24q-2 -8 -3 -22q-34 3 -63 3q-6 0 -8 -8l-50 -243q-19 2 -24 2t-24 -2q11 49 31 140l22 103q1 1 1 4q0 4 -5 4
q-37 0 -64 -3q4 9 8 23q1 6 3 23q54 -1 97 -1q45 0 85 1z" />
    <glyph glyph-name="partialdiff" unicode="&#x2202;" horiz-adv-x="567" 
 />
    <glyph glyph-name="product" unicode="&#x220f;" horiz-adv-x="903" 
 />
    <glyph glyph-name="summation" unicode="&#x2211;" horiz-adv-x="903" 
 />
    <glyph glyph-name="radical" unicode="&#x221a;" horiz-adv-x="903" 
 />
    <glyph glyph-name="infinity" unicode="&#x221e;" horiz-adv-x="608" 
 />
    <glyph glyph-name="integral" unicode="&#x222b;" horiz-adv-x="903" 
 />
    <glyph glyph-name="approxequal" unicode="&#x2248;" horiz-adv-x="903" 
 />
    <glyph glyph-name="approxequal" unicode="&#x22f2;" horiz-adv-x="903" 
 />
    <glyph glyph-name="notequal" unicode="&#x2260;" horiz-adv-x="578" 
 />
    <glyph glyph-name="lessequal" unicode="&#x2264;" horiz-adv-x="455" 
 />
    <glyph glyph-name="lozenge" unicode="&#x25ca;" horiz-adv-x="903" 
 />
    <glyph glyph-name="fi" unicode="&#xf001;" horiz-adv-x="516" 
d="M532 709q-15 -45 -20 -97q-14 3 -37 3t-42 -3q17 53 20 97q17 -2 43 -2q23 0 36 2zM488 500q-62 -265 -106 -500q-23 5 -40 5q-22 0 -40 -5q57 238 107 500q17 -5 38 -5q16 0 41 5zM380 702q-3 -42 -16 -73q-23 10 -45 10q-34 0 -52 -28q-12 -18 -22 -61q-11 -48 -11 -45
q0 -7 14 -7q63 0 90 2q-15 -39 -15 -67q-52 2 -93 2q-11 0 -14 -12q-43 -200 -88 -423q-18 5 -38 5t-38 -5q28 125 50 227l42 197q1 1 1 4q0 7 -12 7q-19 0 -73 -2q14 32 14 62v5q36 -2 71 -2q14 0 18 17q2 9 3.5 22.5t2.5 16.5q17 80 58.5 118.5t100.5 38.5q27 0 52 -9z
" />
    <glyph glyph-name="fl" unicode="&#xf002;" horiz-adv-x="516" 
d="M533 709q-36 -161 -82 -377q-38 -177 -68 -332q-17 4 -36 4q-24 0 -45 -4q72 316 151 709q18 -4 42 -4q18 0 38 4zM380 702q-3 -42 -16 -73q-23 10 -45 10q-34 0 -52 -28q-12 -18 -22 -61q-11 -48 -11 -45q0 -7 14 -7q63 0 90 2q-15 -39 -15 -67q-52 2 -93 2
q-11 0 -14 -12q-43 -200 -88 -423q-18 5 -38 5t-38 -5q28 125 50 227l42 197q1 1 1 4q0 7 -12 7q-19 0 -73 -2q14 32 14 62v5q36 -2 71 -2q14 0 18 17q2 9 3.5 22.5t2.5 16.5q17 80 58.5 118.5t100.5 38.5q27 0 52 -9z" />
    <glyph glyph-name=".null" horiz-adv-x="30" 
 />
    <glyph glyph-name="nonmarkingreturn" horiz-adv-x="30" 
 />
    <glyph glyph-name="RS" horiz-adv-x="1134" 
 />
    <glyph glyph-name="US" horiz-adv-x="1134" 
 />
    </font>
</defs>
</svg>
